SplineFontDB: 3.0
FontName: OCRB
FullName: OCR B Regular
FamilyName: OCRB
Weight: Book
Copyright: Matthew Skala (2011); based on code by Norbert Schwarz (1986, 2011)
Version: 2
ItalicAngle: 0
UnderlinePosition: 0
UnderlineWidth: 0
Ascent: 800
Descent: 200
InvalidEm: 0
sfntRevision: 0x00020000
LayerCount: 2
Layer: 0 1 "Back" 1
Layer: 1 1 "Fore" 0
XUID: [1021 104 26715473 5490475]
StyleMap: 0x0040
FSType: 0
OS2Version: 3
OS2_WeightWidthSlopeOnly: 0
OS2_UseTypoMetrics: 0
CreationTime: 1348764369
ModificationTime: 1554829616
PfmFamily: 17
TTFWeight: 400
TTFWidth: 5
LineGap: 90
VLineGap: 0
Panose: 2 0 5 9 0 0 0 0 0 0
OS2TypoAscent: 800
OS2TypoAOffset: 0
OS2TypoDescent: -200
OS2TypoDOffset: 0
OS2TypoLinegap: 90
OS2WinAscent: 938
OS2WinAOffset: 0
OS2WinDescent: 336
OS2WinDOffset: 0
HheadAscent: 938
HheadAOffset: 0
HheadDescent: -336
HheadDOffset: 0
OS2SubXSize: 650
OS2SubYSize: 700
OS2SubXOff: 0
OS2SubYOff: 140
OS2SupXSize: 650
OS2SupYSize: 700
OS2SupXOff: 0
OS2SupYOff: 480
OS2StrikeYSize: 49
OS2StrikeYPos: 258
OS2CapHeight: 701
OS2XHeight: 534
OS2Vendor: 'PfEd'
OS2CodePages: 00000001.00000000
OS2UnicodeRanges: 000000af.00000068.00000000.00000000
Lookup: 3 0 0 "'aalt' Access All Alternates in Latin lookup 0" { "'aalt' Access All Alternates in Latin lookup 0 subtable"  } ['aalt' ('DFLT' <'dflt' > 'latn' <'dflt' > ) ]
Lookup: 1 0 0 "'ss01' Style Set 1 in Latin lookup 1" { "'ss01' Style Set 1 in Latin lookup 1 subtable"  } ['ss01' ('DFLT' <'dflt' > 'latn' <'dflt' > ) ]
Lookup: 1 0 0 "'ss02' Style Set 2 in Latin lookup 2" { "'ss02' Style Set 2 in Latin lookup 2 subtable"  } ['ss02' ('DFLT' <'dflt' > 'latn' <'dflt' > ) ]
Lookup: 1 0 0 "'ss03' Style Set 3 in Latin lookup 3" { "'ss03' Style Set 3 in Latin lookup 3 subtable"  } ['ss03' ('DFLT' <'dflt' > 'latn' <'dflt' > ) ]
Lookup: 1 0 0 "'ss04' Style Set 4 in Latin lookup 4" { "'ss04' Style Set 4 in Latin lookup 4 subtable"  } ['ss04' ('DFLT' <'dflt' > 'latn' <'dflt' > ) ]
DEI: 91125
ShortTable: maxp 16
  1
  0
  141
  87
  5

StartChar: exclam
Encoding: 33 33 4
Width: 608
GlyphClass: 2
Flags: W
LayerCount: 2
Fore
SplineSet
174 -23 m 2,0,-1
 174 23 l 2,1,2
 174 43 174 43 189 58 c 128,-1,3
 204 73 204 73 224 73 c 2,4,-1
 270 73 l 2,5,6
 290 73 290 73 305 58 c 128,-1,7
 320 43 320 43 320 23 c 2,8,-1
 320 -23 l 2,9,10
 320 -43 320 -43 305 -58 c 128,-1,11
 290 -73 290 -73 270 -73 c 2,12,-1
 224 -73 l 2,13,14
 204 -73 204 -73 189 -58 c 128,-1,15
 174 -43 174 -43 174 -23 c 2,0,-1
197 329 m 2,16,-1
 197 720 l 2,17,18
 197 741 197 741 212 755.5 c 128,-1,19
 227 770 227 770 247 770 c 128,-1,20
 267 770 267 770 282 755 c 128,-1,21
 297 740 297 740 297 720 c 2,22,-1
 297 329 l 2,23,24
 297 309 297 309 282.5 294 c 128,-1,25
 268 279 268 279 247 279 c 128,-1,26
 226 279 226 279 211.5 293.5 c 128,-1,27
 197 308 197 308 197 329 c 2,16,-1
EndSplineSet
EndChar

StartChar: quotedbl
Encoding: 34 34 5
Width: 594
GlyphClass: 2
Flags: W
LayerCount: 2
Fore
SplineSet
96.599609375 500 m 2,0,-1
 96.599609375 720 l 2,1,2
 96.599609375 740 96.599609375 740 111.599609375 755 c 128,-1,3
 126.599609375 770 126.599609375 770 146.599609375 770 c 2,4,-1
 175.599609375 770 l 2,5,6
 195.599609375 770 195.599609375 770 209.099609375 756 c 128,-1,7
 222.599609375 742 222.599609375 742 222.599609375 725 c 0,8,9
 222.599609375 724 222.599609375 724 222.299804688 722.5 c 128,-1,10
 222 721 222 721 222 720 c 2,11,-1
 196.599609375 493 l 2,12,13
 194.599609375 476 194.599609375 476 180.599609375 463 c 128,-1,14
 166.599609375 450 166.599609375 450 146.599609375 450 c 0,15,16
 127.599609375 450 127.599609375 450 112.099609375 465 c 128,-1,17
 96.599609375 480 96.599609375 480 96.599609375 500 c 2,0,-1
319.799804688 500 m 2,18,-1
 319.799804688 720 l 2,19,20
 319.799804688 741 319.799804688 741 334.200195312 755.5 c 128,-1,21
 348.599609375 770 348.599609375 770 368.599609375 770 c 2,22,-1
 391.599609375 770 l 2,23,24
 410.599609375 770 410.599609375 770 426.099609375 756 c 128,-1,25
 441.599609375 742 441.599609375 742 441.599609375 724 c 2,26,-1
 441.599609375 720 l 1,27,-1
 416.599609375 490 l 2,28,29
 412.599609375 473 412.599609375 473 400.099609375 461.5 c 128,-1,30
 387.599609375 450 387.599609375 450 368.599609375 450 c 0,31,32
 348.599609375 450 348.599609375 450 334.200195312 465 c 128,-1,33
 319.799804688 480 319.799804688 480 319.799804688 500 c 2,18,-1
EndSplineSet
Substitution2: "'ss02' Style Set 2 in Latin lookup 2 subtable" quotedbl.alt
AlternateSubs2: "'aalt' Access All Alternates in Latin lookup 0 subtable" quotedbl quotedbl.alt
EndChar

StartChar: numbersign
Encoding: 35 35 6
Width: 575
GlyphClass: 2
Flags: W
LayerCount: 2
Fore
SplineSet
67.7998046875 254 m 0,0,1
 67.7998046875 275 67.7998046875 275 82.2998046875 289.5 c 128,-1,2
 96.7998046875 304 96.7998046875 304 117.799804688 304 c 2,3,-1
 134.799804688 304 l 1,4,-1
 170.799804688 461 l 1,5,-1
 137.799804688 461 l 2,6,7
 117.799804688 461 117.799804688 461 102.799804688 475.5 c 128,-1,8
 87.7998046875 490 87.7998046875 490 87.7998046875 511 c 128,-1,9
 87.7998046875 532 87.7998046875 532 102.299804688 546.5 c 128,-1,10
 116.799804688 561 116.799804688 561 137.799804688 561 c 2,11,-1
 190.799804688 561 l 1,12,-1
 214.200195312 734 l 2,13,14
 216.599609375 750 216.599609375 750 224.700195312 761.5 c 128,-1,15
 232.799804688 773 232.799804688 773 243.599609375 773 c 0,16,17
 255.599609375 773 255.599609375 773 264.599609375 757.5 c 128,-1,18
 273.599609375 742 273.599609375 742 273.599609375 723 c 1,19,-1
 252 561 l 1,20,-1
 327.599609375 561 l 1,21,-1
 355.799804688 734 l 1,22,23
 369.799804688 773 369.799804688 773 404.799804688 773 c 0,24,25
 424.799804688 773 424.799804688 773 439.799804688 758.5 c 128,-1,26
 454.799804688 744 454.799804688 744 454.799804688 723 c 2,27,-1
 454.799804688 712 l 1,28,-1
 420.799804688 561 l 1,29,30
 438.799804688 558 438.799804688 558 451.299804688 544 c 128,-1,31
 463.799804688 530 463.799804688 530 463.799804688 511 c 0,32,33
 463.799804688 491 463.799804688 491 448.799804688 476 c 128,-1,34
 433.799804688 461 433.799804688 461 413.799804688 461 c 2,35,-1
 397.799804688 461 l 1,36,-1
 362.799804688 304 l 1,37,-1
 393.799804688 304 l 2,38,39
 414.799804688 304 414.799804688 304 429.299804688 289 c 128,-1,40
 443.799804688 274 443.799804688 274 443.799804688 254 c 128,-1,41
 443.799804688 234 443.799804688 234 428.799804688 219 c 128,-1,42
 413.799804688 204 413.799804688 204 393.799804688 204 c 2,43,-1
 341.400390625 204 l 1,44,-1
 357 26 l 2,45,46
 353 10 353 10 339 -1.5 c 128,-1,47
 325 -13 325 -13 308 -13 c 0,48,49
 288 -13 288 -13 273 2 c 128,-1,50
 258 17 258 17 258 37 c 2,51,-1
 258 48 l 1,52,-1
 279 204 l 1,53,-1
 204 204 l 1,54,-1
 174.799804688 26 l 2,55,56
 170.799804688 9 170.799804688 9 157.299804688 -2 c 128,-1,57
 143.799804688 -13 143.799804688 -13 125.799804688 -13 c 0,58,59
 105.799804688 -13 105.799804688 -13 90.7998046875 2 c 128,-1,60
 75.7998046875 17 75.7998046875 17 75.7998046875 37 c 1,61,-1
 112.799804688 204 l 1,62,63
 93.7998046875 206 93.7998046875 206 80.7998046875 220.5 c 128,-1,64
 67.7998046875 235 67.7998046875 235 67.7998046875 254 c 0,0,1
217.200195312 304 m 1,65,-1
 292.799804688 304 l 1,66,-1
 313.799804688 461 l 1,67,-1
 238.799804688 461 l 1,68,-1
 217.200195312 304 l 1,65,-1
EndSplineSet
EndChar

StartChar: dollar
Encoding: 36 36 7
Width: 639
GlyphClass: 2
Flags: W
LayerCount: 2
Fore
SplineSet
67.7998046875 177 m 0,0,1
 67.7998046875 198 67.7998046875 198 82.7998046875 212.5 c 128,-1,2
 97.7998046875 227 97.7998046875 227 117.799804688 227 c 0,3,4
 142.799804688 227 142.799804688 227 164.799804688 195.5 c 128,-1,5
 186.799804688 164 186.799804688 164 197.799804688 158 c 0,6,7
 221.799804688 146 221.799804688 146 267.799804688 142 c 1,8,-1
 267.799804688 353 l 1,9,10
 232.799804688 363 232.799804688 363 208.799804688 371.5 c 128,-1,11
 184.799804688 380 184.799804688 380 156.799804688 395.5 c 128,-1,12
 128.799804688 411 128.799804688 411 111.299804688 429.5 c 128,-1,13
 93.7998046875 448 93.7998046875 448 82.2998046875 476 c 128,-1,14
 70.7998046875 504 70.7998046875 504 70.7998046875 539 c 0,15,16
 70.7998046875 617 70.7998046875 617 126.299804688 661 c 128,-1,17
 181.799804688 705 181.799804688 705 267.799804688 715 c 1,18,-1
 267.799804688 720 l 2,19,20
 267.799804688 741 267.799804688 741 282.799804688 755.5 c 128,-1,21
 297.799804688 770 297.799804688 770 317.799804688 770 c 128,-1,22
 337.799804688 770 337.799804688 770 352.799804688 755 c 128,-1,23
 367.799804688 740 367.799804688 740 367.799804688 720 c 2,24,-1
 367.799804688 715 l 1,25,26
 437.799804688 701 437.799804688 701 494.799804688 617 c 0,27,28
 504.799804688 604 504.799804688 604 504.799804688 588 c 0,29,30
 504.799804688 568 504.799804688 568 489.799804688 553.5 c 128,-1,31
 474.799804688 539 474.799804688 539 454.799804688 539 c 0,32,33
 429.799804688 539 429.799804688 539 419.400390625 560 c 0,34,35
 399.599609375 602 399.599609375 602 367.799804688 613 c 1,36,-1
 367.799804688 426 l 1,37,38
 395.400390625 412 395.400390625 412 414.099609375 399.5 c 128,-1,39
 432.799804688 387 432.799804688 387 464.799804688 365 c 128,-1,40
 496.799804688 343 496.799804688 343 512.299804688 310.5 c 128,-1,41
 527.799804688 278 527.799804688 278 527.799804688 234 c 0,42,43
 527.799804688 155 527.799804688 155 473.900390625 105 c 128,-1,44
 420 55 420 55 367.799804688 42 c 1,45,-1
 367.799804688 40 l 2,46,47
 367.799804688 20 367.799804688 20 352.799804688 5 c 128,-1,48
 337.799804688 -10 337.799804688 -10 317.799804688 -10 c 128,-1,49
 297.799804688 -10 297.799804688 -10 282.799804688 4.5 c 128,-1,50
 267.799804688 19 267.799804688 19 267.799804688 40 c 2,51,-1
 267.799804688 42 l 1,52,53
 111.799804688 55 111.799804688 55 70.7998046875 158 c 0,54,55
 67.7998046875 164 67.7998046875 164 67.7998046875 177 c 0,0,1
169.799804688 535 m 0,56,57
 169.799804688 525 169.799804688 525 172.799804688 516 c 128,-1,58
 175.799804688 507 175.799804688 507 183.299804688 500 c 128,-1,59
 190.799804688 493 190.799804688 493 196.299804688 488 c 128,-1,60
 201.799804688 483 201.799804688 483 213.799804688 477.5 c 128,-1,61
 225.799804688 472 225.799804688 472 231.299804688 469.5 c 128,-1,62
 236.799804688 467 236.799804688 467 250.799804688 462 c 128,-1,63
 264.799804688 457 264.799804688 457 267.799804688 456 c 2,64,-1
 267.799804688 613 l 1,65,66
 169.799804688 600 169.799804688 600 169.799804688 535 c 0,56,57
367.799804688 145 m 1,67,68
 427.799804688 164 427.799804688 164 427.799804688 234 c 0,69,70
 427.799804688 290 427.799804688 290 367.799804688 325 c 1,71,-1
 367.799804688 145 l 1,67,68
EndSplineSet
EndChar

StartChar: percent
Encoding: 37 37 8
Width: 655
GlyphClass: 2
Flags: W
LayerCount: 2
Fore
SplineSet
67.7998046875 43 m 0,0,1
 67.7998046875 58 67.7998046875 58 74.7998046875 68 c 2,2,-1
 456.799804688 753 l 1,3,4
 470.799804688 767 470.799804688 767 493.799804688 767 c 0,5,6
 513.799804688 767 513.799804688 767 528.799804688 752 c 128,-1,7
 543.799804688 737 543.799804688 737 543.799804688 717 c 0,8,9
 543.799804688 704 543.799804688 704 536.799804688 692 c 2,10,-1
 161.799804688 17 l 2,11,12
 144.799804688 -8 144.799804688 -8 117.799804688 -8 c 0,13,14
 97.7998046875 -8 97.7998046875 -8 82.7998046875 7 c 128,-1,15
 67.7998046875 22 67.7998046875 22 67.7998046875 43 c 0,0,1
69.7998046875 625 m 0,16,17
 69.7998046875 684 69.7998046875 684 103.799804688 728.5 c 128,-1,18
 137.799804688 773 137.799804688 773 197.799804688 773 c 128,-1,19
 257.799804688 773 257.799804688 773 291.299804688 730 c 128,-1,20
 324.799804688 687 324.799804688 687 324.799804688 628 c 128,-1,21
 324.799804688 569 324.799804688 569 291.299804688 526.5 c 128,-1,22
 257.799804688 484 257.799804688 484 197.799804688 484 c 0,23,24
 136.799804688 484 136.799804688 484 103.299804688 525.5 c 128,-1,25
 69.7998046875 567 69.7998046875 567 69.7998046875 625 c 0,16,17
167.799804688 628 m 0,26,27
 167.799804688 591 167.799804688 591 188.799804688 584 c 1,28,-1
 197.799804688 584 l 2,29,30
 212.799804688 584 212.799804688 584 220.299804688 597.5 c 128,-1,31
 227.799804688 611 227.799804688 611 227.799804688 628 c 0,32,33
 227.799804688 673 227.799804688 673 197.799804688 673 c 128,-1,34
 167.799804688 673 167.799804688 673 167.799804688 628 c 0,26,27
309.799804688 128 m 0,35,36
 309.799804688 187 309.799804688 187 343.799804688 231.5 c 128,-1,37
 377.799804688 276 377.799804688 276 425.799804688 276 c 128,-1,38
 473.799804688 276 473.799804688 276 507.299804688 233.5 c 128,-1,39
 540.799804688 191 540.799804688 191 540.799804688 132 c 128,-1,40
 540.799804688 73 540.799804688 73 507.299804688 30 c 128,-1,41
 473.799804688 -13 473.799804688 -13 425.799804688 -13 c 0,42,43
 376.799804688 -13 376.799804688 -13 343.299804688 28.5 c 128,-1,44
 309.799804688 70 309.799804688 70 309.799804688 128 c 0,35,36
407.799804688 131 m 0,45,46
 407.799804688 117 407.799804688 117 410.799804688 103 c 128,-1,47
 413.799804688 89 413.799804688 89 420.400390625 89 c 0,48,49
 421 89 421 89 422.200195312 87 c 2,50,-1
 425.799804688 87 l 2,51,52
 434.200195312 87 434.200195312 87 439 100.5 c 128,-1,53
 443.799804688 114 443.799804688 114 443.799804688 131 c 0,54,55
 443.799804688 176 443.799804688 176 425.799804688 176 c 128,-1,56
 407.799804688 176 407.799804688 176 407.799804688 131 c 0,45,46
EndSplineSet
EndChar

StartChar: ampersand
Encoding: 38 38 9
Width: 559
GlyphClass: 2
Flags: W
LayerCount: 2
Fore
SplineSet
67.7998046875 205 m 0,0,1
 67.7998046875 321 67.7998046875 321 164.799804688 407 c 1,2,3
 95.7998046875 501 95.7998046875 501 95.7998046875 588 c 0,4,5
 95.7998046875 674 95.7998046875 674 142.900390625 723.5 c 128,-1,6
 190 773 190 773 244 773 c 0,7,8
 289.599609375 773 289.599609375 773 324.400390625 732.5 c 128,-1,9
 359.200195312 692 359.200195312 692 359.200195312 622 c 0,10,11
 359.200195312 594 359.200195312 594 351.099609375 567 c 128,-1,12
 343 540 343 540 336.700195312 522 c 128,-1,13
 330.400390625 504 330.400390625 504 316 480 c 128,-1,14
 301.599609375 456 301.599609375 456 295 446.5 c 128,-1,15
 288.400390625 437 288.400390625 437 269.799804688 414 c 128,-1,16
 251.200195312 391 251.200195312 391 248.799804688 388 c 1,17,-1
 334.599609375 189 l 1,18,19
 347.200195312 240 347.200195312 240 347.200195312 308 c 0,20,21
 347.200195312 329 347.200195312 329 362.700195312 344 c 128,-1,22
 378.200195312 359 378.200195312 359 398.200195312 359 c 128,-1,23
 418.200195312 359 418.200195312 359 433.200195312 343.5 c 128,-1,24
 448.200195312 328 448.200195312 328 448.200195312 308 c 0,25,26
 448.200195312 183 448.200195312 183 392.200195312 98 c 0,27,28
 394.200195312 94 394.200195312 94 401.200195312 86 c 128,-1,29
 408.200195312 78 408.200195312 78 411.700195312 72.5 c 128,-1,30
 415.200195312 67 415.200195312 67 418.700195312 58 c 128,-1,31
 422.200195312 49 422.200195312 49 422.200195312 40 c 0,32,33
 422.200195312 20 422.200195312 20 407.200195312 5 c 128,-1,34
 392.200195312 -10 392.200195312 -10 372.200195312 -10 c 0,35,36
 365.200195312 -10 365.200195312 -10 359.200195312 -8 c 128,-1,37
 353.200195312 -6 353.200195312 -6 349.599609375 -4.5 c 128,-1,38
 346 -3 346 -3 343 2.5 c 128,-1,39
 340 8 340 8 339.099609375 9.5 c 128,-1,40
 338.200195312 11 338.200195312 11 334.900390625 18.5 c 128,-1,41
 331.599609375 26 331.599609375 26 331 27 c 0,42,43
 292.599609375 -13 292.599609375 -13 243.400390625 -13 c 2,44,-1
 239.799804688 -13 l 2,45,46
 179.799804688 -12 179.799804688 -12 123.799804688 46.5 c 128,-1,47
 67.7998046875 105 67.7998046875 105 67.7998046875 205 c 0,0,1
167.799804688 205 m 0,48,49
 167.799804688 89 167.799804688 89 241 87 c 2,50,-1
 244.599609375 87 l 2,51,52
 272.799804688 87 272.799804688 87 295.599609375 109 c 1,53,-1
 202.599609375 324 l 1,54,55
 185.799804688 296 185.799804688 296 176.799804688 270 c 128,-1,56
 167.799804688 244 167.799804688 244 167.799804688 205 c 0,48,49
184.599609375 588 m 0,57,58
 184.599609375 534 184.599609375 534 212.799804688 467 c 1,59,60
 258.400390625 521 258.400390625 521 275.799804688 557 c 0,61,62
 294.400390625 595 294.400390625 595 294.400390625 622 c 128,-1,63
 294.400390625 649 294.400390625 649 279.099609375 661 c 128,-1,64
 263.799804688 673 263.799804688 673 244 673 c 0,65,66
 184.599609375 673 184.599609375 673 184.599609375 588 c 0,57,58
EndSplineSet
EndChar

StartChar: quotesingle
Encoding: 39 39 10
Width: 273
GlyphClass: 2
Flags: W
LayerCount: 2
Fore
SplineSet
37.2001953125 720 m 2,0,1
 37.2001953125 741 37.2001953125 741 52.2001953125 755.5 c 128,-1,2
 67.2001953125 770 67.2001953125 770 87.2001953125 770 c 2,3,-1
 168.200195312 770 l 2,4,5
 186.200195312 768 186.200195312 768 199.200195312 754 c 128,-1,6
 212.200195312 740 212.200195312 740 212.200195312 723 c 0,7,8
 212.200195312 722 212.200195312 722 211.200195312 720 c 2,9,-1
 190.200195312 428 l 1,10,11
 181.200195312 387 181.200195312 387 141.200195312 387 c 2,12,-1
 107.200195312 387 l 2,13,14
 87.2001953125 387 87.2001953125 387 72.7001953125 399 c 128,-1,15
 58.2001953125 411 58.2001953125 411 57.2001953125 430 c 2,16,-1
 37.2001953125 720 l 2,0,1
EndSplineSet
Substitution2: "'ss03' Style Set 3 in Latin lookup 3 subtable" quotesingle.alt
AlternateSubs2: "'aalt' Access All Alternates in Latin lookup 0 subtable" quotesingle quotesingle.alt
EndChar

StartChar: parenleft
Encoding: 40 40 11
Width: 376
GlyphClass: 2
Flags: W
LayerCount: 2
Fore
SplineSet
34.2001953125 371 m 2,0,-1
 34.2001953125 377 l 2,1,2
 37.2001953125 620 37.2001953125 620 244.200195312 764 c 0,3,4
 256.200195312 773 256.200195312 773 272.200195312 773 c 0,5,6
 292.200195312 773 292.200195312 773 307.200195312 758.5 c 128,-1,7
 322.200195312 744 322.200195312 744 322.200195312 723 c 0,8,9
 322.200195312 697 322.200195312 697 300.200195312 682 c 0,10,11
 223.200195312 631 223.200195312 631 179.200195312 558 c 128,-1,12
 135.200195312 485 135.200195312 485 134.200195312 377 c 2,13,-1
 134.200195312 372 l 2,14,15
 134.200195312 185 134.200195312 185 300.200195312 79 c 0,16,17
 322.200195312 64 322.200195312 64 322.200195312 37 c 0,18,19
 322.200195312 16 322.200195312 16 307.200195312 1.5 c 128,-1,20
 292.200195312 -13 292.200195312 -13 272.200195312 -13 c 0,21,22
 257.200195312 -13 257.200195312 -13 244.200195312 -5 c 0,23,24
 34.2001953125 136 34.2001953125 136 34.2001953125 371 c 2,0,-1
EndSplineSet
EndChar

StartChar: parenright
Encoding: 41 41 12
Width: 372
GlyphClass: 2
Flags: W
LayerCount: 2
Fore
SplineSet
31.2001953125 37 m 0,0,1
 31.2001953125 64 31.2001953125 64 53.2001953125 79 c 0,2,3
 220.200195312 188 220.200195312 188 220.200195312 377 c 0,4,5
 220.200195312 568 220.200195312 568 53.2001953125 682 c 0,6,7
 44.2001953125 685 44.2001953125 685 37.7001953125 698.5 c 128,-1,8
 31.2001953125 712 31.2001953125 712 31.2001953125 723 c 0,9,10
 31.2001953125 743 31.2001953125 743 46.2001953125 758 c 128,-1,11
 61.2001953125 773 61.2001953125 773 81.2001953125 773 c 0,12,13
 97.2001953125 773 97.2001953125 773 109.200195312 764 c 0,14,15
 320.200195312 619 320.200195312 619 320.200195312 377 c 0,16,17
 320.200195312 138 320.200195312 138 109.200195312 -5 c 0,18,19
 96.2001953125 -13 96.2001953125 -13 81.2001953125 -13 c 0,20,21
 61.2001953125 -13 61.2001953125 -13 46.2001953125 2 c 128,-1,22
 31.2001953125 17 31.2001953125 17 31.2001953125 37 c 0,0,1
EndSplineSet
EndChar

StartChar: asterisk
Encoding: 42 42 13
Width: 475
GlyphClass: 2
Flags: W
LayerCount: 2
Fore
SplineSet
30.599609375 446 m 0,0,1
 30.599609375 466 30.599609375 466 46.099609375 482 c 128,-1,2
 61.599609375 498 61.599609375 498 81.599609375 498 c 1,3,-1
 198.599609375 449 l 1,4,-1
 198.599609375 600 l 2,5,6
 198.599609375 621 198.599609375 621 207.599609375 635.5 c 128,-1,7
 216.599609375 650 216.599609375 650 228.599609375 650 c 128,-1,8
 240.599609375 650 240.599609375 650 249.599609375 635 c 128,-1,9
 258.599609375 620 258.599609375 620 258.599609375 600 c 2,10,-1
 258.599609375 449 l 1,11,-1
 360.599609375 493 l 2,12,13
 367.599609375 496 367.599609375 496 376.599609375 496 c 0,14,15
 396.599609375 496 396.599609375 496 411.599609375 481 c 128,-1,16
 426.599609375 466 426.599609375 466 426.599609375 446 c 0,17,18
 426.599609375 410 426.599609375 410 391.599609375 398 c 2,19,-1
 287.400390625 359 l 1,20,-1
 351.599609375 228 l 2,21,22
 357.599609375 216 357.599609375 216 357.599609375 203 c 0,23,24
 357.599609375 182 357.599609375 182 343.099609375 167.5 c 128,-1,25
 328.599609375 153 328.599609375 153 307.599609375 153 c 0,26,27
 293.400390625 153 293.400390625 153 285.599609375 166 c 1,28,-1
 235.200195312 310 l 1,29,-1
 171 166 l 2,30,31
 162.599609375 153 162.599609375 153 148.599609375 153 c 0,32,33
 127.599609375 153 127.599609375 153 113.099609375 168 c 128,-1,34
 98.599609375 183 98.599609375 183 98.599609375 203 c 0,35,36
 98.599609375 218 98.599609375 218 108.599609375 233 c 2,37,-1
 179.400390625 354 l 1,38,-1
 64.599609375 398 l 2,39,40
 30.599609375 412 30.599609375 412 30.599609375 446 c 0,0,1
EndSplineSet
EndChar

StartChar: plus
Encoding: 43 43 14
Width: 516
GlyphClass: 2
Flags: W
LayerCount: 2
Fore
SplineSet
31.2001953125 380 m 128,-1,1
 31.2001953125 401 31.2001953125 401 46.2001953125 415.5 c 128,-1,2
 61.2001953125 430 61.2001953125 430 81.2001953125 430 c 2,3,-1
 199.200195312 430 l 1,4,-1
 199.200195312 608 l 2,5,6
 199.200195312 629 199.200195312 629 213.700195312 643.5 c 128,-1,7
 228.200195312 658 228.200195312 658 249.200195312 658 c 128,-1,8
 270.200195312 658 270.200195312 658 284.700195312 643 c 128,-1,9
 299.200195312 628 299.200195312 628 299.200195312 608 c 2,10,-1
 299.200195312 430 l 1,11,-1
 417.200195312 430 l 2,12,13
 437.200195312 430 437.200195312 430 452.200195312 415 c 128,-1,14
 467.200195312 400 467.200195312 400 467.200195312 380 c 128,-1,15
 467.200195312 360 467.200195312 360 452.200195312 345 c 128,-1,16
 437.200195312 330 437.200195312 330 417.200195312 330 c 2,17,-1
 299.200195312 330 l 1,18,-1
 299.200195312 151 l 2,19,20
 299.200195312 131 299.200195312 131 284.200195312 116 c 128,-1,21
 269.200195312 101 269.200195312 101 249.200195312 101 c 128,-1,22
 229.200195312 101 229.200195312 101 214.200195312 115.5 c 128,-1,23
 199.200195312 130 199.200195312 130 199.200195312 151 c 2,24,-1
 199.200195312 330 l 1,25,-1
 81.2001953125 330 l 2,26,27
 61.2001953125 330 61.2001953125 330 46.2001953125 344.5 c 128,-1,0
 31.2001953125 359 31.2001953125 359 31.2001953125 380 c 128,-1,1
EndSplineSet
EndChar

StartChar: comma
Encoding: 44 44 15
Width: 400
GlyphClass: 2
Flags: W
LayerCount: 2
Fore
SplineSet
25.7998046875 -134 m 0,0,1
 25.7998046875 -121 25.7998046875 -121 31.7998046875 -109 c 2,2,-1
 184.200195312 193 l 1,3,4
 192 207 192 207 206.400390625 207 c 2,5,-1
 301 207 l 2,6,7
 321 207 321 207 336 192.5 c 128,-1,8
 351 178 351 178 351 157 c 2,9,-1
 351 126 l 2,10,11
 351 105 351 105 337 91 c 2,12,-1
 139.799804688 -170 l 2,13,14
 125.799804688 -184 125.799804688 -184 103.799804688 -184 c 2,15,-1
 75.7998046875 -184 l 2,16,17
 54.7998046875 -184 54.7998046875 -184 40.2998046875 -169.5 c 128,-1,18
 25.7998046875 -155 25.7998046875 -155 25.7998046875 -134 c 0,0,1
EndSplineSet
EndChar

StartChar: hyphen
Encoding: 45 45 16
Width: 492
GlyphClass: 2
Flags: W
LayerCount: 2
Fore
SplineSet
37.2001953125 366 m 2,0,-1
 37.2001953125 394 l 2,1,2
 37.2001953125 415 37.2001953125 415 51.7001953125 429.5 c 128,-1,3
 66.2001953125 444 66.2001953125 444 87.2001953125 444 c 2,4,-1
 383.200195312 444 l 2,5,6
 404.200195312 444 404.200195312 444 418.700195312 429 c 128,-1,7
 433.200195312 414 433.200195312 414 433.200195312 394 c 2,8,-1
 433.200195312 366 l 2,9,10
 433.200195312 346 433.200195312 346 418.700195312 331 c 128,-1,11
 404.200195312 316 404.200195312 316 383.200195312 316 c 2,12,-1
 87.2001953125 316 l 2,13,14
 66.2001953125 316 66.2001953125 316 51.7001953125 330.5 c 128,-1,15
 37.2001953125 345 37.2001953125 345 37.2001953125 366 c 2,0,-1
EndSplineSet
EndChar

StartChar: period
Encoding: 46 46 17
Width: 343
GlyphClass: 2
Flags: W
LayerCount: 2
Fore
SplineSet
38.400390625 40 m 2,0,-1
 38.400390625 137 l 2,1,2
 38.400390625 157 38.400390625 157 53.400390625 172 c 128,-1,3
 68.400390625 187 68.400390625 187 88.400390625 187 c 2,4,-1
 231.400390625 187 l 2,5,6
 251.400390625 187 251.400390625 187 266.400390625 172.5 c 128,-1,7
 281.400390625 158 281.400390625 158 281.400390625 137 c 2,8,-1
 281.400390625 40 l 2,9,10
 281.400390625 19 281.400390625 19 266.400390625 4.5 c 128,-1,11
 251.400390625 -10 251.400390625 -10 231.400390625 -10 c 2,12,-1
 88.400390625 -10 l 2,13,14
 68.400390625 -10 68.400390625 -10 53.400390625 5 c 128,-1,15
 38.400390625 20 38.400390625 20 38.400390625 40 c 2,0,-1
EndSplineSet
EndChar

StartChar: slash
Encoding: 47 47 18
Width: 400
GlyphClass: 2
Flags: W
LayerCount: 2
Fore
SplineSet
28.7998046875 37 m 0,0,1
 28.7998046875 48 28.7998046875 48 32.7998046875 56 c 2,2,-1
 256.799804688 742 l 2,3,4
 261.799804688 755 261.799804688 755 274.799804688 764 c 128,-1,5
 287.799804688 773 287.799804688 773 302.799804688 773 c 0,6,7
 322.799804688 773 322.799804688 773 337.799804688 758 c 128,-1,8
 352.799804688 743 352.799804688 743 352.799804688 723 c 0,9,10
 352.799804688 712 352.799804688 712 348.799804688 704 c 2,11,-1
 124.799804688 18 l 2,12,13
 119.799804688 5 119.799804688 5 106.799804688 -4 c 128,-1,14
 93.7998046875 -13 93.7998046875 -13 78.7998046875 -13 c 0,15,16
 58.7998046875 -13 58.7998046875 -13 43.7998046875 1.5 c 128,-1,17
 28.7998046875 16 28.7998046875 16 28.7998046875 37 c 0,0,1
EndSplineSet
EndChar

StartChar: zero
Encoding: 48 48 19
Width: 477
GlyphClass: 2
Flags: W
LayerCount: 2
Fore
SplineSet
37.7998046875 343 m 0,0,1
 37.7998046875 410 37.7998046875 410 40.2998046875 456 c 128,-1,2
 42.7998046875 502 42.7998046875 502 50.7998046875 556 c 128,-1,3
 58.7998046875 610 58.7998046875 610 75.7998046875 645.5 c 128,-1,4
 92.7998046875 681 92.7998046875 681 118 712 c 128,-1,5
 143.200195312 743 143.200195312 743 168.400390625 758 c 128,-1,6
 193.599609375 773 193.599609375 773 227.799804688 773 c 0,7,8
 261.400390625 773 261.400390625 773 286.599609375 758 c 128,-1,9
 311.799804688 743 311.799804688 743 336.799804688 712 c 128,-1,10
 361.799804688 681 361.799804688 681 378.799804688 645 c 128,-1,11
 395.799804688 609 395.799804688 609 404.299804688 555.5 c 128,-1,12
 412.799804688 502 412.799804688 502 415.299804688 455.5 c 128,-1,13
 417.799804688 409 417.799804688 409 417.799804688 343 c 0,14,15
 417.799804688 274 417.799804688 274 407.799804688 216.5 c 128,-1,16
 397.799804688 159 397.799804688 159 375.799804688 107 c 128,-1,17
 353.799804688 55 353.799804688 55 321.400390625 23.5 c 128,-1,18
 289 -8 289 -8 254.200195312 -13 c 0,19,20
 252.400390625 -13 252.400390625 -13 249.400390625 -13.5 c 128,-1,21
 246.400390625 -14 246.400390625 -14 245.200195312 -14 c 0,22,23
 242.200195312 -14 242.200195312 -14 236.5 -13.5 c 128,-1,24
 230.799804688 -13 230.799804688 -13 227.799804688 -13 c 0,25,26
 184.599609375 -13 184.599609375 -13 149.200195312 14.5 c 128,-1,27
 113.799804688 42 113.799804688 42 87.2998046875 93 c 128,-1,28
 60.7998046875 144 60.7998046875 144 49.2998046875 204.5 c 128,-1,29
 37.7998046875 265 37.7998046875 265 37.7998046875 343 c 0,0,1
137.799804688 343 m 0,30,31
 137.799804688 111 137.799804688 111 199 89 c 0,32,33
 205 87 205 87 227.799804688 87 c 2,34,-1
 241 87 l 2,35,36
 317.799804688 87 317.799804688 87 317.799804688 343 c 2,37,-1
 317.799804688 389 l 2,38,39
 317.799804688 447 317.799804688 447 316.299804688 484.5 c 128,-1,40
 314.799804688 522 314.799804688 522 309.099609375 567 c 128,-1,41
 303.400390625 612 303.400390625 612 290.200195312 638 c 128,-1,42
 277 664 277 664 256 671 c 0,43,44
 250.599609375 673 250.599609375 673 227.799804688 673 c 0,45,46
 191.200195312 673 191.200195312 673 172.900390625 648 c 128,-1,47
 154.599609375 623 154.599609375 623 146.799804688 569 c 0,48,49
 137.799804688 507 137.799804688 507 137.799804688 343 c 0,30,31
EndSplineSet
EndChar

StartChar: one
Encoding: 49 49 20
Width: 381
GlyphClass: 2
Flags: W
LayerCount: 2
Fore
SplineSet
166 765 m 1024,0,-1
184 745 m 1,1,-1
 184 40 l 2,2,3
 184 20 184 20 169 5 c 128,-1,4
 154 -10 154 -10 134 -10 c 128,-1,5
 114 -10 114 -10 99 4.5 c 128,-1,6
 84 19 84 19 84 40 c 2,7,-1
 85 747 l 2,8,9
 85 770 85 770 97 783 c 128,-1,10
 109 796 109 796 118 798 c 128,-1,11
 127 800 127 800 136 800 c 0,12,13
 158 800 158 800 170 786 c 128,-1,14
 182 772 182 772 183 758 c 2,15,-1
 184 745 l 1,1,-1
EndSplineSet
EndChar

StartChar: two
Encoding: 50 50 21
Width: 459
GlyphClass: 2
Flags: W
LayerCount: 2
Fore
SplineSet
32.400390625 670 m 0,0,1
 32.400390625 698 32.400390625 698 53.400390625 712 c 0,2,3
 145.400390625 773 145.400390625 773 220.200195312 773 c 0,4,5
 278.400390625 773 278.400390625 773 339.299804688 714 c 128,-1,6
 400.200195312 655 400.200195312 655 400.200195312 560 c 0,7,8
 400.200195312 522 400.200195312 522 386.700195312 487 c 128,-1,9
 373.200195312 452 373.200195312 452 356.700195312 429.5 c 128,-1,10
 340.200195312 407 340.200195312 407 309.900390625 379.5 c 128,-1,11
 279.599609375 352 279.599609375 352 269.099609375 340 c 128,-1,12
 258.599609375 328 258.599609375 328 236.400390625 305 c 0,13,14
 212.400390625 280 212.400390625 280 201.900390625 267 c 128,-1,15
 191.400390625 254 191.400390625 254 176.700195312 229 c 128,-1,16
 162 204 162 204 154.200195312 173.5 c 128,-1,17
 146.400390625 143 146.400390625 143 144.400390625 101 c 1,18,-1
 356.200195312 101 l 2,19,20
 377.200195312 101 377.200195312 101 391.700195312 86 c 128,-1,21
 406.200195312 71 406.200195312 71 406.200195312 51 c 128,-1,22
 406.200195312 31 406.200195312 31 391.200195312 16 c 128,-1,23
 376.200195312 1 376.200195312 1 356.200195312 1 c 2,24,-1
 93.400390625 1 l 2,25,26
 73.400390625 1 73.400390625 1 58.400390625 16 c 128,-1,27
 43.400390625 31 43.400390625 31 43.400390625 51 c 2,28,-1
 43.400390625 72 l 2,29,30
 43.400390625 151 43.400390625 151 53.400390625 185 c 0,31,32
 71.400390625 247 71.400390625 247 116.099609375 295 c 128,-1,33
 160.799804688 343 160.799804688 343 204 389 c 0,34,35
 262.799804688 452 262.799804688 452 278.400390625 487 c 0,36,37
 300.200195312 522 300.200195312 522 300.200195312 560 c 0,38,39
 300.200195312 611 300.200195312 611 276.099609375 642 c 128,-1,40
 252 673 252 673 220.200195312 673 c 0,41,42
 164.400390625 673 164.400390625 673 111.400390625 630 c 0,43,44
 99.400390625 621 99.400390625 621 82.400390625 621 c 0,45,46
 62.400390625 621 62.400390625 621 47.400390625 636 c 128,-1,47
 32.400390625 651 32.400390625 651 32.400390625 670 c 0,0,1
EndSplineSet
EndChar

StartChar: three
Encoding: 51 51 22
Width: 466
GlyphClass: 2
Flags: W
LayerCount: 2
Fore
SplineSet
32.400390625 69 m 0,0,1
 32.400390625 90 32.400390625 90 47.400390625 104.5 c 128,-1,2
 62.400390625 119 62.400390625 119 82.400390625 119 c 0,3,4
 89.400390625 119 89.400390625 119 101.400390625 115 c 0,5,6
 159.599609375 87 159.599609375 87 202.799804688 87 c 0,7,8
 249.599609375 87 249.599609375 87 281.099609375 123.5 c 128,-1,9
 312.599609375 160 312.599609375 160 315 231 c 1,10,-1
 315 240 l 2,11,12
 315 312 315 312 279.299804688 348 c 128,-1,13
 243.599609375 384 243.599609375 384 192.599609375 384 c 0,14,15
 180.599609375 384 180.599609375 384 171.599609375 399 c 128,-1,16
 162.599609375 414 162.599609375 414 162.599609375 434 c 128,-1,17
 162.599609375 454 162.599609375 454 169.200195312 465 c 2,18,-1
 279.599609375 658 l 1,19,-1
 85.400390625 658 l 2,20,21
 65.400390625 658 65.400390625 658 50.400390625 673 c 128,-1,22
 35.400390625 688 35.400390625 688 35.400390625 708 c 0,23,24
 35.400390625 729 35.400390625 729 49.900390625 743.5 c 128,-1,25
 64.400390625 758 64.400390625 758 85.400390625 758 c 2,26,-1
 340 758 l 2,27,28
 360 758 360 758 375 743 c 128,-1,29
 390 728 390 728 390 708 c 2,30,-1
 390 673 l 2,31,32
 390 655 390 655 375 640 c 2,33,-1
 255.599609375 472 l 1,34,35
 309.599609375 449 309.599609375 449 362.299804688 390 c 128,-1,36
 415 331 415 331 415 241 c 2,37,-1
 415 226 l 1,38,39
 410 116 410 116 342.099609375 51.5 c 128,-1,40
 274.200195312 -13 274.200195312 -13 202.799804688 -13 c 0,41,42
 185.400390625 -13 185.400390625 -13 166.900390625 -10 c 128,-1,43
 148.400390625 -7 148.400390625 -7 112.900390625 0.5 c 128,-1,44
 77.400390625 8 77.400390625 8 54.900390625 25.5 c 128,-1,45
 32.400390625 43 32.400390625 43 32.400390625 69 c 0,0,1
EndSplineSet
EndChar

StartChar: four
Encoding: 52 52 23
Width: 506
GlyphClass: 2
Flags: W
LayerCount: 2
Fore
SplineSet
30.599609375 214 m 2,0,-1
 30.599609375 257 l 2,1,2
 30.599609375 266 30.599609375 266 35.599609375 278 c 2,3,-1
 211.799804688 741 l 2,4,5
 214.799804688 753 214.799804688 753 222.599609375 761.5 c 128,-1,6
 230.400390625 770 230.400390625 770 238.799804688 770 c 0,7,8
 250.799804688 770 250.799804688 770 263.799804688 755 c 128,-1,9
 276.799804688 740 276.799804688 740 276.799804688 720 c 0,10,11
 276.799804688 709 276.799804688 709 271.799804688 699 c 2,12,-1
 138.599609375 264 l 1,13,-1
 256.799804688 264 l 1,14,-1
 256.799804688 380 l 2,15,16
 256.799804688 400 256.799804688 400 271.799804688 415 c 128,-1,17
 286.799804688 430 286.799804688 430 306.799804688 430 c 128,-1,18
 326.799804688 430 326.799804688 430 341.799804688 415 c 128,-1,19
 356.799804688 400 356.799804688 400 356.799804688 380 c 2,20,-1
 356.799804688 264 l 1,21,-1
 409.799804688 264 l 2,22,23
 430.799804688 264 430.799804688 264 445.299804688 249 c 128,-1,24
 459.799804688 234 459.799804688 234 459.799804688 214 c 128,-1,25
 459.799804688 194 459.799804688 194 444.799804688 179 c 128,-1,26
 429.799804688 164 429.799804688 164 409.799804688 164 c 2,27,-1
 356.799804688 164 l 1,28,-1
 356.799804688 40 l 2,29,30
 356.799804688 20 356.799804688 20 341.799804688 5 c 128,-1,31
 326.799804688 -10 326.799804688 -10 306.799804688 -10 c 128,-1,32
 286.799804688 -10 286.799804688 -10 271.799804688 5 c 128,-1,33
 256.799804688 20 256.799804688 20 256.799804688 40 c 2,34,-1
 256.799804688 164 l 1,35,-1
 80.599609375 164 l 2,36,37
 60.599609375 164 60.599609375 164 45.599609375 178.5 c 128,-1,38
 30.599609375 193 30.599609375 193 30.599609375 214 c 2,0,-1
EndSplineSet
EndChar

StartChar: five
Encoding: 53 53 24
Width: 431
GlyphClass: 2
Flags: W
LayerCount: 2
Fore
SplineSet
30.599609375 37 m 128,-1,1
 30.599609375 58 30.599609375 58 45.599609375 72.5 c 128,-1,2
 60.599609375 87 60.599609375 87 80.599609375 87 c 0,3,4
 232.200195312 87 232.200195312 87 268.799804688 195 c 0,5,6
 279 227 279 227 279 257 c 0,7,8
 279 327 279 327 259.200195312 363 c 0,9,10
 231.599609375 413 231.599609375 413 161.400390625 413 c 0,11,12
 135.599609375 413 135.599609375 413 104.599609375 410 c 2,13,-1
 100.599609375 410 l 2,14,15
 80.599609375 410 80.599609375 410 65.599609375 424 c 128,-1,16
 50.599609375 438 50.599609375 438 50.599609375 457 c 2,17,-1
 50.599609375 460 l 1,18,-1
 64.599609375 711 l 2,19,20
 66.599609375 731 66.599609375 731 80.599609375 744.5 c 128,-1,21
 94.599609375 758 94.599609375 758 114.599609375 758 c 2,22,-1
 323 758 l 2,23,24
 344 758 344 758 358.5 743 c 128,-1,25
 373 728 373 728 373 708 c 128,-1,26
 373 688 373 688 358 673 c 128,-1,27
 343 658 343 658 323 658 c 2,28,-1
 157.200195312 658 l 1,29,-1
 152.400390625 513 l 1,30,-1
 161.400390625 513 l 2,31,32
 243 513 243 513 311 448 c 128,-1,33
 379 383 379 383 379 257 c 0,34,35
 379 154 379 154 294 77 c 0,36,37
 227.400390625 -13 227.400390625 -13 80.599609375 -13 c 0,38,39
 60.599609375 -13 60.599609375 -13 45.599609375 1.5 c 128,-1,0
 30.599609375 16 30.599609375 16 30.599609375 37 c 128,-1,1
EndSplineSet
EndChar

StartChar: six
Encoding: 54 54 25
Width: 463
GlyphClass: 2
Flags: W
LayerCount: 2
Fore
SplineSet
32.400390625 229 m 2,0,-1
 32.400390625 241 l 2,1,2
 32.400390625 367 32.400390625 367 102.400390625 483 c 0,3,4
 130.400390625 530 130.400390625 530 155.400390625 582.5 c 128,-1,5
 180.400390625 635 180.400390625 635 197.200195312 666.5 c 128,-1,6
 214 698 214 698 245.200195312 755 c 0,7,8
 253.599609375 770 253.599609375 770 266.799804688 770 c 0,9,10
 278.799804688 770 278.799804688 770 287.799804688 755 c 128,-1,11
 296.799804688 740 296.799804688 740 296.799804688 720 c 0,12,13
 296.799804688 701 296.799804688 701 289 686 c 0,14,15
 218.200195312 558 218.200195312 558 185.200195312 481 c 1,16,17
 203.200195312 487 203.200195312 487 222.400390625 487 c 0,18,19
 292 487 292 487 352.200195312 417 c 128,-1,20
 412.400390625 347 412.400390625 347 412.400390625 229 c 0,21,22
 412.400390625 122 412.400390625 122 350.400390625 54.5 c 128,-1,23
 288.400390625 -13 288.400390625 -13 222.400390625 -13 c 128,-1,24
 156.400390625 -13 156.400390625 -13 95.900390625 53.5 c 128,-1,25
 35.400390625 120 35.400390625 120 32.400390625 229 c 2,0,-1
132.400390625 229 m 0,26,27
 132.400390625 163 132.400390625 163 157 125 c 128,-1,28
 181.599609375 87 181.599609375 87 222.400390625 87 c 0,29,30
 262.599609375 87 262.599609375 87 287.5 125.5 c 128,-1,31
 312.400390625 164 312.400390625 164 312.400390625 229 c 0,32,33
 312.400390625 305 312.400390625 305 289.599609375 346 c 128,-1,34
 266.799804688 387 266.799804688 387 222.400390625 387 c 0,35,36
 179.200195312 387 179.200195312 387 155.799804688 345 c 128,-1,37
 132.400390625 303 132.400390625 303 132.400390625 229 c 0,26,27
EndSplineSet
EndChar

StartChar: seven
Encoding: 55 55 26
Width: 511
GlyphClass: 2
Flags: W
LayerCount: 2
Fore
SplineSet
28.2001953125 708 m 0,0,1
 28.2001953125 729 28.2001953125 729 42.7001953125 743.5 c 128,-1,2
 57.2001953125 758 57.2001953125 758 78.2001953125 758 c 2,3,-1
 414.200195312 758 l 2,4,5
 435.200195312 758 435.200195312 758 449.700195312 743 c 128,-1,6
 464.200195312 728 464.200195312 728 464.200195312 708 c 0,7,8
 464.200195312 631 464.200195312 631 404.200195312 543 c 0,9,10
 386.200195312 516 386.200195312 516 346 451 c 128,-1,11
 305.799804688 386 305.799804688 386 292 347 c 0,12,13
 251.799804688 229 251.799804688 229 251.799804688 40 c 0,14,15
 251.799804688 20 251.799804688 20 236.799804688 5 c 128,-1,16
 221.799804688 -10 221.799804688 -10 201.799804688 -10 c 128,-1,17
 181.799804688 -10 181.799804688 -10 166.799804688 4.5 c 128,-1,18
 151.799804688 19 151.799804688 19 151.799804688 40 c 0,19,20
 151.799804688 256 151.799804688 256 231.799804688 396 c 0,21,22
 254.200195312 438 254.200195312 438 287.200195312 506.5 c 128,-1,23
 320.200195312 575 320.200195312 575 330.400390625 600 c 0,24,25
 346.200195312 638 346.200195312 638 354.200195312 658 c 1,26,-1
 78.2001953125 658 l 2,27,28
 58.2001953125 658 58.2001953125 658 43.2001953125 673 c 128,-1,29
 28.2001953125 688 28.2001953125 688 28.2001953125 708 c 0,0,1
EndSplineSet
EndChar

StartChar: eight
Encoding: 56 56 27
Width: 460
GlyphClass: 2
Flags: W
LayerCount: 2
Fore
SplineSet
31.2001953125 200 m 0,0,1
 31.2001953125 324 31.2001953125 324 157.799804688 423 c 1,2,3
 65.2001953125 490 65.2001953125 490 65.2001953125 600 c 0,4,5
 65.2001953125 676 65.2001953125 676 117.799804688 724.5 c 128,-1,6
 170.400390625 773 170.400390625 773 220.799804688 773 c 0,7,8
 270.599609375 773 270.599609375 773 323.700195312 724 c 128,-1,9
 376.799804688 675 376.799804688 675 376.799804688 600 c 0,10,11
 376.799804688 539 376.799804688 539 347.799804688 497.5 c 128,-1,12
 318.799804688 456 318.799804688 456 283.799804688 423 c 1,13,14
 410.799804688 324 410.799804688 324 410.799804688 200 c 0,15,16
 410.799804688 119 410.799804688 119 355.099609375 56.5 c 128,-1,17
 299.400390625 -6 299.400390625 -6 247.200195312 -13 c 1,18,-1
 220.799804688 -13 l 2,19,20
 155.400390625 -13 155.400390625 -13 93.2998046875 46.5 c 128,-1,21
 31.2001953125 106 31.2001953125 106 31.2001953125 200 c 0,0,1
130.200195312 200 m 0,22,23
 130.200195312 147 130.200195312 147 156 117 c 128,-1,24
 181.799804688 87 181.799804688 87 220.799804688 87 c 2,25,-1
 233.400390625 87 l 2,26,27
 265.200195312 87 265.200195312 87 288 120.5 c 128,-1,28
 310.799804688 154 310.799804688 154 310.799804688 200 c 0,29,30
 310.799804688 292 310.799804688 292 222 369 c 1,31,32
 130.200195312 291 130.200195312 291 130.200195312 200 c 0,22,23
151.200195312 600 m 0,33,34
 151.200195312 576 151.200195312 576 156.599609375 558 c 128,-1,35
 162 540 162 540 174.299804688 525 c 128,-1,36
 186.599609375 510 186.599609375 510 195 502 c 128,-1,37
 203.400390625 494 203.400390625 494 220.799804688 481 c 1,38,39
 238.200195312 494 238.200195312 494 246.900390625 501.5 c 128,-1,40
 255.599609375 509 255.599609375 509 267.599609375 524 c 128,-1,41
 279.599609375 539 279.599609375 539 285 557.5 c 128,-1,42
 290.400390625 576 290.400390625 576 290.400390625 600 c 0,43,44
 290.400390625 635 290.400390625 635 267.900390625 654 c 128,-1,45
 245.400390625 673 245.400390625 673 220.799804688 673 c 128,-1,46
 196.200195312 673 196.200195312 673 173.700195312 654 c 128,-1,47
 151.200195312 635 151.200195312 635 151.200195312 600 c 0,33,34
EndSplineSet
EndChar

StartChar: nine
Encoding: 57 57 28
Width: 479
GlyphClass: 2
Flags: W
LayerCount: 2
Fore
SplineSet
31.2001953125 514 m 0,0,1
 31.2001953125 620 31.2001953125 620 99 696.5 c 128,-1,2
 166.799804688 773 166.799804688 773 229.200195312 773 c 0,3,4
 293.400390625 773 293.400390625 773 360.299804688 701.5 c 128,-1,5
 427.200195312 630 427.200195312 630 427.200195312 514 c 0,6,7
 427.200195312 442 427.200195312 442 406.200195312 384.5 c 128,-1,8
 385.200195312 327 385.200195312 327 346.200195312 260 c 0,9,10
 279.599609375 115 279.599609375 115 204.599609375 3 c 0,11,12
 195.599609375 -10 195.599609375 -10 184.799804688 -10 c 0,13,14
 172.799804688 -10 172.799804688 -10 163.799804688 4.5 c 128,-1,15
 154.799804688 19 154.799804688 19 154.799804688 40 c 128,-1,16
 154.799804688 61 154.799804688 61 164.400390625 77 c 0,17,18
 223.799804688 167 223.799804688 167 265.799804688 277 c 1,19,20
 249.599609375 273 249.599609375 273 229.200195312 273 c 0,21,22
 162 273 162 273 96.599609375 342 c 128,-1,23
 31.2001953125 411 31.2001953125 411 31.2001953125 514 c 0,0,1
131.200195312 514 m 0,24,25
 131.200195312 451 131.200195312 451 159.5 412 c 128,-1,26
 187.799804688 373 187.799804688 373 229.200195312 373 c 0,27,28
 301.200195312 373 301.200195312 373 317.200195312 442 c 0,29,30
 327.200195312 475 327.200195312 475 327.200195312 514 c 0,31,32
 327.200195312 587 327.200195312 587 298.599609375 630 c 128,-1,33
 270 673 270 673 229.200195312 673 c 0,34,35
 191.400390625 673 191.400390625 673 161.299804688 626 c 128,-1,36
 131.200195312 579 131.200195312 579 131.200195312 514 c 0,24,25
EndSplineSet
EndChar

StartChar: colon
Encoding: 58 58 29
Width: 318
GlyphClass: 2
Flags: W
LayerCount: 2
Fore
SplineSet
42 40 m 2,0,-1
 42 120 l 2,1,2
 42 141 42 141 57 155.5 c 128,-1,3
 72 170 72 170 92 170 c 2,4,-1
 200 170 l 2,5,6
 220 170 220 170 235 155 c 128,-1,7
 250 140 250 140 250 120 c 2,8,-1
 250 40 l 2,9,10
 250 20 250 20 235 5 c 128,-1,11
 220 -10 220 -10 200 -10 c 2,12,-1
 92 -10 l 2,13,14
 72 -10 72 -10 57 4.5 c 128,-1,15
 42 19 42 19 42 40 c 2,0,-1
42 403 m 2,16,-1
 42 483 l 2,17,18
 42 504 42 504 57 518.5 c 128,-1,19
 72 533 72 533 92 533 c 2,20,-1
 200 533 l 2,21,22
 220 533 220 533 235 518 c 128,-1,23
 250 503 250 503 250 483 c 2,24,-1
 250 403 l 2,25,26
 250 383 250 383 235.5 368 c 128,-1,27
 221 353 221 353 200 353 c 2,28,-1
 92 353 l 2,29,30
 71 353 71 353 56.5 367.5 c 128,-1,31
 42 382 42 382 42 403 c 2,16,-1
EndSplineSet
EndChar

StartChar: semicolon
Encoding: 59 59 30
Width: 407
GlyphClass: 2
Flags: W
LayerCount: 2
Fore
SplineSet
23.400390625 -129 m 0,0,1
 23.400390625 -116 23.400390625 -116 27.400390625 -108 c 2,2,-1
 150.200195312 145 l 2,3,4
 161.200195312 173 161.200195312 173 195.200195312 173 c 2,5,-1
 306.200195312 173 l 2,6,7
 326.200195312 173 326.200195312 173 341.200195312 158 c 128,-1,8
 356.200195312 143 356.200195312 143 356.200195312 123 c 0,9,10
 356.200195312 121 356.200195312 121 356.700195312 117 c 128,-1,11
 357.200195312 113 357.200195312 113 357.200195312 111 c 0,12,13
 357.200195312 106 357.200195312 106 354.200195312 103 c 2,14,-1
 150.200195312 -164 l 2,15,16
 136.400390625 -179 136.400390625 -179 116.400390625 -179 c 2,17,-1
 73.400390625 -179 l 2,18,19
 53.400390625 -179 53.400390625 -179 38.400390625 -164.5 c 128,-1,20
 23.400390625 -150 23.400390625 -150 23.400390625 -129 c 0,0,1
145.200195312 403 m 2,21,-1
 145.200195312 483 l 2,22,23
 145.200195312 504 145.200195312 504 160.200195312 518.5 c 128,-1,24
 175.200195312 533 175.200195312 533 195.200195312 533 c 2,25,-1
 303.200195312 533 l 2,26,27
 323.200195312 533 323.200195312 533 338.200195312 518 c 128,-1,28
 353.200195312 503 353.200195312 503 353.200195312 483 c 2,29,-1
 353.200195312 403 l 2,30,31
 353.200195312 383 353.200195312 383 338.700195312 368 c 128,-1,32
 324.200195312 353 324.200195312 353 303.200195312 353 c 2,33,-1
 195.200195312 353 l 2,34,35
 174.200195312 353 174.200195312 353 159.700195312 367.5 c 128,-1,36
 145.200195312 382 145.200195312 382 145.200195312 403 c 2,21,-1
EndSplineSet
EndChar

StartChar: less
Encoding: 60 60 31
Width: 475
GlyphClass: 2
Flags: W
LayerCount: 2
Fore
SplineSet
43 344 m 2,0,1
 30 357 30 357 30 380 c 128,-1,2
 30 403 30 403 43 416 c 2,3,-1
 348 687 l 2,4,5
 360 696 360 696 376 696 c 0,6,7
 396 696 396 696 411 681 c 128,-1,8
 426 666 426 666 426 646 c 0,9,10
 426 620 426 620 411 610 c 2,11,-1
 162 380 l 1,12,-1
 411 150 l 1,13,14
 426 135 426 135 426 114 c 0,15,16
 426 94 426 94 411 79 c 128,-1,17
 396 64 396 64 376 64 c 0,18,19
 360 64 360 64 348 73 c 2,20,-1
 43 344 l 2,0,1
EndSplineSet
EndChar

StartChar: equal
Encoding: 61 61 32
Width: 493
GlyphClass: 2
Flags: W
LayerCount: 2
Fore
SplineSet
37.7998046875 266 m 128,-1,1
 37.7998046875 287 37.7998046875 287 52.7998046875 301.5 c 128,-1,2
 67.7998046875 316 67.7998046875 316 87.7998046875 316 c 2,3,-1
 383.799804688 316 l 2,4,5
 403.799804688 316 403.799804688 316 418.799804688 301 c 128,-1,6
 433.799804688 286 433.799804688 286 433.799804688 266 c 128,-1,7
 433.799804688 246 433.799804688 246 419.299804688 231 c 128,-1,8
 404.799804688 216 404.799804688 216 383.799804688 216 c 2,9,-1
 87.7998046875 216 l 2,10,11
 66.7998046875 216 66.7998046875 216 52.2998046875 230.5 c 128,-1,0
 37.7998046875 245 37.7998046875 245 37.7998046875 266 c 128,-1,1
37.7998046875 494 m 128,-1,13
 37.7998046875 515 37.7998046875 515 52.2998046875 529.5 c 128,-1,14
 66.7998046875 544 66.7998046875 544 87.7998046875 544 c 2,15,-1
 383.799804688 544 l 2,16,17
 404.799804688 544 404.799804688 544 419.299804688 529 c 128,-1,18
 433.799804688 514 433.799804688 514 433.799804688 494 c 128,-1,19
 433.799804688 474 433.799804688 474 418.799804688 459 c 128,-1,20
 403.799804688 444 403.799804688 444 383.799804688 444 c 2,21,-1
 87.7998046875 444 l 2,22,23
 67.7998046875 444 67.7998046875 444 52.7998046875 458.5 c 128,-1,12
 37.7998046875 473 37.7998046875 473 37.7998046875 494 c 128,-1,13
EndSplineSet
EndChar

StartChar: greater
Encoding: 62 62 33
Width: 478
GlyphClass: 2
Flags: W
LayerCount: 2
Fore
SplineSet
32.400390625 114 m 0,0,1
 32.400390625 134 32.400390625 134 46.400390625 150 c 1,2,-1
 295.799804688 380 l 1,3,-1
 46.400390625 610 l 1,4,5
 32.400390625 626 32.400390625 626 32.400390625 646 c 0,6,7
 32.400390625 667 32.400390625 667 47.400390625 681.5 c 128,-1,8
 62.400390625 696 62.400390625 696 82.400390625 696 c 0,9,10
 96.400390625 696 96.400390625 696 110.400390625 687 c 2,11,-1
 414.400390625 416 l 2,12,13
 428.400390625 403 428.400390625 403 428.400390625 380 c 0,14,15
 428.400390625 353 428.400390625 353 414.400390625 344 c 2,16,-1
 110.400390625 73 l 2,17,18
 96.400390625 64 96.400390625 64 82.400390625 64 c 0,19,20
 62.400390625 64 62.400390625 64 47.400390625 78.5 c 128,-1,21
 32.400390625 93 32.400390625 93 32.400390625 114 c 0,0,1
EndSplineSet
EndChar

StartChar: question
Encoding: 63 63 34
Width: 462
GlyphClass: 2
Flags: W
LayerCount: 2
Fore
SplineSet
29.400390625 520 m 2,0,-1
 29.400390625 530 l 2,1,2
 29.400390625 616 29.400390625 616 92.099609375 665 c 128,-1,3
 154.799804688 714 154.799804688 714 223.599609375 714 c 0,4,5
 296.400390625 714 296.400390625 714 355.400390625 668.5 c 128,-1,6
 414.400390625 623 414.400390625 623 414.400390625 539 c 2,7,-1
 414.400390625 537 l 2,8,9
 413.400390625 492 413.400390625 492 390.400390625 445 c 128,-1,10
 367.400390625 398 367.400390625 398 337.400390625 366 c 0,11,12
 330.400390625 358 330.400390625 358 310.599609375 340 c 128,-1,13
 290.799804688 322 290.799804688 322 285.400390625 310 c 0,14,15
 280.599609375 300 280.599609375 300 280.599609375 291 c 0,16,17
 280.599609375 271 280.599609375 271 265.599609375 256 c 128,-1,18
 250.599609375 241 250.599609375 241 230.599609375 241 c 128,-1,19
 210.599609375 241 210.599609375 241 195.599609375 255.5 c 128,-1,20
 180.599609375 270 180.599609375 270 180.599609375 291 c 0,21,22
 180.599609375 317 180.599609375 317 191.099609375 339.5 c 128,-1,23
 201.599609375 362 201.599609375 362 213.099609375 374.5 c 128,-1,24
 224.599609375 387 224.599609375 387 245.099609375 406 c 128,-1,25
 265.599609375 425 265.599609375 425 273.599609375 434 c 0,26,27
 287.200195312 452 287.200195312 452 300.799804688 483 c 128,-1,28
 314.400390625 514 314.400390625 514 314.400390625 537 c 0,29,30
 314.400390625 595 314.400390625 595 244.599609375 613 c 0,31,32
 239.599609375 613 239.599609375 613 230.599609375 614.5 c 128,-1,33
 221.599609375 616 221.599609375 616 217.599609375 616 c 2,34,-1
 214.599609375 616 l 1,35,36
 129.400390625 604 129.400390625 604 129.400390625 531 c 2,37,-1
 129.400390625 526 l 1,38,-1
 129.400390625 523 l 2,39,40
 129.400390625 502 129.400390625 502 114.900390625 487.5 c 128,-1,41
 100.400390625 473 100.400390625 473 79.400390625 473 c 0,42,43
 59.400390625 473 59.400390625 473 44.900390625 487 c 128,-1,44
 30.400390625 501 30.400390625 501 29.400390625 520 c 2,0,-1
166.799804688 -17 m 2,45,-1
 166.799804688 29 l 2,46,47
 166.799804688 49 166.799804688 49 177.200195312 64 c 128,-1,48
 187.599609375 79 187.599609375 79 207.599609375 79 c 2,49,-1
 253.599609375 79 l 2,50,51
 273.599609375 79 273.599609375 79 284 64 c 128,-1,52
 294.400390625 49 294.400390625 49 294.400390625 29 c 2,53,-1
 294.400390625 -17 l 2,54,55
 294.400390625 -37 294.400390625 -37 284 -52 c 128,-1,56
 273.599609375 -67 273.599609375 -67 253.599609375 -67 c 2,57,-1
 207.599609375 -67 l 2,58,59
 187.599609375 -67 187.599609375 -67 177.200195312 -52 c 128,-1,60
 166.799804688 -37 166.799804688 -37 166.799804688 -17 c 2,45,-1
EndSplineSet
EndChar

StartChar: at
Encoding: 64 64 35
Width: 515
GlyphClass: 2
Flags: W
LayerCount: 2
Fore
SplineSet
36 194 m 0,0,1
 36 420 36 420 160.599609375 421 c 0,2,3
 190 421 190 421 216.799804688 394 c 1,4,5
 231.799804688 419 231.799804688 419 259.799804688 419 c 0,6,7
 279.799804688 419 279.799804688 419 294.799804688 404 c 128,-1,8
 309.799804688 389 309.799804688 389 309.799804688 369 c 2,9,-1
 309.799804688 126 l 2,10,11
 311 81 311 81 324.799804688 81 c 2,12,-1
 325.400390625 81 l 2,13,14
 335.599609375 82 335.599609375 82 342.200195312 92 c 128,-1,15
 348.799804688 102 348.799804688 102 351.5 121.5 c 128,-1,16
 354.200195312 141 354.200195312 141 355.099609375 158.5 c 128,-1,17
 356 176 356 176 356 203 c 2,18,-1
 356 229 l 1,19,-1
 356 343 l 2,20,21
 356 404 356 404 353.299804688 445 c 128,-1,22
 350.599609375 486 350.599609375 486 341.900390625 529.5 c 128,-1,23
 333.200195312 573 333.200195312 573 308.5 595.5 c 128,-1,24
 283.799804688 618 283.799804688 618 233.799804688 618 c 2,25,-1
 224.799804688 618 l 1,26,27
 143.200195312 613 143.200195312 613 137.200195312 535 c 0,28,29
 136 518 136 518 122 505.5 c 128,-1,30
 108 493 108 493 89 493 c 0,31,32
 68 493 68 493 53.5 507.5 c 128,-1,33
 39 522 39 522 39 543 c 2,34,-1
 39 550 l 1,35,36
 51 628 51 628 106.099609375 672 c 128,-1,37
 161.200195312 716 161.200195312 716 224.799804688 718 c 2,38,-1
 233.799804688 718 l 2,39,40
 292.799804688 718 292.799804688 718 323.200195312 698 c 128,-1,41
 353.599609375 678 353.599609375 678 380.799804688 645 c 128,-1,42
 408 612 408 612 425.5 562.5 c 128,-1,43
 443 513 443 513 449.5 460.5 c 128,-1,44
 456 408 456 408 456 343 c 2,45,-1
 456 229 l 2,46,47
 456 144 456 144 446 98 c 128,-1,48
 436 52 436 52 400 19 c 0,49,50
 360 -18 360 -18 324.200195312 -18 c 0,51,52
 277.799804688 -18 277.799804688 -18 246.799804688 19 c 1,53,54
 205 -19 205 -19 167.799804688 -19 c 2,55,-1
 163 -19 l 1,56,57
 36 -14 36 -14 36 194 c 0,0,1
136 188 m 2,58,59
 136 164 136 164 136.599609375 150 c 128,-1,60
 137.200195312 136 137.200195312 136 139.900390625 118 c 128,-1,61
 142.599609375 100 142.599609375 100 148.900390625 91 c 128,-1,62
 155.200195312 82 155.200195312 82 165.400390625 81 c 2,63,-1
 169 81 l 2,64,65
 184.599609375 81 184.599609375 81 193.599609375 95.5 c 128,-1,66
 202.599609375 110 202.599609375 110 209.799804688 136 c 1,67,-1
 209.799804688 263 l 1,68,69
 202.599609375 286 202.599609375 286 189.400390625 303.5 c 128,-1,70
 176.200195312 321 176.200195312 321 160.599609375 321 c 0,71,72
 136 321 136 321 136 211 c 2,73,-1
 136 194 l 1,74,-1
 136 188 l 2,58,59
EndSplineSet
EndChar

StartChar: A
Encoding: 65 65 36
Width: 473
GlyphClass: 2
Flags: W
LayerCount: 2
Fore
SplineSet
31.7998046875 40 m 2,0,-1
 31.7998046875 53 l 1,1,-1
 176.400390625 670 l 2,2,3
 178.799804688 685 178.799804688 685 187.200195312 696 c 128,-1,4
 195.599609375 707 195.599609375 707 205.799804688 707 c 2,5,-1
 246.599609375 707 l 2,6,7
 256.200195312 707 256.200195312 707 264 698 c 128,-1,8
 271.799804688 689 271.799804688 689 274.200195312 676 c 2,9,-1
 421.200195312 40 l 1,10,11
 421.200195312 20 421.200195312 20 405.700195312 5 c 128,-1,12
 390.200195312 -10 390.200195312 -10 370.200195312 -10 c 0,13,14
 353.200195312 -10 353.200195312 -10 339.700195312 1 c 128,-1,15
 326.200195312 12 326.200195312 12 322.200195312 27 c 2,16,-1
 286.799804688 199 l 1,17,-1
 165 199 l 1,18,-1
 129.799804688 27 l 2,19,20
 125.799804688 12 125.799804688 12 112.299804688 1 c 128,-1,21
 98.7998046875 -10 98.7998046875 -10 81.7998046875 -10 c 0,22,23
 61.7998046875 -10 61.7998046875 -10 46.7998046875 4.5 c 128,-1,24
 31.7998046875 19 31.7998046875 19 31.7998046875 40 c 2,0,-1
180.599609375 299 m 1,25,-1
 271.799804688 299 l 1,26,-1
 226.200195312 591 l 1,27,-1
 180.599609375 299 l 1,25,-1
EndSplineSet
EndChar

StartChar: B
Encoding: 66 66 37
Width: 488
GlyphClass: 2
Flags: W
LayerCount: 2
Fore
SplineSet
43.2001953125 51 m 2,0,-1
 43.2001953125 651 l 2,1,2
 43.2001953125 672 43.2001953125 672 57.7001953125 686.5 c 128,-1,3
 72.2001953125 701 72.2001953125 701 93.2001953125 701 c 2,4,-1
 215.799804688 701 l 2,5,6
 284.799804688 701 284.799804688 701 317.799804688 672 c 0,7,8
 362.799804688 646 362.799804688 646 388.299804688 600 c 128,-1,9
 413.799804688 554 413.799804688 554 413.799804688 502 c 0,10,11
 413.799804688 419 413.799804688 419 353.799804688 366 c 1,12,13
 423.200195312 307 423.200195312 307 423.200195312 211 c 2,14,-1
 423.200195312 209 l 2,15,16
 423.200195312 111 423.200195312 111 346.200195312 51 c 0,17,18
 298.599609375 1 298.599609375 1 215.799804688 1 c 2,19,-1
 93.2001953125 1 l 2,20,21
 73.2001953125 1 73.2001953125 1 58.2001953125 15.5 c 128,-1,22
 43.2001953125 30 43.2001953125 30 43.2001953125 51 c 2,0,-1
143.200195312 101 m 1,23,-1
 215.799804688 101 l 2,24,25
 323.200195312 101 323.200195312 101 323.200195312 210 c 2,26,-1
 323.200195312 211 l 2,27,28
 322.599609375 265 322.599609375 265 297.700195312 290.5 c 128,-1,29
 272.799804688 316 272.799804688 316 233.200195312 316 c 2,30,-1
 143.200195312 316 l 1,31,-1
 143.200195312 101 l 1,23,-1
143.200195312 416 m 1,32,-1
 233.200195312 416 l 2,33,34
 314.799804688 416 314.799804688 416 314.799804688 502 c 2,35,-1
 314.799804688 511 l 1,36,37
 311.799804688 565 311.799804688 565 286.900390625 583 c 128,-1,38
 262 601 262 601 215.799804688 601 c 2,39,-1
 143.200195312 601 l 1,40,-1
 143.200195312 416 l 1,32,-1
EndSplineSet
EndChar

StartChar: C
Encoding: 67 67 38
Width: 414
GlyphClass: 2
Flags: W
LayerCount: 2
Fore
SplineSet
34.2001953125 342 m 2,0,-1
 34.2001953125 353 l 2,1,2
 34.2001953125 411 34.2001953125 411 40.7001953125 461 c 128,-1,3
 47.2001953125 511 47.2001953125 511 63.7001953125 558.5 c 128,-1,4
 80.2001953125 606 80.2001953125 606 105.700195312 639.5 c 128,-1,5
 131.200195312 673 131.200195312 673 155.799804688 694 c 128,-1,6
 180.400390625 715 180.400390625 715 211.599609375 716 c 2,7,-1
 214.599609375 716 l 2,8,9
 253 716 253 716 298.200195312 680 c 128,-1,10
 343.400390625 644 343.400390625 644 356.400390625 587 c 1,11,-1
 356.400390625 577 l 2,12,13
 356.400390625 557 356.400390625 557 341.900390625 542 c 128,-1,14
 327.400390625 527 327.400390625 527 307.400390625 527 c 0,15,16
 286.400390625 527 286.400390625 527 275.400390625 540 c 128,-1,17
 264.400390625 553 264.400390625 553 258.099609375 572.5 c 128,-1,18
 251.799804688 592 251.799804688 592 245.799804688 600 c 0,19,20
 232.599609375 616 232.599609375 616 215.799804688 616 c 2,21,-1
 212.799804688 616 l 1,22,23
 134.200195312 609 134.200195312 609 134.200195312 361 c 2,24,-1
 134.200195312 344 l 2,25,26
 134.799804688 304 134.799804688 304 136.299804688 273 c 128,-1,27
 137.799804688 242 137.799804688 242 142.900390625 205 c 128,-1,28
 148 168 148 168 156.400390625 144 c 128,-1,29
 164.799804688 120 164.799804688 120 179.799804688 103.5 c 128,-1,30
 194.799804688 87 194.799804688 87 215.799804688 87 c 0,31,32
 232.599609375 87 232.599609375 87 244.299804688 99.5 c 128,-1,33
 256 112 256 112 258.400390625 135 c 0,34,35
 261.400390625 152 261.400390625 152 275.400390625 164 c 128,-1,36
 289.400390625 176 289.400390625 176 307.400390625 176 c 0,37,38
 327.400390625 176 327.400390625 176 341.900390625 161 c 128,-1,39
 356.400390625 146 356.400390625 146 356.400390625 126 c 2,40,-1
 356.400390625 117 l 1,41,42
 346.400390625 60 346.400390625 60 300.900390625 23.5 c 128,-1,43
 255.400390625 -13 255.400390625 -13 215.799804688 -13 c 0,44,45
 175.599609375 -13 175.599609375 -13 141.900390625 16.5 c 128,-1,46
 108.200195312 46 108.200195312 46 83.2001953125 98.5 c 128,-1,47
 58.2001953125 151 58.2001953125 151 46.7001953125 210 c 128,-1,48
 35.2001953125 269 35.2001953125 269 34.2001953125 342 c 2,0,-1
EndSplineSet
EndChar

StartChar: D
Encoding: 68 68 39
Width: 441
GlyphClass: 2
Flags: W
LayerCount: 2
Fore
SplineSet
43.2001953125 51 m 2,0,-1
 43.2001953125 651 l 2,1,2
 43.2001953125 671 43.2001953125 671 57.7001953125 686 c 128,-1,3
 72.2001953125 701 72.2001953125 701 93.2001953125 701 c 0,4,5
 176.200195312 701 176.200195312 701 219.400390625 661 c 128,-1,6
 262.599609375 621 262.599609375 621 307 549 c 0,7,8
 377 454 377 454 377 331 c 0,9,10
 377 203 377 203 313.200195312 116 c 128,-1,11
 249.400390625 29 249.400390625 29 180.400390625 8 c 0,12,13
 158.200195312 1 158.200195312 1 93.2001953125 1 c 0,14,15
 73.2001953125 1 73.2001953125 1 58.2001953125 16 c 128,-1,16
 43.2001953125 31 43.2001953125 31 43.2001953125 51 c 2,0,-1
143.200195312 103 m 1,17,18
 205.599609375 112 205.599609375 112 241.299804688 169.5 c 128,-1,19
 277 227 277 227 277 331 c 0,20,21
 277 473 277 473 205.599609375 559 c 0,22,23
 179.200195312 591 179.200195312 591 143.200195312 598 c 1,24,-1
 143.200195312 103 l 1,17,18
EndSplineSet
EndChar

StartChar: E
Encoding: 69 69 40
Width: 459
GlyphClass: 2
Flags: W
LayerCount: 2
Fore
SplineSet
43.2001953125 51 m 2,0,-1
 43.2001953125 651 l 2,1,2
 43.2001953125 672 43.2001953125 672 57.7001953125 686.5 c 128,-1,3
 72.2001953125 701 72.2001953125 701 93.2001953125 701 c 2,4,-1
 346.400390625 701 l 2,5,6
 367.400390625 701 367.400390625 701 381.900390625 686.5 c 128,-1,7
 396.400390625 672 396.400390625 672 396.400390625 651 c 128,-1,8
 396.400390625 630 396.400390625 630 381.400390625 615.5 c 128,-1,9
 366.400390625 601 366.400390625 601 346.400390625 601 c 2,10,-1
 143.200195312 601 l 1,11,-1
 143.200195312 416 l 1,12,-1
 298.400390625 416 l 2,13,14
 318.400390625 416 318.400390625 416 333.400390625 401 c 128,-1,15
 348.400390625 386 348.400390625 386 348.400390625 366 c 128,-1,16
 348.400390625 346 348.400390625 346 333.900390625 331 c 128,-1,17
 319.400390625 316 319.400390625 316 298.400390625 316 c 2,18,-1
 143.200195312 316 l 1,19,-1
 143.200195312 101 l 1,20,-1
 346.400390625 101 l 2,21,22
 367.400390625 101 367.400390625 101 381.900390625 86.5 c 128,-1,23
 396.400390625 72 396.400390625 72 396.400390625 51 c 128,-1,24
 396.400390625 30 396.400390625 30 381.400390625 15.5 c 128,-1,25
 366.400390625 1 366.400390625 1 346.400390625 1 c 2,26,-1
 93.2001953125 1 l 2,27,28
 73.2001953125 1 73.2001953125 1 58.2001953125 15.5 c 128,-1,29
 43.2001953125 30 43.2001953125 30 43.2001953125 51 c 2,0,-1
EndSplineSet
EndChar

StartChar: F
Encoding: 70 70 41
Width: 413
GlyphClass: 2
Flags: W
LayerCount: 2
Fore
SplineSet
43.2001953125 40 m 2,0,-1
 43.2001953125 651 l 2,1,2
 43.2001953125 671 43.2001953125 671 57.7001953125 686 c 128,-1,3
 72.2001953125 701 72.2001953125 701 93.2001953125 701 c 2,4,-1
 305.599609375 701 l 2,5,6
 326.599609375 701 326.599609375 701 341.099609375 686.5 c 128,-1,7
 355.599609375 672 355.599609375 672 355.599609375 651 c 128,-1,8
 355.599609375 630 355.599609375 630 340.599609375 615.5 c 128,-1,9
 325.599609375 601 325.599609375 601 305.599609375 601 c 2,10,-1
 143.200195312 601 l 1,11,-1
 143.200195312 416 l 1,12,-1
 260.599609375 416 l 2,13,14
 280.599609375 416 280.599609375 416 295.599609375 401 c 128,-1,15
 310.599609375 386 310.599609375 386 310.599609375 366 c 128,-1,16
 310.599609375 346 310.599609375 346 295.599609375 331 c 128,-1,17
 280.599609375 316 280.599609375 316 260.599609375 316 c 2,18,-1
 143.200195312 316 l 1,19,-1
 143.200195312 40 l 2,20,21
 143.200195312 20 143.200195312 20 128.200195312 5 c 128,-1,22
 113.200195312 -10 113.200195312 -10 93.2001953125 -10 c 128,-1,23
 73.2001953125 -10 73.2001953125 -10 58.2001953125 5 c 128,-1,24
 43.2001953125 20 43.2001953125 20 43.2001953125 40 c 2,0,-1
EndSplineSet
EndChar

StartChar: G
Encoding: 71 71 42
Width: 462
GlyphClass: 2
Flags: W
LayerCount: 2
Fore
SplineSet
33.599609375 353 m 0,0,1
 33.599609375 442 33.599609375 442 57.099609375 519.5 c 128,-1,2
 80.599609375 597 80.599609375 597 124.599609375 641 c 0,3,4
 173 715 173 715 233 715 c 0,5,6
 245 715 245 715 257.599609375 712 c 0,7,8
 321 698 321 698 378 629 c 0,9,10
 390 616 390 616 390 597 c 0,11,12
 390 577 390 577 375 562 c 128,-1,13
 360 547 360 547 340 547 c 0,14,15
 318 547 318 547 302 565 c 0,16,17
 275.599609375 613 275.599609375 613 234.799804688 613 c 0,18,19
 197.599609375 613 197.599609375 613 171.799804688 570 c 0,20,21
 134.599609375 507 134.599609375 507 134.599609375 362 c 0,22,23
 134.599609375 266 134.599609375 266 151.400390625 188 c 0,24,25
 173 87 173 87 240.799804688 87 c 0,26,27
 268.400390625 87 268.400390625 87 299 105 c 1,28,-1
 299 279 l 1,29,-1
 231.200195312 279 l 2,30,31
 218.599609375 279 218.599609375 279 209.900390625 293.5 c 128,-1,32
 201.200195312 308 201.200195312 308 201.200195312 329 c 128,-1,33
 201.200195312 350 201.200195312 350 210.200195312 364.5 c 128,-1,34
 219.200195312 379 219.200195312 379 231.200195312 379 c 2,35,-1
 349 379 l 2,36,37
 369 379 369 379 384 364 c 128,-1,38
 399 349 399 349 399 329 c 2,39,-1
 399 74 l 2,40,41
 399 27 399 27 296 -2 c 0,42,43
 268.400390625 -15 268.400390625 -15 239.599609375 -15 c 0,44,45
 170 -15 170 -15 124.599609375 57 c 0,46,47
 80.599609375 102 80.599609375 102 57.099609375 182 c 128,-1,48
 33.599609375 262 33.599609375 262 33.599609375 353 c 0,0,1
EndSplineSet
EndChar

StartChar: H
Encoding: 72 72 43
Width: 463
GlyphClass: 2
Flags: W
LayerCount: 2
Fore
SplineSet
43.2001953125 40 m 2,0,-1
 43.2001953125 663 l 2,1,2
 43.2001953125 683 43.2001953125 683 58.2001953125 698 c 128,-1,3
 73.2001953125 713 73.2001953125 713 93.2001953125 713 c 128,-1,4
 113.200195312 713 113.200195312 713 128.200195312 698.5 c 128,-1,5
 143.200195312 684 143.200195312 684 143.200195312 663 c 2,6,-1
 143.200195312 410 l 1,7,-1
 289 410 l 1,8,-1
 289 663 l 2,9,10
 289 683 289 683 304 698 c 128,-1,11
 319 713 319 713 339 713 c 128,-1,12
 359 713 359 713 374 698.5 c 128,-1,13
 389 684 389 684 389 663 c 2,14,-1
 389 40 l 2,15,16
 389 19 389 19 374 4.5 c 128,-1,17
 359 -10 359 -10 339 -10 c 128,-1,18
 319 -10 319 -10 304 5 c 128,-1,19
 289 20 289 20 289 40 c 2,20,-1
 289 310 l 1,21,-1
 143.200195312 310 l 1,22,-1
 143.200195312 40 l 2,23,24
 143.200195312 19 143.200195312 19 128.200195312 4.5 c 128,-1,25
 113.200195312 -10 113.200195312 -10 93.2001953125 -10 c 128,-1,26
 73.2001953125 -10 73.2001953125 -10 58.2001953125 5 c 128,-1,27
 43.2001953125 20 43.2001953125 20 43.2001953125 40 c 2,0,-1
EndSplineSet
EndChar

StartChar: I
Encoding: 73 73 44
Width: 317
GlyphClass: 2
Flags: W
LayerCount: 2
Fore
SplineSet
130.799804688 701 m 0,0,1
 120.799804688 701 120.799804688 701 114.799804688 699.5 c 128,-1,2
 108.799804688 698 108.799804688 698 99.2998046875 693 c 128,-1,3
 89.7998046875 688 89.7998046875 688 84.7998046875 674.5 c 128,-1,4
 79.7998046875 661 79.7998046875 661 79.7998046875 640 c 2,5,-1
 79.7998046875 57 l 2,6,7
 79.7998046875 37 79.7998046875 37 84.2998046875 24.5 c 128,-1,8
 88.7998046875 12 88.7998046875 12 97.7998046875 7 c 128,-1,9
 106.799804688 2 106.799804688 2 112.799804688 1 c 128,-1,10
 118.799804688 0 118.799804688 0 128.799804688 0 c 0,11,12
 139.799804688 0 139.799804688 0 145.799804688 1 c 128,-1,13
 151.799804688 2 151.799804688 2 160.799804688 6.5 c 128,-1,14
 169.799804688 11 169.799804688 11 174.299804688 23.5 c 128,-1,15
 178.799804688 36 178.799804688 36 178.799804688 56 c 2,16,-1
 179.799804688 646 l 2,17,18
 179.799804688 666 179.799804688 666 175.299804688 678 c 128,-1,19
 170.799804688 690 170.799804688 690 161.799804688 694.5 c 128,-1,20
 152.799804688 699 152.799804688 699 147.299804688 700 c 128,-1,21
 141.799804688 701 141.799804688 701 130.799804688 701 c 0,0,1
EndSplineSet
EndChar

StartChar: J
Encoding: 74 74 45
Width: 454
GlyphClass: 2
Flags: W
LayerCount: 2
Fore
SplineSet
30 165 m 0,0,1
 30 184 30 184 34 201 c 0,2,3
 43 241 43 241 83 241 c 0,4,5
 104 241 104 241 118 226.5 c 128,-1,6
 132 212 132 212 132 191 c 2,7,-1
 132 182 l 2,8,9
 130 170 130 170 130 166 c 0,10,11
 130 130 130 130 156.5 108 c 128,-1,12
 183 86 183 86 217 86 c 0,13,14
 247 86 247 86 268.5 106.5 c 128,-1,15
 290 127 290 127 290 166 c 2,16,-1
 290 663 l 2,17,18
 290 683 290 683 305 698 c 128,-1,19
 320 713 320 713 340 713 c 128,-1,20
 360 713 360 713 375 698 c 128,-1,21
 390 683 390 683 390 663 c 2,22,-1
 390 174 l 2,23,24
 390 172 390 172 390.5 167.5 c 128,-1,25
 391 163 391 163 391 161 c 0,26,27
 391 91 391 91 338 37.5 c 128,-1,28
 285 -16 285 -16 213 -16 c 0,29,30
 168 -16 168 -16 125 7 c 0,31,32
 84 30 84 30 57 71.5 c 128,-1,33
 30 113 30 113 30 165 c 0,0,1
EndSplineSet
EndChar

StartChar: K
Encoding: 75 75 46
Width: 481
GlyphClass: 2
Flags: W
LayerCount: 2
Fore
SplineSet
43.2001953125 40 m 2,0,-1
 43.2001953125 663 l 2,1,2
 43.2001953125 683 43.2001953125 683 58.2001953125 698 c 128,-1,3
 73.2001953125 713 73.2001953125 713 93.2001953125 713 c 128,-1,4
 113.200195312 713 113.200195312 713 128.200195312 698 c 128,-1,5
 143.200195312 683 143.200195312 683 143.200195312 663 c 2,6,-1
 143.200195312 416 l 1,7,-1
 313.799804688 698 l 2,8,9
 330.799804688 713 330.799804688 713 349.799804688 713 c 0,10,11
 369.799804688 713 369.799804688 713 384.799804688 698 c 128,-1,12
 399.799804688 683 399.799804688 683 399.799804688 663 c 128,-1,13
 399.799804688 643 399.799804688 643 384.799804688 628 c 2,14,-1
 197.799804688 365 l 1,15,-1
 407.799804688 75 l 2,16,17
 422.799804688 58 422.799804688 58 422.799804688 40 c 0,18,19
 422.799804688 20 422.799804688 20 407.799804688 5 c 128,-1,20
 392.799804688 -10 392.799804688 -10 372.799804688 -10 c 0,21,22
 351.799804688 -10 351.799804688 -10 336.799804688 5 c 2,23,-1
 143.200195312 315 l 1,24,-1
 143.200195312 40 l 2,25,26
 143.200195312 20 143.200195312 20 128.200195312 5 c 128,-1,27
 113.200195312 -10 113.200195312 -10 93.2001953125 -10 c 128,-1,28
 73.2001953125 -10 73.2001953125 -10 58.2001953125 5 c 128,-1,29
 43.2001953125 20 43.2001953125 20 43.2001953125 40 c 2,0,-1
EndSplineSet
EndChar

StartChar: L
Encoding: 76 76 47
Width: 475
GlyphClass: 2
Flags: W
LayerCount: 2
Fore
SplineSet
43.2001953125 51 m 2,0,-1
 43.2001953125 663 l 2,1,2
 43.2001953125 683 43.2001953125 683 58.2001953125 698 c 128,-1,3
 73.2001953125 713 73.2001953125 713 93.2001953125 713 c 128,-1,4
 113.200195312 713 113.200195312 713 128.200195312 698.5 c 128,-1,5
 143.200195312 684 143.200195312 684 143.200195312 663 c 2,6,-1
 143.200195312 101 l 1,7,-1
 364.400390625 101 l 2,8,9
 385.400390625 101 385.400390625 101 399.900390625 86 c 128,-1,10
 414.400390625 71 414.400390625 71 414.400390625 51 c 128,-1,11
 414.400390625 31 414.400390625 31 399.400390625 16 c 128,-1,12
 384.400390625 1 384.400390625 1 364.400390625 1 c 2,13,-1
 93.2001953125 1 l 2,14,15
 73.2001953125 1 73.2001953125 1 58.2001953125 16 c 128,-1,16
 43.2001953125 31 43.2001953125 31 43.2001953125 51 c 2,0,-1
EndSplineSet
EndChar

StartChar: M
Encoding: 77 77 48
Width: 497
GlyphClass: 2
Flags: W
LayerCount: 2
Fore
SplineSet
43.2001953125 40 m 2,0,-1
 43.2001953125 663 l 2,1,2
 43.2001953125 684 43.2001953125 684 58.2001953125 698.5 c 128,-1,3
 73.2001953125 713 73.2001953125 713 93.2001953125 713 c 2,4,-1
 159.400390625 713 l 2,5,6
 169.599609375 713 169.599609375 713 177.400390625 702.5 c 128,-1,7
 185.200195312 692 185.200195312 692 188.200195312 677 c 2,8,-1
 233.200195312 430 l 1,9,-1
 278.200195312 677 l 2,10,11
 280.599609375 692 280.599609375 692 288.700195312 702.5 c 128,-1,12
 296.799804688 713 296.799804688 713 307 713 c 2,13,-1
 373.200195312 713 l 2,14,15
 393.200195312 713 393.200195312 713 408.200195312 698 c 128,-1,16
 423.200195312 683 423.200195312 683 423.200195312 663 c 2,17,-1
 423.200195312 40 l 2,18,19
 423.200195312 20 423.200195312 20 408.200195312 5 c 128,-1,20
 393.200195312 -10 393.200195312 -10 373.200195312 -10 c 128,-1,21
 353.200195312 -10 353.200195312 -10 338.200195312 4.5 c 128,-1,22
 323.200195312 19 323.200195312 19 323.200195312 40 c 2,23,-1
 323.200195312 579 l 1,24,-1
 262 243 l 2,25,26
 254.200195312 207 254.200195312 207 233.200195312 207 c 0,27,28
 223.599609375 207 223.599609375 207 215.5 217.5 c 128,-1,29
 207.400390625 228 207.400390625 228 204.400390625 243 c 2,30,-1
 143.200195312 579 l 1,31,-1
 143.200195312 40 l 2,32,33
 143.200195312 20 143.200195312 20 128.200195312 5 c 128,-1,34
 113.200195312 -10 113.200195312 -10 93.2001953125 -10 c 128,-1,35
 73.2001953125 -10 73.2001953125 -10 58.2001953125 4.5 c 128,-1,36
 43.2001953125 19 43.2001953125 19 43.2001953125 40 c 2,0,-1
EndSplineSet
EndChar

StartChar: N
Encoding: 78 78 49
Width: 480
GlyphClass: 2
Flags: W
LayerCount: 2
Fore
SplineSet
43.2001953125 40 m 2,0,-1
 43.2001953125 663 l 2,1,2
 43.2001953125 683 43.2001953125 683 58.2001953125 698 c 128,-1,3
 73.2001953125 713 73.2001953125 713 93.2001953125 713 c 2,4,-1
 130.200195312 713 l 2,5,6
 154 713 154 713 162.400390625 684 c 2,7,-1
 306.400390625 182 l 1,8,-1
 306.400390625 663 l 2,9,10
 306.400390625 684 306.400390625 684 321.400390625 698.5 c 128,-1,11
 336.400390625 713 336.400390625 713 356.400390625 713 c 128,-1,12
 376.400390625 713 376.400390625 713 391.400390625 698 c 128,-1,13
 406.400390625 683 406.400390625 683 406.400390625 663 c 2,14,-1
 406.400390625 40 l 2,15,16
 406.400390625 20 406.400390625 20 391.400390625 5 c 128,-1,17
 376.400390625 -10 376.400390625 -10 356.400390625 -10 c 2,18,-1
 318.400390625 -10 l 2,19,20
 295 -10 295 -10 286.599609375 18 c 2,21,-1
 143.200195312 520 l 1,22,-1
 143.200195312 40 l 2,23,24
 143.200195312 20 143.200195312 20 128.200195312 5 c 128,-1,25
 113.200195312 -10 113.200195312 -10 93.2001953125 -10 c 128,-1,26
 73.2001953125 -10 73.2001953125 -10 58.2001953125 5 c 128,-1,27
 43.2001953125 20 43.2001953125 20 43.2001953125 40 c 2,0,-1
EndSplineSet
EndChar

StartChar: O
Encoding: 79 79 50
Width: 470
GlyphClass: 2
Flags: W
LayerCount: 2
Fore
SplineSet
33.599609375 354 m 2,0,-1
 33.599609375 358 l 2,1,2
 33.599609375 459 33.599609375 459 67.599609375 544.5 c 128,-1,3
 101.599609375 630 101.599609375 630 150.400390625 679 c 0,4,5
 180.400390625 721 180.400390625 721 221.799804688 721 c 0,6,7
 267.400390625 721 267.400390625 721 311.200195312 666.5 c 128,-1,8
 355 612 355 612 382.5 530.5 c 128,-1,9
 410 449 410 449 410 357 c 2,10,-1
 410 354 l 2,11,12
 409 265 409 265 382 183 c 128,-1,13
 355 101 355 101 311.200195312 44 c 128,-1,14
 267.400390625 -13 267.400390625 -13 221.799804688 -13 c 128,-1,15
 176.200195312 -13 176.200195312 -13 132.900390625 44 c 128,-1,16
 89.599609375 101 89.599609375 101 62.099609375 183 c 128,-1,17
 34.599609375 265 34.599609375 265 33.599609375 354 c 2,0,-1
133.599609375 354 m 2,18,19
 134.200195312 297 134.200195312 297 142.900390625 238.5 c 128,-1,20
 151.599609375 180 151.599609375 180 172.299804688 133.5 c 128,-1,21
 193 87 193 87 221.799804688 87 c 0,22,23
 243.400390625 87 243.400390625 87 261.099609375 113.5 c 128,-1,24
 278.799804688 140 278.799804688 140 289 181.5 c 128,-1,25
 299.200195312 223 299.200195312 223 304.599609375 268 c 128,-1,26
 310 313 310 313 310 354 c 0,27,28
 310 415 310 415 301.299804688 473.5 c 128,-1,29
 292.599609375 532 292.599609375 532 271.900390625 576.5 c 128,-1,30
 251.200195312 621 251.200195312 621 221.799804688 621 c 0,31,32
 193.599609375 621 193.599609375 621 170.799804688 573 c 0,33,34
 133.599609375 492 133.599609375 492 133.599609375 359 c 2,35,-1
 133.599609375 354 l 2,18,19
EndSplineSet
EndChar

StartChar: P
Encoding: 80 80 51
Width: 471
GlyphClass: 2
Flags: W
LayerCount: 2
Fore
SplineSet
43.2001953125 40 m 2,0,-1
 43.2001953125 651 l 2,1,2
 43.2001953125 671 43.2001953125 671 57.7001953125 686 c 128,-1,3
 72.2001953125 701 72.2001953125 701 93.2001953125 701 c 2,4,-1
 216.400390625 701 l 2,5,6
 283 701 283 701 344.700195312 648 c 128,-1,7
 406.400390625 595 406.400390625 595 406.400390625 495 c 2,8,-1
 406.400390625 484 l 2,9,10
 403.400390625 416 403.400390625 416 367.400390625 370 c 0,11,12
 305.799804688 287 305.799804688 287 216.400390625 287 c 2,13,-1
 143.200195312 287 l 1,14,-1
 143.200195312 40 l 2,15,16
 143.200195312 19 143.200195312 19 128.200195312 4.5 c 128,-1,17
 113.200195312 -10 113.200195312 -10 93.2001953125 -10 c 128,-1,18
 73.2001953125 -10 73.2001953125 -10 58.2001953125 5 c 128,-1,19
 43.2001953125 20 43.2001953125 20 43.2001953125 40 c 2,0,-1
143.200195312 387 m 1,20,-1
 216.400390625 387 l 2,21,22
 303.400390625 387 303.400390625 387 306.400390625 488 c 1,23,-1
 306.400390625 495 l 2,24,25
 306.400390625 554 306.400390625 554 282.700195312 577.5 c 128,-1,26
 259 601 259 601 216.400390625 601 c 2,27,-1
 143.200195312 601 l 1,28,-1
 143.200195312 387 l 1,20,-1
EndSplineSet
EndChar

StartChar: Q
Encoding: 81 81 52
Width: 477
GlyphClass: 2
Flags: W
LayerCount: 2
Fore
SplineSet
34.2001953125 377 m 0,0,1
 34.2001953125 496 34.2001953125 496 64.2001953125 568 c 0,2,3
 90.2001953125 628 90.2001953125 628 130.799804688 672 c 128,-1,4
 171.400390625 716 171.400390625 716 212.799804688 716 c 2,5,-1
 218.200195312 716 l 2,6,7
 263.799804688 716 263.799804688 716 306.099609375 665.5 c 128,-1,8
 348.400390625 615 348.400390625 615 372.400390625 539.5 c 128,-1,9
 396.400390625 464 396.400390625 464 396.400390625 376 c 0,10,11
 396.400390625 247 396.400390625 247 347.400390625 155 c 1,12,-1
 412.400390625 71 l 2,13,14
 423.400390625 57 423.400390625 57 423.400390625 40 c 0,15,16
 423.400390625 20 423.400390625 20 407.900390625 5 c 128,-1,17
 392.400390625 -10 392.400390625 -10 372.400390625 -10 c 0,18,19
 347.400390625 -10 347.400390625 -10 336.400390625 5 c 2,20,-1
 289.599609375 75 l 1,21,22
 256 32 256 32 218.200195312 32 c 0,23,24
 178.599609375 32 178.599609375 32 134.400390625 75.5 c 128,-1,25
 90.2001953125 119 90.2001953125 119 64.2001953125 181 c 0,26,27
 34.2001953125 256 34.2001953125 256 34.2001953125 377 c 0,0,1
137.200195312 401 m 2,28,29
 137.200195312 357 137.200195312 357 138.099609375 327 c 128,-1,30
 139 297 139 297 142.299804688 261.5 c 128,-1,31
 145.599609375 226 145.599609375 226 151.900390625 203 c 128,-1,32
 158.200195312 180 158.200195312 180 169.900390625 161.5 c 128,-1,33
 181.599609375 143 181.599609375 143 197.799804688 136 c 0,34,35
 206.799804688 132 206.799804688 132 216.400390625 132 c 0,36,37
 236.200195312 132 236.200195312 132 253.599609375 153 c 1,38,-1
 195.400390625 278 l 2,39,40
 188.799804688 292 188.799804688 292 188.799804688 309 c 0,41,42
 188.799804688 329 188.799804688 329 197.5 344 c 128,-1,43
 206.200195312 359 206.200195312 359 218.200195312 359 c 0,44,45
 233.799804688 359 233.799804688 359 241 344 c 2,46,-1
 288.400390625 242 l 1,47,48
 300.400390625 302 300.400390625 302 300.400390625 371 c 0,49,50
 300.400390625 470 300.400390625 470 277.599609375 543 c 128,-1,51
 254.799804688 616 254.799804688 616 214 616 c 0,52,53
 180.400390625 616 180.400390625 616 160 566.5 c 128,-1,54
 139.599609375 517 139.599609375 517 137.200195312 454 c 1,55,-1
 137.200195312 401 l 2,28,29
EndSplineSet
EndChar

StartChar: R
Encoding: 82 82 53
Width: 451
GlyphClass: 2
Flags: W
LayerCount: 2
Fore
SplineSet
43.2001953125 40 m 2,0,-1
 43.2001953125 651 l 2,1,2
 43.2001953125 672 43.2001953125 672 57.7001953125 686.5 c 128,-1,3
 72.2001953125 701 72.2001953125 701 93.2001953125 701 c 2,4,-1
 211.599609375 701 l 1,5,6
 242.200195312 697 242.200195312 697 276.5 679 c 128,-1,7
 310.799804688 661 310.799804688 661 346.299804688 625 c 128,-1,8
 381.799804688 589 381.799804688 589 381.799804688 543 c 0,9,10
 381.799804688 454 381.799804688 454 348.799804688 389.5 c 128,-1,11
 315.799804688 325 315.799804688 325 260.200195312 299 c 1,12,-1
 381.799804688 65 l 2,13,14
 387.799804688 55 387.799804688 55 387.799804688 40 c 0,15,16
 387.799804688 20 387.799804688 20 372.799804688 5 c 128,-1,17
 357.799804688 -10 357.799804688 -10 337.799804688 -10 c 0,18,19
 313.799804688 -10 313.799804688 -10 300.799804688 4 c 1,20,-1
 194.799804688 287 l 1,21,-1
 143.200195312 287 l 1,22,-1
 143.200195312 40 l 2,23,24
 143.200195312 20 143.200195312 20 128.200195312 5 c 128,-1,25
 113.200195312 -10 113.200195312 -10 93.2001953125 -10 c 128,-1,26
 73.2001953125 -10 73.2001953125 -10 58.2001953125 4.5 c 128,-1,27
 43.2001953125 19 43.2001953125 19 43.2001953125 40 c 2,0,-1
143.200195312 387 m 1,28,-1
 209.200195312 387 l 2,29,30
 242.200195312 387 242.200195312 387 258.400390625 410 c 0,31,32
 273.400390625 431 273.400390625 431 277.599609375 463 c 128,-1,33
 281.799804688 495 281.799804688 495 281.799804688 543 c 0,34,35
 281.799804688 558 281.799804688 558 263.200195312 573 c 0,36,37
 233.799804688 601 233.799804688 601 208 601 c 2,38,-1
 143.200195312 601 l 1,39,-1
 143.200195312 387 l 1,28,-1
EndSplineSet
EndChar

StartChar: S
Encoding: 83 83 54
Width: 430
GlyphClass: 2
Flags: W
LayerCount: 2
Fore
SplineSet
31.7998046875 153 m 1,0,-1
 31.7998046875 160 l 2,1,2
 31.7998046875 180 31.7998046875 180 46.7998046875 195 c 128,-1,3
 61.7998046875 210 61.7998046875 210 81.7998046875 210 c 0,4,5
 100.799804688 210 100.799804688 210 115.299804688 197.5 c 128,-1,6
 129.799804688 185 129.799804688 185 131.799804688 167 c 0,7,8
 137.799804688 128 137.799804688 128 156.700195312 106.5 c 128,-1,9
 175.599609375 85 175.599609375 85 200.799804688 85 c 0,10,11
 230.799804688 85 230.799804688 85 253 113 c 0,12,13
 273.400390625 138 273.400390625 138 273.400390625 189 c 0,14,15
 273.400390625 217 273.400390625 217 265.299804688 238.5 c 128,-1,16
 257.200195312 260 257.200195312 260 248.799804688 269.5 c 128,-1,17
 240.400390625 279 240.400390625 279 224.200195312 293 c 0,18,19
 215.799804688 300 215.799804688 300 192.700195312 318 c 128,-1,20
 169.599609375 336 169.599609375 336 158.200195312 346 c 128,-1,21
 146.799804688 356 146.799804688 356 119.299804688 377 c 128,-1,22
 91.7998046875 398 91.7998046875 398 76.7998046875 418 c 128,-1,23
 61.7998046875 438 61.7998046875 438 49.7998046875 469 c 128,-1,24
 37.7998046875 500 37.7998046875 500 37.7998046875 537 c 0,25,26
 37.7998046875 615 37.7998046875 615 94.7001953125 664.5 c 128,-1,27
 151.599609375 714 151.599609375 714 203.200195312 716 c 2,28,-1
 206.799804688 716 l 2,29,30
 253 716 253 716 298.700195312 679 c 128,-1,31
 344.400390625 642 344.400390625 642 362.400390625 579 c 0,32,33
 364.400390625 571 364.400390625 571 364.400390625 566 c 0,34,35
 364.400390625 546 364.400390625 546 349.900390625 531 c 128,-1,36
 335.400390625 516 335.400390625 516 314.400390625 516 c 128,-1,37
 293.400390625 516 293.400390625 516 281.900390625 529.5 c 128,-1,38
 270.400390625 543 270.400390625 543 264.700195312 564 c 128,-1,39
 259 585 259 585 253 593 c 0,40,41
 236.799804688 616 236.799804688 616 207.400390625 616 c 0,42,43
 180.400390625 616 180.400390625 616 159.099609375 594.5 c 128,-1,44
 137.799804688 573 137.799804688 573 137.799804688 537 c 0,45,46
 137.799804688 510 137.799804688 510 145.299804688 490 c 128,-1,47
 152.799804688 470 152.799804688 470 160.900390625 460.5 c 128,-1,48
 169 451 169 451 183.400390625 438 c 0,49,50
 193.599609375 429 193.599609375 429 215.799804688 412 c 128,-1,51
 238 395 238 395 250.599609375 384.5 c 128,-1,52
 263.200195312 374 263.200195312 374 289.799804688 353 c 128,-1,53
 316.400390625 332 316.400390625 332 332.900390625 311.5 c 128,-1,54
 349.400390625 291 349.400390625 291 361.400390625 259 c 128,-1,55
 373.400390625 227 373.400390625 227 373.400390625 189 c 0,56,57
 373.400390625 109 373.400390625 109 322.200195312 55 c 128,-1,58
 271 1 271 1 222.400390625 -12 c 0,59,60
 210.400390625 -15 210.400390625 -15 199.599609375 -15 c 0,61,62
 151.599609375 -15 151.599609375 -15 96.7001953125 32.5 c 128,-1,63
 41.7998046875 80 41.7998046875 80 31.7998046875 153 c 1,0,-1
EndSplineSet
EndChar

StartChar: T
Encoding: 84 84 55
Width: 507
GlyphClass: 2
Flags: W
LayerCount: 2
Fore
SplineSet
25.7998046875 651 m 128,-1,1
 25.7998046875 672 25.7998046875 672 40.2998046875 686.5 c 128,-1,2
 54.7998046875 701 54.7998046875 701 75.7998046875 701 c 2,3,-1
 411.799804688 701 l 2,4,5
 432.799804688 701 432.799804688 701 447.299804688 686 c 128,-1,6
 461.799804688 671 461.799804688 671 461.799804688 651 c 128,-1,7
 461.799804688 631 461.799804688 631 446.799804688 616 c 128,-1,8
 431.799804688 601 431.799804688 601 411.799804688 601 c 2,9,-1
 293.799804688 601 l 1,10,-1
 293.799804688 40 l 2,11,12
 293.799804688 20 293.799804688 20 278.799804688 5 c 128,-1,13
 263.799804688 -10 263.799804688 -10 243.799804688 -10 c 128,-1,14
 223.799804688 -10 223.799804688 -10 208.799804688 4.5 c 128,-1,15
 193.799804688 19 193.799804688 19 193.799804688 40 c 2,16,-1
 193.799804688 601 l 1,17,-1
 75.7998046875 601 l 2,18,19
 55.7998046875 601 55.7998046875 601 40.7998046875 615.5 c 128,-1,0
 25.7998046875 630 25.7998046875 630 25.7998046875 651 c 128,-1,1
EndSplineSet
EndChar

StartChar: U
Encoding: 85 85 56
Width: 473
GlyphClass: 2
Flags: W
LayerCount: 2
Fore
SplineSet
39.599609375 211 m 2,0,-1
 39.599609375 663 l 2,1,2
 39.599609375 683 39.599609375 683 54.599609375 698 c 128,-1,3
 69.599609375 713 69.599609375 713 89.599609375 713 c 128,-1,4
 109.599609375 713 109.599609375 713 124.599609375 698 c 128,-1,5
 139.599609375 683 139.599609375 683 139.599609375 663 c 2,6,-1
 139.599609375 211 l 2,7,8
 139.599609375 140 139.599609375 140 169 107 c 0,9,10
 187.599609375 87 187.599609375 87 221.200195312 87 c 0,11,12
 259 87 259 87 280.900390625 120 c 128,-1,13
 302.799804688 153 302.799804688 153 302.799804688 211 c 2,14,-1
 302.799804688 663 l 2,15,16
 302.799804688 684 302.799804688 684 317.799804688 698.5 c 128,-1,17
 332.799804688 713 332.799804688 713 352.799804688 713 c 128,-1,18
 372.799804688 713 372.799804688 713 387.799804688 698 c 128,-1,19
 402.799804688 683 402.799804688 683 402.799804688 663 c 2,20,-1
 402.799804688 211 l 2,21,22
 402.799804688 154 402.799804688 154 378.299804688 104 c 128,-1,23
 353.799804688 54 353.799804688 54 308.799804688 24 c 0,24,25
 272.799804688 -13 272.799804688 -13 221.200195312 -13 c 128,-1,26
 169.599609375 -13 169.599609375 -13 133.599609375 24 c 0,27,28
 88.599609375 54 88.599609375 54 64.099609375 104 c 128,-1,29
 39.599609375 154 39.599609375 154 39.599609375 211 c 2,0,-1
EndSplineSet
EndChar

StartChar: V
Encoding: 86 86 57
Width: 468
GlyphClass: 2
Flags: W
LayerCount: 2
Fore
SplineSet
25.2001953125 663 m 1,0,1
 25.2001953125 683 25.2001953125 683 40.7001953125 698 c 128,-1,2
 56.2001953125 713 56.2001953125 713 76.2001953125 713 c 0,3,4
 93.2001953125 713 93.2001953125 713 106.700195312 702 c 128,-1,5
 120.200195312 691 120.200195312 691 124.200195312 676 c 2,6,-1
 223.799804688 105 l 1,7,-1
 322.400390625 676 l 2,8,9
 335.400390625 713 335.400390625 713 371.400390625 713 c 0,10,11
 391.400390625 713 391.400390625 713 406.900390625 698 c 128,-1,12
 422.400390625 683 422.400390625 683 422.400390625 663 c 1,13,-1
 273 27 l 2,14,15
 270.599609375 12 270.599609375 12 262.5 1 c 128,-1,16
 254.400390625 -10 254.400390625 -10 244.200195312 -10 c 2,17,-1
 203.400390625 -10 l 2,18,19
 193.200195312 -10 193.200195312 -10 184.5 1 c 128,-1,20
 175.799804688 12 175.799804688 12 173.400390625 27 c 2,21,-1
 25.2001953125 663 l 1,0,1
EndSplineSet
EndChar

StartChar: W
Encoding: 87 87 58
Width: 474
GlyphClass: 2
Flags: W
LayerCount: 2
Fore
SplineSet
34.2001953125 663 m 1,0,-1
 34.2001953125 665 l 2,1,2
 34.2001953125 685 34.2001953125 685 49.2001953125 699 c 128,-1,3
 64.2001953125 713 64.2001953125 713 84.2001953125 713 c 128,-1,4
 104.200195312 713 104.200195312 713 118.700195312 698 c 128,-1,5
 133.200195312 683 133.200195312 683 134.200195312 663 c 0,6,7
 140.799804688 367 140.799804688 367 155.200195312 199 c 1,8,-1
 190.599609375 403 l 2,9,10
 198.400390625 436 198.400390625 436 218.799804688 436 c 2,11,-1
 229 436 l 2,12,13
 239.200195312 436 239.200195312 436 247 425.5 c 128,-1,14
 254.799804688 415 254.799804688 415 257.799804688 400 c 2,15,-1
 292.599609375 206 l 1,16,17
 307.599609375 382 307.599609375 382 313.599609375 663 c 0,18,19
 313.599609375 683 313.599609375 683 329.099609375 698 c 128,-1,20
 344.599609375 713 344.599609375 713 364.599609375 713 c 128,-1,21
 384.599609375 713 384.599609375 713 399.599609375 698.5 c 128,-1,22
 414.599609375 684 414.599609375 684 414.599609375 665 c 2,23,-1
 414.599609375 663 l 1,24,25
 400.599609375 261 400.599609375 261 350.599609375 29 c 0,26,27
 347.599609375 14 347.599609375 14 333.599609375 2 c 128,-1,28
 319.599609375 -10 319.599609375 -10 306.400390625 -10 c 0,29,30
 290.799804688 -10 290.799804688 -10 277.299804688 4 c 128,-1,31
 263.799804688 18 263.799804688 18 260.200195312 37 c 2,32,-1
 224.200195312 237 l 1,33,-1
 187.599609375 26 l 2,34,35
 181 -10 181 -10 158.799804688 -10 c 2,36,-1
 142 -10 l 2,37,38
 128.200195312 -10 128.200195312 -10 114.700195312 1.5 c 128,-1,39
 101.200195312 13 101.200195312 13 97.2001953125 29 c 0,40,41
 48.2001953125 250 48.2001953125 250 34.2001953125 663 c 1,0,-1
EndSplineSet
EndChar

StartChar: X
Encoding: 88 88 59
Width: 458
GlyphClass: 2
Flags: W
LayerCount: 2
Fore
SplineSet
32.400390625 40 m 0,0,1
 32.400390625 54 32.400390625 54 38.400390625 64 c 2,2,-1
 180.599609375 360 l 1,3,-1
 44.400390625 638 l 2,4,5
 38.400390625 650 38.400390625 650 38.400390625 663 c 0,6,7
 38.400390625 684 38.400390625 684 53.400390625 698.5 c 128,-1,8
 68.400390625 713 68.400390625 713 88.400390625 713 c 0,9,10
 110.400390625 713 110.400390625 713 124.400390625 699 c 1,11,-1
 218.400390625 452 l 1,12,-1
 304.400390625 687 l 1,13,14
 324.400390625 713 324.400390625 713 348.400390625 713 c 0,15,16
 368.400390625 713 368.400390625 713 383.400390625 698 c 128,-1,17
 398.400390625 683 398.400390625 683 398.400390625 663 c 0,18,19
 398.400390625 650 398.400390625 650 392.400390625 638 c 2,20,-1
 256.200195312 360 l 1,21,-1
 398.400390625 64 l 2,22,23
 404.400390625 53 404.400390625 53 404.400390625 40 c 0,24,25
 404.400390625 20 404.400390625 20 389.400390625 5 c 128,-1,26
 374.400390625 -10 374.400390625 -10 354.400390625 -10 c 0,27,28
 330.400390625 -10 330.400390625 -10 316.400390625 4 c 1,29,-1
 218.400390625 266 l 1,30,-1
 126.400390625 16 l 1,31,32
 107.400390625 -10 107.400390625 -10 82.400390625 -10 c 0,33,34
 62.400390625 -10 62.400390625 -10 47.400390625 4.5 c 128,-1,35
 32.400390625 19 32.400390625 19 32.400390625 40 c 0,0,1
EndSplineSet
EndChar

StartChar: Y
Encoding: 89 89 60
Width: 439
GlyphClass: 2
Flags: W
LayerCount: 2
Fore
SplineSet
25.2001953125 663 m 0,0,1
 25.2001953125 684 25.2001953125 684 40.2001953125 698.5 c 128,-1,2
 55.2001953125 713 55.2001953125 713 75.2001953125 713 c 0,3,4
 103.200195312 713 103.200195312 713 119.200195312 686 c 2,5,-1
 209.400390625 437 l 1,6,-1
 299.599609375 686 l 2,7,8
 303.599609375 697 303.599609375 697 316.599609375 705 c 128,-1,9
 329.599609375 713 329.599609375 713 343.599609375 713 c 0,10,11
 363.599609375 713 363.599609375 713 378.599609375 698 c 128,-1,12
 393.599609375 683 393.599609375 683 393.599609375 663 c 0,13,14
 393.599609375 650 393.599609375 650 387.599609375 639 c 2,15,-1
 279.400390625 319 l 1,16,-1
 279.400390625 40 l 2,17,18
 279.400390625 20 279.400390625 20 264.400390625 5 c 128,-1,19
 249.400390625 -10 249.400390625 -10 229.400390625 -10 c 128,-1,20
 209.400390625 -10 209.400390625 -10 194.400390625 4.5 c 128,-1,21
 179.400390625 19 179.400390625 19 179.400390625 40 c 2,22,-1
 179.400390625 319 l 1,23,-1
 31.2001953125 639 l 2,24,25
 25.2001953125 650 25.2001953125 650 25.2001953125 663 c 0,0,1
EndSplineSet
EndChar

StartChar: Z
Encoding: 90 90 61
Width: 448
GlyphClass: 2
Flags: W
LayerCount: 2
Fore
SplineSet
33.599609375 51 m 0,0,1
 33.599609375 64 33.599609375 64 39.599609375 74 c 2,2,-1
 247.799804688 601 l 1,3,-1
 86.599609375 601 l 2,4,5
 66.599609375 601 66.599609375 601 51.599609375 616 c 128,-1,6
 36.599609375 631 36.599609375 631 36.599609375 651 c 128,-1,7
 36.599609375 671 36.599609375 671 51.099609375 686 c 128,-1,8
 65.599609375 701 65.599609375 701 86.599609375 701 c 2,9,-1
 311.400390625 701 l 2,10,11
 331.400390625 701 331.400390625 701 346.400390625 686 c 128,-1,12
 361.400390625 671 361.400390625 671 361.400390625 651 c 0,13,14
 361.400390625 638 361.400390625 638 355.400390625 628 c 2,15,-1
 160.799804688 101 l 1,16,-1
 345.400390625 101 l 2,17,18
 366.400390625 101 366.400390625 101 380.900390625 86.5 c 128,-1,19
 395.400390625 72 395.400390625 72 395.400390625 51 c 128,-1,20
 395.400390625 30 395.400390625 30 380.400390625 15.5 c 128,-1,21
 365.400390625 1 365.400390625 1 345.400390625 1 c 2,22,-1
 83.599609375 1 l 2,23,24
 63.599609375 1 63.599609375 1 48.599609375 16 c 128,-1,25
 33.599609375 31 33.599609375 31 33.599609375 51 c 0,0,1
EndSplineSet
EndChar

StartChar: bracketleft
Encoding: 91 91 62
Width: 427
GlyphClass: 2
Flags: W
LayerCount: 2
Fore
SplineSet
45.599609375 37 m 2,0,-1
 45.599609375 723 l 2,1,2
 45.599609375 743 45.599609375 743 60.599609375 758 c 128,-1,3
 75.599609375 773 75.599609375 773 95.599609375 773 c 2,4,-1
 315.200195312 773 l 2,5,6
 335.200195312 773 335.200195312 773 350.200195312 758 c 128,-1,7
 365.200195312 743 365.200195312 743 365.200195312 723 c 128,-1,8
 365.200195312 703 365.200195312 703 350.700195312 688 c 128,-1,9
 336.200195312 673 336.200195312 673 315.200195312 673 c 2,10,-1
 145.599609375 673 l 1,11,-1
 145.599609375 87 l 1,12,-1
 315.200195312 87 l 2,13,14
 335.200195312 87 335.200195312 87 350.200195312 72 c 128,-1,15
 365.200195312 57 365.200195312 57 365.200195312 37 c 128,-1,16
 365.200195312 17 365.200195312 17 350.200195312 2 c 128,-1,17
 335.200195312 -13 335.200195312 -13 315.200195312 -13 c 2,18,-1
 95.599609375 -13 l 2,19,20
 75.599609375 -13 75.599609375 -13 60.599609375 2 c 128,-1,21
 45.599609375 17 45.599609375 17 45.599609375 37 c 2,0,-1
EndSplineSet
EndChar

StartChar: backslash
Encoding: 92 92 63
Width: 398
GlyphClass: 2
Flags: W
LayerCount: 2
Fore
SplineSet
27.599609375 723 m 0,0,1
 27.599609375 744 27.599609375 744 42.599609375 758.5 c 128,-1,2
 57.599609375 773 57.599609375 773 77.599609375 773 c 0,3,4
 91.599609375 773 91.599609375 773 105.099609375 764 c 128,-1,5
 118.599609375 755 118.599609375 755 123.599609375 742 c 2,6,-1
 347.599609375 56 l 2,7,8
 351.599609375 48 351.599609375 48 351.599609375 37 c 0,9,10
 351.599609375 17 351.599609375 17 336.599609375 2 c 128,-1,11
 321.599609375 -13 321.599609375 -13 301.599609375 -13 c 0,12,13
 268.599609375 -13 268.599609375 -13 255.599609375 18 c 2,14,-1
 31.599609375 704 l 2,15,16
 27.599609375 712 27.599609375 712 27.599609375 723 c 0,0,1
EndSplineSet
EndChar

StartChar: bracketright
Encoding: 93 93 64
Width: 414
GlyphClass: 2
Flags: W
LayerCount: 2
Fore
SplineSet
31.2001953125 37 m 128,-1,1
 31.2001953125 57 31.2001953125 57 46.2001953125 72 c 128,-1,2
 61.2001953125 87 61.2001953125 87 81.2001953125 87 c 2,3,-1
 250.799804688 87 l 1,4,-1
 250.799804688 673 l 1,5,-1
 81.2001953125 673 l 2,6,7
 60.2001953125 673 60.2001953125 673 45.7001953125 688 c 128,-1,8
 31.2001953125 703 31.2001953125 703 31.2001953125 723 c 128,-1,9
 31.2001953125 743 31.2001953125 743 46.2001953125 758 c 128,-1,10
 61.2001953125 773 61.2001953125 773 81.2001953125 773 c 2,11,-1
 300.799804688 773 l 2,12,13
 320.799804688 773 320.799804688 773 335.799804688 758 c 128,-1,14
 350.799804688 743 350.799804688 743 350.799804688 723 c 2,15,-1
 350.799804688 37 l 2,16,17
 350.799804688 17 350.799804688 17 335.799804688 2 c 128,-1,18
 320.799804688 -13 320.799804688 -13 300.799804688 -13 c 2,19,-1
 81.2001953125 -13 l 2,20,21
 61.2001953125 -13 61.2001953125 -13 46.2001953125 2 c 128,-1,0
 31.2001953125 17 31.2001953125 17 31.2001953125 37 c 128,-1,1
EndSplineSet
EndChar

StartChar: underscore
Encoding: 95 95 65
Width: 525
GlyphClass: 2
Flags: W
LayerCount: 2
Fore
SplineSet
48 -157 m 2,0,1
 48 -136 48 -136 63 -121.5 c 128,-1,2
 78 -107 78 -107 98 -107 c 2,3,-1
 394 -107 l 2,4,5
 414 -107 414 -107 429 -122 c 128,-1,6
 444 -137 444 -137 444 -157 c 2,7,-1
 444 -186 l 2,8,9
 444 -206 444 -206 429 -221 c 128,-1,10
 414 -236 414 -236 394 -236 c 2,11,-1
 98 -236 l 2,12,13
 78 -236 78 -236 63 -221.5 c 128,-1,14
 48 -207 48 -207 48 -186 c 2,15,-1
 48 -157 l 2,0,1
EndSplineSet
EndChar

StartChar: grave
Encoding: 96 96 66
Width: 247
GlyphClass: 2
Flags: W
LayerCount: 2
Fore
SplineSet
35.400390625 720 m 0,0,1
 35.400390625 741 35.400390625 741 50.400390625 755.5 c 128,-1,2
 65.400390625 770 65.400390625 770 85.400390625 770 c 0,3,4
 112.400390625 770 112.400390625 770 121.400390625 756 c 2,5,-1
 181.400390625 661 l 2,6,7
 189.400390625 648 189.400390625 648 189.400390625 634 c 0,8,9
 189.400390625 614 189.400390625 614 174.400390625 599 c 128,-1,10
 159.400390625 584 159.400390625 584 139.400390625 584 c 0,11,12
 117.400390625 584 117.400390625 584 102.400390625 599 c 1,13,-1
 42.400390625 693 l 2,14,15
 35.400390625 704 35.400390625 704 35.400390625 720 c 0,0,1
EndSplineSet
Substitution2: "'ss01' Style Set 1 in Latin lookup 1 subtable" grave.alt
AlternateSubs2: "'aalt' Access All Alternates in Latin lookup 0 subtable" grave grave.alt
EndChar

StartChar: a
Encoding: 97 97 67
Width: 442
GlyphClass: 2
Flags: W
LayerCount: 2
Fore
SplineSet
30.599609375 154 m 0,0,1
 30.599609375 196 30.599609375 196 43.599609375 227.5 c 128,-1,2
 56.599609375 259 56.599609375 259 83.099609375 278.5 c 128,-1,3
 109.599609375 298 109.599609375 298 131.5 310.5 c 128,-1,4
 153.400390625 323 153.400390625 323 179.799804688 329 c 128,-1,5
 206.200195312 335 206.200195312 335 227.799804688 337 c 128,-1,6
 249.400390625 339 249.400390625 339 280 339 c 1,7,8
 276.400390625 398 276.400390625 398 262 420 c 0,9,10
 247 444 247 444 212.200195312 444 c 0,11,12
 175 444 175 444 146.799804688 406 c 0,13,14
 139 396 139 396 126.599609375 396 c 0,15,16
 105.599609375 396 105.599609375 396 91.099609375 410.5 c 128,-1,17
 76.599609375 425 76.599609375 425 76.599609375 446 c 0,18,19
 76.599609375 471 76.599609375 471 95.599609375 485 c 0,20,21
 158.799804688 544 158.799804688 544 212.200195312 544 c 0,22,23
 270.400390625 544 270.400390625 544 318 494 c 0,24,25
 380 435 380 435 380 347 c 2,26,-1
 380 37 l 2,27,28
 380 17 380 17 365 2 c 128,-1,29
 350 -13 350 -13 330 -13 c 128,-1,30
 310 -13 310 -13 295 1.5 c 128,-1,31
 280 16 280 16 280 37 c 2,32,-1
 280 45 l 1,33,34
 236.799804688 -17 236.799804688 -17 185.799804688 -17 c 0,35,36
 184.599609375 -17 184.599609375 -17 181 -16.5 c 128,-1,37
 177.400390625 -16 177.400390625 -16 175.599609375 -16 c 0,38,39
 134.799804688 -11 134.799804688 -11 82.7001953125 36 c 128,-1,40
 30.599609375 83 30.599609375 83 30.599609375 154 c 0,0,1
130.599609375 154 m 0,41,42
 130.599609375 124 130.599609375 124 146.5 105 c 128,-1,43
 162.400390625 86 162.400390625 86 179.799804688 84 c 2,44,-1
 184.599609375 84 l 2,45,46
 237.400390625 84 237.400390625 84 280 200 c 1,47,-1
 280 240 l 1,48,49
 253.599609375 242 253.599609375 242 238.599609375 242 c 0,50,51
 130.599609375 242 130.599609375 242 130.599609375 154 c 0,41,42
EndSplineSet
EndChar

StartChar: b
Encoding: 98 98 68
Width: 483
GlyphClass: 2
Flags: W
LayerCount: 2
Fore
SplineSet
43.7998046875 37 m 2,0,-1
 43.7998046875 723 l 2,1,2
 43.7998046875 743 43.7998046875 743 58.7998046875 758 c 128,-1,3
 73.7998046875 773 73.7998046875 773 93.7998046875 773 c 128,-1,4
 113.799804688 773 113.799804688 773 128.799804688 758.5 c 128,-1,5
 143.799804688 744 143.799804688 744 143.799804688 723 c 2,6,-1
 143.799804688 484 l 1,7,8
 185.200195312 539 185.200195312 539 232.599609375 539 c 0,9,10
 248.200195312 539 248.200195312 539 268.599609375 531 c 0,11,12
 319.200195312 510 319.200195312 510 367.700195312 446 c 128,-1,13
 416.200195312 382 416.200195312 382 417.200195312 287 c 2,14,-1
 417.200195312 281 l 2,15,16
 417.200195312 152 417.200195312 152 362.099609375 68 c 128,-1,17
 307 -16 307 -16 240.400390625 -16 c 0,18,19
 229.599609375 -16 229.599609375 -16 224.200195312 -15 c 0,20,21
 181 -8 181 -8 143.799804688 41 c 1,22,-1
 143.799804688 37 l 2,23,24
 143.799804688 16 143.799804688 16 128.799804688 1.5 c 128,-1,25
 113.799804688 -13 113.799804688 -13 93.7998046875 -13 c 128,-1,26
 73.7998046875 -13 73.7998046875 -13 58.7998046875 2 c 128,-1,27
 43.7998046875 17 43.7998046875 17 43.7998046875 37 c 2,0,-1
143.799804688 200 m 1,28,29
 155.200195312 153 155.200195312 153 181.299804688 118 c 128,-1,30
 207.400390625 83 207.400390625 83 236.799804688 83 c 0,31,32
 259.599609375 83 259.599609375 83 279.400390625 105 c 0,33,34
 317.200195312 147 317.200195312 147 317.200195312 277 c 2,35,-1
 317.200195312 285 l 2,36,37
 316 346 316 346 294.099609375 393.5 c 128,-1,38
 272.200195312 441 272.200195312 441 239.200195312 441 c 0,39,40
 222.400390625 441 222.400390625 441 205 428 c 0,41,42
 166 398 166 398 143.799804688 325 c 1,43,-1
 143.799804688 200 l 1,28,29
EndSplineSet
EndChar

StartChar: c
Encoding: 99 99 69
Width: 408
GlyphClass: 2
Flags: W
LayerCount: 2
Fore
SplineSet
32.400390625 274 m 0,0,1
 32.400390625 394 32.400390625 394 84.7998046875 466 c 128,-1,2
 137.200195312 538 137.200195312 538 202 538 c 0,3,4
 214 538 214 538 227.799804688 535 c 0,5,6
 261 529 261 529 297.5 501 c 128,-1,7
 334 473 334 473 345 429 c 1,8,-1
 345 417 l 2,9,10
 345 396 345 396 331 381.5 c 128,-1,11
 317 367 317 367 296 367 c 0,12,13
 261 367 261 367 250 406 c 0,14,15
 243.400390625 438 243.400390625 438 206.799804688 438 c 0,16,17
 184 438 184 438 168.400390625 426 c 0,18,19
 132.400390625 397 132.400390625 397 132.400390625 274 c 0,20,21
 132.400390625 82 132.400390625 82 197.799804688 82 c 0,22,23
 208.599609375 82 208.599609375 82 218.200195312 86 c 0,24,25
 247 97 247 97 253 137 c 0,26,27
 257 153 257 153 270.5 164.5 c 128,-1,28
 284 176 284 176 302 176 c 0,29,30
 322 176 322 176 336.5 161 c 128,-1,31
 351 146 351 146 351 126 c 2,32,-1
 351 114 l 1,33,34
 337 57 337 57 288.700195312 19.5 c 128,-1,35
 240.400390625 -18 240.400390625 -18 200.799804688 -18 c 0,36,37
 169 -18 169 -18 141.400390625 7 c 0,38,39
 32.400390625 69 32.400390625 69 32.400390625 274 c 0,0,1
EndSplineSet
EndChar

StartChar: d
Encoding: 100 100 70
Width: 471
GlyphClass: 2
Flags: W
LayerCount: 2
Fore
SplineSet
31.7998046875 269 m 0,0,1
 31.7998046875 371 31.7998046875 371 79.2998046875 439.5 c 128,-1,2
 126.799804688 508 126.799804688 508 179.799804688 531 c 0,3,4
 197.799804688 539 197.799804688 539 213.400390625 539 c 0,5,6
 260.799804688 539 260.799804688 539 304.599609375 485 c 1,7,-1
 304.599609375 723 l 2,8,9
 304.599609375 743 304.599609375 743 319.599609375 758 c 128,-1,10
 334.599609375 773 334.599609375 773 354.599609375 773 c 128,-1,11
 374.599609375 773 374.599609375 773 389.599609375 758.5 c 128,-1,12
 404.599609375 744 404.599609375 744 404.599609375 723 c 2,13,-1
 404.599609375 37 l 2,14,15
 404.599609375 16 404.599609375 16 389.599609375 1.5 c 128,-1,16
 374.599609375 -13 374.599609375 -13 354.599609375 -13 c 128,-1,17
 334.599609375 -13 334.599609375 -13 320.099609375 1.5 c 128,-1,18
 305.599609375 16 305.599609375 16 304.599609375 35 c 1,19,20
 265 -15 265 -15 214.599609375 -15 c 0,21,22
 197.799804688 -15 197.799804688 -15 179.799804688 -9 c 0,23,24
 122.799804688 11 122.799804688 11 77.2998046875 84.5 c 128,-1,25
 31.7998046875 158 31.7998046875 158 31.7998046875 269 c 0,0,1
131.799804688 269 m 0,26,27
 131.799804688 193 131.799804688 193 151.900390625 137 c 128,-1,28
 172 81 172 81 208.599609375 81 c 0,29,30
 226 81 226 81 244 94 c 0,31,32
 290.200195312 125 290.200195312 125 304.599609375 200 c 1,33,-1
 304.599609375 328 l 1,34,35
 292.599609375 373 292.599609375 373 267.700195312 406 c 128,-1,36
 242.799804688 439 242.799804688 439 214 439 c 0,37,38
 190 439 190 439 169 415 c 0,39,40
 131.799804688 373 131.799804688 373 131.799804688 269 c 0,26,27
EndSplineSet
EndChar

StartChar: e
Encoding: 101 101 71
Width: 560
GlyphClass: 2
Flags: W
LayerCount: 2
Fore
SplineSet
31.7998046875 274 m 0,0,1
 31.7998046875 389 31.7998046875 389 94.7998046875 465.5 c 128,-1,2
 157.799804688 542 157.799804688 542 266.799804688 544 c 2,3,-1
 272.799804688 544 l 2,4,5
 383.799804688 544 383.799804688 544 443.799804688 472.5 c 128,-1,6
 503.799804688 401 503.799804688 401 503.799804688 286 c 0,7,8
 503.799804688 266 503.799804688 266 488.799804688 251 c 128,-1,9
 473.799804688 236 473.799804688 236 453.799804688 236 c 2,10,-1
 133.799804688 236 l 1,11,12
 140.799804688 165 140.799804688 165 177.299804688 124 c 128,-1,13
 213.799804688 83 213.799804688 83 281.799804688 83 c 0,14,15
 298.799804688 83 298.799804688 83 316.799804688 86 c 0,16,17
 346.799804688 90 346.799804688 90 366.799804688 110 c 0,18,19
 380.799804688 124 380.799804688 124 400.799804688 124 c 0,20,21
 421.799804688 124 421.799804688 124 436.799804688 109.5 c 128,-1,22
 451.799804688 95 451.799804688 95 451.799804688 74 c 0,23,24
 451.799804688 28 451.799804688 28 404.299804688 6.5 c 128,-1,25
 356.799804688 -15 356.799804688 -15 289.799804688 -15 c 0,26,27
 235.799804688 -15 235.799804688 -15 194.799804688 -2 c 0,28,29
 115.799804688 24 115.799804688 24 73.7998046875 97 c 128,-1,30
 31.7998046875 170 31.7998046875 170 31.7998046875 274 c 0,0,1
138.799804688 336 m 1,31,-1
 395.799804688 336 l 1,32,33
 384.799804688 392 384.799804688 392 357.299804688 418 c 128,-1,34
 329.799804688 444 329.799804688 444 268.799804688 444 c 0,35,36
 168.799804688 444 168.799804688 444 138.799804688 336 c 1,31,-1
EndSplineSet
EndChar

StartChar: f
Encoding: 102 102 72
Width: 474
GlyphClass: 2
Flags: W
LayerCount: 2
Fore
SplineSet
27.599609375 483 m 128,-1,1
 27.599609375 503 27.599609375 503 42.599609375 518 c 128,-1,2
 57.599609375 533 57.599609375 533 77.599609375 533 c 2,3,-1
 171.599609375 533 l 1,4,-1
 171.599609375 542 l 2,5,6
 171.599609375 770 171.599609375 770 369.799804688 770 c 0,7,8
 389.799804688 770 389.799804688 770 404.799804688 755 c 128,-1,9
 419.799804688 740 419.799804688 740 419.799804688 720 c 128,-1,10
 419.799804688 700 419.799804688 700 404.799804688 685 c 128,-1,11
 389.799804688 670 389.799804688 670 369.799804688 670 c 0,12,13
 326.799804688 670 326.799804688 670 303.099609375 655 c 128,-1,14
 279.400390625 640 279.400390625 640 274 609 c 0,15,16
 271.599609375 596 271.599609375 596 271.599609375 542 c 2,17,-1
 271.599609375 533 l 1,18,-1
 372.799804688 533 l 2,19,20
 392.799804688 533 392.799804688 533 407.799804688 518 c 128,-1,21
 422.799804688 503 422.799804688 503 422.799804688 483 c 128,-1,22
 422.799804688 463 422.799804688 463 407.799804688 448 c 128,-1,23
 392.799804688 433 392.799804688 433 372.799804688 433 c 2,24,-1
 271.599609375 433 l 1,25,-1
 275.200195312 37 l 2,26,27
 275.200195312 17 275.200195312 17 261.400390625 2 c 128,-1,28
 247.599609375 -13 247.599609375 -13 227.599609375 -13 c 128,-1,29
 207.599609375 -13 207.599609375 -13 192.599609375 1.5 c 128,-1,30
 177.599609375 16 177.599609375 16 177.599609375 37 c 2,31,-1
 171.599609375 433 l 1,32,-1
 77.599609375 433 l 2,33,34
 56.599609375 433 56.599609375 433 42.099609375 448 c 128,-1,0
 27.599609375 463 27.599609375 463 27.599609375 483 c 128,-1,1
EndSplineSet
EndChar

StartChar: g
Encoding: 103 103 73
Width: 461
GlyphClass: 2
Flags: W
LayerCount: 2
Fore
SplineSet
31.7998046875 269 m 0,0,1
 31.7998046875 388 31.7998046875 388 87.2001953125 463.5 c 128,-1,2
 142.599609375 539 142.599609375 539 208 539 c 0,3,4
 217.599609375 539 217.599609375 539 222.400390625 538 c 0,5,6
 263.200195312 532 263.200195312 532 294.400390625 490 c 1,7,8
 295.400390625 509 295.400390625 509 310.400390625 522.5 c 128,-1,9
 325.400390625 536 325.400390625 536 344.400390625 536 c 0,10,11
 364.400390625 536 364.400390625 536 379.400390625 521 c 128,-1,12
 394.400390625 506 394.400390625 506 394.400390625 486 c 2,13,-1
 394.400390625 61 l 2,14,15
 397.400390625 38 397.400390625 38 397.400390625 17 c 0,16,17
 397.400390625 -78 397.400390625 -78 339.599609375 -134 c 128,-1,18
 281.799804688 -190 281.799804688 -190 219.400390625 -190 c 0,19,20
 170.200195312 -190 170.200195312 -190 132.5 -170.5 c 128,-1,21
 94.7998046875 -151 94.7998046875 -151 72.7998046875 -100 c 0,22,23
 68.7998046875 -92 68.7998046875 -92 68.7998046875 -80 c 0,24,25
 68.7998046875 -59 68.7998046875 -59 83.7998046875 -44.5 c 128,-1,26
 98.7998046875 -30 98.7998046875 -30 118.799804688 -30 c 0,27,28
 137.200195312 -30 137.200195312 -30 147.700195312 -53 c 128,-1,29
 158.200195312 -76 158.200195312 -76 163.599609375 -80 c 0,30,31
 176.799804688 -90 176.799804688 -90 219.400390625 -90 c 0,32,33
 274.599609375 -90 274.599609375 -90 288.400390625 -37 c 0,34,35
 294.400390625 -15 294.400390625 -15 294.400390625 27 c 2,36,-1
 294.400390625 49 l 1,37,-1
 294.400390625 74 l 1,38,39
 255.400390625 19 255.400390625 19 202.599609375 19 c 0,40,41
 142 19 142 19 86.900390625 90.5 c 128,-1,42
 31.7998046875 162 31.7998046875 162 31.7998046875 269 c 0,0,1
131.799804688 269 m 0,43,44
 131.799804688 205 131.799804688 205 149.799804688 162 c 128,-1,45
 167.799804688 119 167.799804688 119 202.599609375 119 c 0,46,47
 220 119 220 119 234.700195312 128.5 c 128,-1,48
 249.400390625 138 249.400390625 138 260.5 157 c 128,-1,49
 271.599609375 176 271.599609375 176 278.5 192 c 128,-1,50
 285.400390625 208 285.400390625 208 294.400390625 233 c 1,51,-1
 294.400390625 317 l 1,52,53
 269.200195312 433 269.200195312 433 217.599609375 439 c 1,54,-1
 209.799804688 439 l 2,55,56
 169.599609375 439 169.599609375 439 150.700195312 392.5 c 128,-1,57
 131.799804688 346 131.799804688 346 131.799804688 269 c 0,43,44
EndSplineSet
EndChar

StartChar: h
Encoding: 104 104 74
Width: 443
GlyphClass: 2
Flags: W
LayerCount: 2
Fore
SplineSet
43.7998046875 37 m 2,0,-1
 43.7998046875 723 l 2,1,2
 43.7998046875 744 43.7998046875 744 58.7998046875 758.5 c 128,-1,3
 73.7998046875 773 73.7998046875 773 93.7998046875 773 c 128,-1,4
 113.799804688 773 113.799804688 773 128.799804688 758 c 128,-1,5
 143.799804688 743 143.799804688 743 143.799804688 723 c 2,6,-1
 143.799804688 489 l 1,7,8
 179.799804688 539 179.799804688 539 228.400390625 539 c 0,9,10
 265 539 265 539 305.599609375 503.5 c 128,-1,11
 346.200195312 468 346.200195312 468 362.200195312 413 c 0,12,13
 372.200195312 376 372.200195312 376 372.200195312 286 c 2,14,-1
 372.200195312 37 l 2,15,16
 372.200195312 17 372.200195312 17 357.200195312 2 c 128,-1,17
 342.200195312 -13 342.200195312 -13 322.200195312 -13 c 128,-1,18
 302.200195312 -13 302.200195312 -13 287.200195312 2 c 128,-1,19
 272.200195312 17 272.200195312 17 272.200195312 37 c 2,20,-1
 272.200195312 286 l 1,21,-1
 272.200195312 298 l 2,22,23
 272.200195312 325 272.200195312 325 271.900390625 341 c 128,-1,24
 271.599609375 357 271.599609375 357 269.200195312 378 c 128,-1,25
 266.799804688 399 266.799804688 399 262.299804688 410.5 c 128,-1,26
 257.799804688 422 257.799804688 422 249.400390625 430.5 c 128,-1,27
 241 439 241 439 228.400390625 439 c 0,28,29
 198.400390625 439 198.400390625 439 178.900390625 408.5 c 128,-1,30
 159.400390625 378 159.400390625 378 143.799804688 329 c 1,31,-1
 143.799804688 37 l 2,32,33
 143.799804688 17 143.799804688 17 128.799804688 2 c 128,-1,34
 113.799804688 -13 113.799804688 -13 93.7998046875 -13 c 128,-1,35
 73.7998046875 -13 73.7998046875 -13 58.7998046875 1.5 c 128,-1,36
 43.7998046875 16 43.7998046875 16 43.7998046875 37 c 2,0,-1
EndSplineSet
EndChar

StartChar: i
Encoding: 105 105 75
Width: 372
GlyphClass: 2
Flags: W
LayerCount: 2
Fore
SplineSet
27.599609375 474 m 128,-1,1
 27.599609375 494 27.599609375 494 42.099609375 509 c 128,-1,2
 56.599609375 524 56.599609375 524 77.599609375 524 c 2,3,-1
 257.599609375 524 l 2,4,5
 278.599609375 524 278.599609375 524 293.099609375 509.5 c 128,-1,6
 307.599609375 495 307.599609375 495 307.599609375 474 c 2,7,-1
 307.599609375 37 l 2,8,9
 307.599609375 16 307.599609375 16 292.599609375 1.5 c 128,-1,10
 277.599609375 -13 277.599609375 -13 257.599609375 -13 c 128,-1,11
 237.599609375 -13 237.599609375 -13 222.599609375 2 c 128,-1,12
 207.599609375 17 207.599609375 17 207.599609375 37 c 2,13,-1
 207.599609375 424 l 1,14,-1
 77.599609375 424 l 2,15,16
 57.599609375 424 57.599609375 424 42.599609375 439 c 128,-1,0
 27.599609375 454 27.599609375 454 27.599609375 474 c 128,-1,1
165.599609375 677 m 2,17,-1
 165.599609375 723 l 2,18,19
 165.599609375 744 165.599609375 744 180.599609375 758.5 c 128,-1,20
 195.599609375 773 195.599609375 773 215.599609375 773 c 2,21,-1
 260.599609375 773 l 2,22,23
 280.599609375 773 280.599609375 773 295.599609375 758.5 c 128,-1,24
 310.599609375 744 310.599609375 744 310.599609375 723 c 2,25,-1
 310.599609375 677 l 2,26,27
 310.599609375 656 310.599609375 656 295.599609375 641.5 c 128,-1,28
 280.599609375 627 280.599609375 627 260.599609375 627 c 2,29,-1
 215.599609375 627 l 2,30,31
 195.599609375 627 195.599609375 627 180.599609375 641.5 c 128,-1,32
 165.599609375 656 165.599609375 656 165.599609375 677 c 2,17,-1
EndSplineSet
EndChar

StartChar: j
Encoding: 106 106 76
Width: 386
GlyphClass: 2
Flags: W
LayerCount: 2
Fore
SplineSet
20.400390625 -129 m 0,0,1
 20.400390625 -108 20.400390625 -108 34.900390625 -93.5 c 128,-1,2
 49.400390625 -79 49.400390625 -79 70.400390625 -79 c 2,3,-1
 75.400390625 -79 l 2,4,5
 103.400390625 -81 103.400390625 -81 117.400390625 -81 c 2,6,-1
 168.400390625 -79 l 2,7,8
 180.400390625 -78 180.400390625 -78 193.900390625 -63.5 c 128,-1,9
 207.400390625 -49 207.400390625 -49 213.400390625 -36 c 0,10,11
 223.400390625 -15 223.400390625 -15 223.400390625 57 c 2,12,-1
 223.400390625 424 l 1,13,-1
 127.400390625 424 l 2,14,15
 107.400390625 424 107.400390625 424 92.400390625 439 c 128,-1,16
 77.400390625 454 77.400390625 454 77.400390625 474 c 128,-1,17
 77.400390625 494 77.400390625 494 91.900390625 509 c 128,-1,18
 106.400390625 524 106.400390625 524 127.400390625 524 c 2,19,-1
 273.400390625 524 l 2,20,21
 294.400390625 524 294.400390625 524 308.900390625 509 c 128,-1,22
 323.400390625 494 323.400390625 494 323.400390625 474 c 2,23,-1
 323.400390625 57 l 1,24,-1
 323.400390625 44 l 2,25,26
 323.400390625 -40 323.400390625 -40 304.400390625 -79 c 0,27,28
 286.400390625 -116 286.400390625 -116 251.900390625 -145 c 128,-1,29
 217.400390625 -174 217.400390625 -174 178.400390625 -178 c 0,30,31
 125.400390625 -183 125.400390625 -183 109.400390625 -183 c 0,32,33
 20.400390625 -183 20.400390625 -183 20.400390625 -129 c 0,0,1
186.400390625 677 m 2,34,-1
 186.400390625 723 l 2,35,36
 186.400390625 744 186.400390625 744 201.400390625 758.5 c 128,-1,37
 216.400390625 773 216.400390625 773 236.400390625 773 c 2,38,-1
 281.400390625 773 l 2,39,40
 301.400390625 773 301.400390625 773 316.400390625 758.5 c 128,-1,41
 331.400390625 744 331.400390625 744 331.400390625 723 c 2,42,-1
 331.400390625 677 l 2,43,44
 331.400390625 656 331.400390625 656 316.400390625 641.5 c 128,-1,45
 301.400390625 627 301.400390625 627 281.400390625 627 c 2,46,-1
 236.400390625 627 l 2,47,48
 216.400390625 627 216.400390625 627 201.400390625 641.5 c 128,-1,49
 186.400390625 656 186.400390625 656 186.400390625 677 c 2,34,-1
EndSplineSet
EndChar

StartChar: k
Encoding: 107 107 77
Width: 438
GlyphClass: 2
Flags: W
LayerCount: 2
Fore
SplineSet
43.7998046875 37 m 2,0,-1
 43.7998046875 723 l 2,1,2
 43.7998046875 744 43.7998046875 744 58.7998046875 758.5 c 128,-1,3
 73.7998046875 773 73.7998046875 773 93.7998046875 773 c 128,-1,4
 113.799804688 773 113.799804688 773 128.799804688 758 c 128,-1,5
 143.799804688 743 143.799804688 743 143.799804688 723 c 2,6,-1
 143.799804688 344 l 1,7,-1
 145.599609375 344 l 1,8,-1
 265.200195312 521 l 2,9,10
 280.200195312 536 280.200195312 536 299.200195312 536 c 0,11,12
 319.200195312 536 319.200195312 536 334.200195312 521 c 128,-1,13
 349.200195312 506 349.200195312 506 349.200195312 486 c 0,14,15
 349.200195312 464 349.200195312 464 333.200195312 450 c 2,16,-1
 200.799804688 292 l 1,17,-1
 367.200195312 71 l 2,18,19
 380.200195312 56 380.200195312 56 380.200195312 37 c 0,20,21
 380.200195312 17 380.200195312 17 365.200195312 2 c 128,-1,22
 350.200195312 -13 350.200195312 -13 330.200195312 -13 c 0,23,24
 307.200195312 -13 307.200195312 -13 294.200195312 2 c 2,25,-1
 145.599609375 244 l 1,26,-1
 143.799804688 244 l 1,27,-1
 143.799804688 37 l 2,28,29
 143.799804688 17 143.799804688 17 128.799804688 2 c 128,-1,30
 113.799804688 -13 113.799804688 -13 93.7998046875 -13 c 128,-1,31
 73.7998046875 -13 73.7998046875 -13 58.7998046875 1.5 c 128,-1,32
 43.7998046875 16 43.7998046875 16 43.7998046875 37 c 2,0,-1
EndSplineSet
EndChar

StartChar: l
Encoding: 108 108 78
Width: 397
GlyphClass: 2
Flags: W
LayerCount: 2
Fore
SplineSet
38.400390625 228 m 2,0,-1
 44.400390625 722 l 2,1,2
 44.400390625 743 44.400390625 743 58.900390625 758 c 128,-1,3
 73.400390625 773 73.400390625 773 94.400390625 773 c 0,4,5
 114.400390625 773 114.400390625 773 129.400390625 758 c 128,-1,6
 144.400390625 743 144.400390625 743 144.400390625 722 c 2,7,-1
 137.400390625 228 l 2,8,9
 137.400390625 167 137.400390625 167 152.900390625 134 c 128,-1,10
 168.400390625 101 168.400390625 101 213.400390625 95 c 0,11,12
 227.400390625 93 227.400390625 93 291.400390625 93 c 0,13,14
 311.400390625 93 311.400390625 93 326.400390625 78 c 128,-1,15
 341.400390625 63 341.400390625 63 341.400390625 43 c 128,-1,16
 341.400390625 23 341.400390625 23 326.400390625 8 c 128,-1,17
 311.400390625 -7 311.400390625 -7 291.400390625 -7 c 0,18,19
 207.400390625 -7 207.400390625 -7 159.400390625 6.5 c 128,-1,20
 111.400390625 20 111.400390625 20 80.400390625 61 c 0,21,22
 38.400390625 117 38.400390625 117 38.400390625 228 c 2,0,-1
EndSplineSet
EndChar

StartChar: m
Encoding: 109 109 79
Width: 533
GlyphClass: 2
Flags: W
LayerCount: 2
Fore
SplineSet
42 37 m 2,0,-1
 42 486 l 2,1,2
 42 507 42 507 57 521.5 c 128,-1,3
 72 536 72 536 92 536 c 0,4,5
 118 536 118 536 133 513 c 1,6,7
 158.200195312 539 158.200195312 539 184 539 c 0,8,9
 232 539 232 539 271 492 c 1,10,11
 309.799804688 539 309.799804688 539 344 539 c 0,12,13
 388 539 388 539 425 498.5 c 128,-1,14
 462 458 462 458 462 404 c 2,15,-1
 462 37 l 2,16,17
 462 17 462 17 447 2 c 128,-1,18
 432 -13 432 -13 412 -13 c 128,-1,19
 392 -13 392 -13 377 1.5 c 128,-1,20
 362 16 362 16 362 37 c 2,21,-1
 362 396 l 2,22,23
 360.799804688 439 360.799804688 439 344 439 c 0,24,25
 326.599609375 439 326.599609375 439 314.299804688 395.5 c 128,-1,26
 302 352 302 352 302 315 c 2,27,-1
 302 37 l 2,28,29
 302 17 302 17 287 2 c 128,-1,30
 272 -13 272 -13 252 -13 c 128,-1,31
 232 -13 232 -13 217 1.5 c 128,-1,32
 202 16 202 16 202 37 c 2,33,-1
 202 396 l 2,34,35
 200.799804688 439 200.799804688 439 184 439 c 0,36,37
 166 439 166 439 154 395 c 128,-1,38
 142 351 142 351 142 315 c 2,39,-1
 142 37 l 2,40,41
 142 17 142 17 127 2 c 128,-1,42
 112 -13 112 -13 92 -13 c 128,-1,43
 72 -13 72 -13 57 1.5 c 128,-1,44
 42 16 42 16 42 37 c 2,0,-1
EndSplineSet
EndChar

StartChar: n
Encoding: 110 110 80
Width: 475
GlyphClass: 2
Flags: W
LayerCount: 2
Fore
SplineSet
42 37 m 2,0,-1
 42 486 l 2,1,2
 42 506 42 506 57 520.5 c 128,-1,3
 72 535 72 535 92 535 c 128,-1,4
 112 535 112 535 127 520.5 c 128,-1,5
 142 506 142 506 142 486 c 2,6,-1
 142 477 l 1,7,8
 184 539 184 539 240.400390625 539 c 0,9,10
 305.200195312 539 305.200195312 539 355.200195312 471.5 c 128,-1,11
 405.200195312 404 405.200195312 404 405.200195312 286 c 2,12,-1
 405.200195312 37 l 2,13,14
 405.200195312 17 405.200195312 17 390.200195312 2 c 128,-1,15
 375.200195312 -13 375.200195312 -13 355.200195312 -13 c 128,-1,16
 335.200195312 -13 335.200195312 -13 320.200195312 1.5 c 128,-1,17
 305.200195312 16 305.200195312 16 305.200195312 37 c 2,18,-1
 305.200195312 286 l 2,19,20
 305.200195312 362 305.200195312 362 291.700195312 400.5 c 128,-1,21
 278.200195312 439 278.200195312 439 240.400390625 439 c 0,22,23
 205 439 205 439 180.400390625 399.5 c 128,-1,24
 155.799804688 360 155.799804688 360 142 303 c 1,25,-1
 142 37 l 2,26,27
 142 17 142 17 127 2 c 128,-1,28
 112 -13 112 -13 92 -13 c 128,-1,29
 72 -13 72 -13 57 2 c 128,-1,30
 42 17 42 17 42 37 c 2,0,-1
EndSplineSet
EndChar

StartChar: o
Encoding: 111 111 81
Width: 469
GlyphClass: 2
Flags: W
LayerCount: 2
Fore
SplineSet
31.7998046875 263 m 0,0,1
 31.7998046875 386 31.7998046875 386 91.400390625 465 c 128,-1,2
 151 544 151 544 221.799804688 544 c 0,3,4
 290.799804688 544 290.799804688 544 351.299804688 464.5 c 128,-1,5
 411.799804688 385 411.799804688 385 411.799804688 263 c 0,6,7
 411.799804688 142 411.799804688 142 351.599609375 63 c 128,-1,8
 291.400390625 -16 291.400390625 -16 221.799804688 -16 c 0,9,10
 151.599609375 -16 151.599609375 -16 91.7001953125 62.5 c 128,-1,11
 31.7998046875 141 31.7998046875 141 31.7998046875 263 c 0,0,1
131.799804688 263 m 128,-1,13
 131.799804688 184 131.799804688 184 154.599609375 134 c 128,-1,14
 177.400390625 84 177.400390625 84 221.799804688 84 c 128,-1,15
 266.200195312 84 266.200195312 84 289 134 c 128,-1,16
 311.799804688 184 311.799804688 184 311.799804688 263 c 128,-1,17
 311.799804688 342 311.799804688 342 288.700195312 393 c 128,-1,18
 265.599609375 444 265.599609375 444 221.799804688 444 c 128,-1,19
 178 444 178 444 154.900390625 393 c 128,-1,12
 131.799804688 342 131.799804688 342 131.799804688 263 c 128,-1,13
EndSplineSet
EndChar

StartChar: p
Encoding: 112 112 82
Width: 480
GlyphClass: 2
Flags: W
LayerCount: 2
Fore
SplineSet
42 -134 m 2,0,-1
 42 486 l 2,1,2
 42 506 42 506 57 521 c 128,-1,3
 72 536 72 536 92 536 c 128,-1,4
 112 536 112 536 127 521.5 c 128,-1,5
 142 507 142 507 142 486 c 1,6,7
 181 539 181 539 229 539 c 0,8,9
 245.200195312 539 245.200195312 539 266.200195312 531 c 0,10,11
 323.400390625 509 323.400390625 509 369.400390625 438 c 128,-1,12
 415.400390625 367 415.400390625 367 415.400390625 257 c 0,13,14
 415.400390625 138 415.400390625 138 358.200195312 61 c 128,-1,15
 301 -16 301 -16 233.799804688 -16 c 2,16,-1
 223.599609375 -16 l 1,17,18
 178.599609375 -12 178.599609375 -12 142 38 c 1,19,-1
 142 -134 l 2,20,21
 142 -155 142 -155 127.5 -169.5 c 128,-1,22
 113 -184 113 -184 92 -184 c 128,-1,23
 71 -184 71 -184 56.5 -169 c 128,-1,24
 42 -154 42 -154 42 -134 c 2,0,-1
142 206 m 1,25,26
 179.200195312 84 179.200195312 84 230.200195312 84 c 0,27,28
 239.200195312 84 239.200195312 84 252.400390625 89 c 0,29,30
 315.400390625 116 315.400390625 116 315.400390625 257 c 0,31,32
 315.400390625 337 315.400390625 337 295.900390625 388.5 c 128,-1,33
 276.400390625 440 276.400390625 440 235 440 c 0,34,35
 233.799804688 440 233.799804688 440 231.400390625 439.5 c 128,-1,36
 229 439 229 439 227.200195312 439 c 0,37,38
 199 436 199 436 176.5 402.5 c 128,-1,39
 154 369 154 369 142 324 c 1,40,-1
 142 206 l 1,25,26
EndSplineSet
EndChar

StartChar: q
Encoding: 113 113 83
Width: 471
GlyphClass: 2
Flags: W
LayerCount: 2
Fore
SplineSet
32.400390625 257 m 0,0,1
 32.400390625 487 32.400390625 487 181 531 c 0,2,3
 202 539 202 539 218.200195312 539 c 0,4,5
 266.200195312 539 266.200195312 539 305.200195312 486 c 1,6,7
 305.200195312 506 305.200195312 506 320.200195312 521 c 128,-1,8
 335.200195312 536 335.200195312 536 355.200195312 536 c 128,-1,9
 375.200195312 536 375.200195312 536 390.200195312 521.5 c 128,-1,10
 405.200195312 507 405.200195312 507 405.200195312 486 c 2,11,-1
 405.200195312 -134 l 2,12,13
 405.200195312 -155 405.200195312 -155 390.700195312 -169.5 c 128,-1,14
 376.200195312 -184 376.200195312 -184 355.200195312 -184 c 128,-1,15
 334.200195312 -184 334.200195312 -184 319.700195312 -169 c 128,-1,16
 305.200195312 -154 305.200195312 -154 305.200195312 -134 c 2,17,-1
 305.200195312 37 l 1,18,19
 266.200195312 -16 266.200195312 -16 216.400390625 -16 c 0,20,21
 198.400390625 -16 198.400390625 -16 181 -9 c 0,22,23
 126.400390625 10 126.400390625 10 79.400390625 80.5 c 128,-1,24
 32.400390625 151 32.400390625 151 32.400390625 257 c 0,0,1
132.400390625 257 m 0,25,26
 132.400390625 186 132.400390625 186 153.099609375 134 c 128,-1,27
 173.799804688 82 173.799804688 82 209.799804688 82 c 0,28,29
 226 82 226 82 244.599609375 94 c 0,30,31
 284.799804688 122 284.799804688 122 305.200195312 203 c 1,32,-1
 305.200195312 322 l 1,33,34
 292 370 292 370 267.400390625 404.5 c 128,-1,35
 242.799804688 439 242.799804688 439 213.400390625 439 c 0,36,37
 191.799804688 439 191.799804688 439 169.599609375 417 c 0,38,39
 132.400390625 380 132.400390625 380 132.400390625 257 c 0,25,26
EndSplineSet
EndChar

StartChar: r
Encoding: 114 114 84
Width: 420
GlyphClass: 2
Flags: W
LayerCount: 2
Fore
SplineSet
42 37 m 2,0,-1
 42 486 l 2,1,2
 42 506 42 506 57 520.5 c 128,-1,3
 72 535 72 535 92 535 c 0,4,5
 113 535 113 535 127.5 521 c 128,-1,6
 142 507 142 507 142 486 c 1,7,8
 177.400390625 539 177.400390625 539 229 539 c 0,9,10
 274.200195312 539 274.200195312 539 315.200195312 499 c 128,-1,11
 356.200195312 459 356.200195312 459 357.200195312 401 c 0,12,13
 357.200195312 380 357.200195312 380 342.200195312 365 c 128,-1,14
 327.200195312 350 327.200195312 350 307.200195312 350 c 128,-1,15
 287.200195312 350 287.200195312 350 272.700195312 364.5 c 128,-1,16
 258.200195312 379 258.200195312 379 257.200195312 399 c 0,17,18
 257.200195312 429 257.200195312 429 238.599609375 436 c 0,19,20
 236.799804688 436 236.799804688 436 233.799804688 437.5 c 128,-1,21
 230.799804688 439 230.799804688 439 229 439 c 128,-1,22
 227.200195312 439 227.200195312 439 223 437.5 c 128,-1,23
 218.799804688 436 218.799804688 436 216.400390625 436 c 0,24,25
 182.200195312 428 182.200195312 428 162.099609375 375 c 128,-1,26
 142 322 142 322 142 261 c 2,27,-1
 142 37 l 2,28,29
 142 16 142 16 127 1.5 c 128,-1,30
 112 -13 112 -13 92 -13 c 128,-1,31
 72 -13 72 -13 57 2 c 128,-1,32
 42 17 42 17 42 37 c 2,0,-1
EndSplineSet
EndChar

StartChar: s
Encoding: 115 115 85
Width: 439
GlyphClass: 2
Flags: W
LayerCount: 2
Fore
SplineSet
34.2001953125 97 m 0,0,1
 34.2001953125 118 34.2001953125 118 49.2001953125 132.5 c 128,-1,2
 64.2001953125 147 64.2001953125 147 84.2001953125 147 c 0,3,4
 105.200195312 147 105.200195312 147 124.200195312 124 c 128,-1,5
 143.200195312 101 143.200195312 101 148 97 c 0,6,7
 168.400390625 81 168.400390625 81 199 81 c 0,8,9
 229 81 229 81 254.599609375 98 c 128,-1,10
 280.200195312 115 280.200195312 115 280.200195312 149 c 0,11,12
 280.200195312 166 280.200195312 166 268.099609375 178 c 128,-1,13
 256 190 256 190 249.400390625 194 c 128,-1,14
 242.799804688 198 242.799804688 198 229 204 c 0,15,16
 222.400390625 207 222.400390625 207 204.099609375 214.5 c 128,-1,17
 185.799804688 222 185.799804688 222 177.400390625 226 c 128,-1,18
 169 230 169 230 152.099609375 239 c 128,-1,19
 135.200195312 248 135.200195312 248 122.200195312 255.5 c 128,-1,20
 109.200195312 263 109.200195312 263 90.7001953125 277 c 128,-1,21
 72.2001953125 291 72.2001953125 291 63.2001953125 306 c 128,-1,22
 54.2001953125 321 54.2001953125 321 47.2001953125 342.5 c 128,-1,23
 40.2001953125 364 40.2001953125 364 40.2001953125 389 c 0,24,25
 40.2001953125 468 40.2001953125 468 95 506 c 128,-1,26
 149.799804688 544 149.799804688 544 202.599609375 544 c 2,27,-1
 221.200195312 544 l 2,28,29
 256 541 256 541 300.599609375 513 c 128,-1,30
 345.200195312 485 345.200195312 485 358.200195312 436 c 0,31,32
 360.200195312 426 360.200195312 426 360.200195312 423 c 0,33,34
 360.200195312 403 360.200195312 403 345.200195312 388 c 128,-1,35
 330.200195312 373 330.200195312 373 310.200195312 373 c 0,36,37
 292.200195312 373 292.200195312 373 278.700195312 383.5 c 128,-1,38
 265.200195312 394 265.200195312 394 261.200195312 410 c 0,39,40
 256.599609375 440 256.599609375 440 218.200195312 444 c 1,41,-1
 202.599609375 444 l 2,42,43
 185.200195312 444 185.200195312 444 173.5 441.5 c 128,-1,44
 161.799804688 439 161.799804688 439 151 426 c 128,-1,45
 140.200195312 413 140.200195312 413 140.200195312 389 c 0,46,47
 140.200195312 346 140.200195312 346 176.799804688 330 c 0,48,49
 185.799804688 326 185.799804688 326 205.900390625 318.5 c 128,-1,50
 226 311 226 311 237.099609375 305.5 c 128,-1,51
 248.200195312 300 248.200195312 300 273.200195312 290.5 c 128,-1,52
 298.200195312 281 298.200195312 281 314.200195312 269.5 c 128,-1,53
 330.200195312 258 330.200195312 258 347.700195312 241 c 128,-1,54
 365.200195312 224 365.200195312 224 372.700195312 201 c 128,-1,55
 380.200195312 178 380.200195312 178 380.200195312 149 c 0,56,57
 380.200195312 66 380.200195312 66 319.900390625 26 c 128,-1,58
 259.599609375 -14 259.599609375 -14 202.599609375 -16 c 2,59,-1
 196.599609375 -16 l 2,60,61
 94.2001953125 -16 94.2001953125 -16 40.2001953125 71 c 0,62,63
 34.2001953125 81 34.2001953125 81 34.2001953125 97 c 0,0,1
EndSplineSet
EndChar

StartChar: t
Encoding: 116 116 86
Width: 475
GlyphClass: 2
Flags: W
LayerCount: 2
Fore
SplineSet
27.599609375 477 m 128,-1,1
 27.599609375 497 27.599609375 497 42.599609375 512 c 128,-1,2
 57.599609375 527 57.599609375 527 77.599609375 527 c 2,3,-1
 153.799804688 527 l 1,4,-1
 155.799804688 628 l 2,5,6
 155.799804688 650 155.799804688 650 170.299804688 664 c 128,-1,7
 184.799804688 678 184.799804688 678 205.799804688 678 c 128,-1,8
 226.799804688 678 226.799804688 678 240 663 c 128,-1,9
 253.200195312 648 253.200195312 648 253.200195312 628 c 2,10,-1
 252 527 l 1,11,-1
 369.400390625 527 l 2,12,13
 389.400390625 527 389.400390625 527 404.400390625 512 c 128,-1,14
 419.400390625 497 419.400390625 497 419.400390625 477 c 128,-1,15
 419.400390625 457 419.400390625 457 404.400390625 442 c 128,-1,16
 389.400390625 427 389.400390625 427 369.400390625 427 c 2,17,-1
 250.799804688 427 l 1,18,-1
 248.799804688 199 l 2,19,20
 248.799804688 173 248.799804688 173 249.200195312 161 c 128,-1,21
 249.599609375 149 249.599609375 149 251.700195312 131.5 c 128,-1,22
 253.799804688 114 253.799804688 114 257.700195312 106.5 c 128,-1,23
 261.599609375 99 261.599609375 99 269.400390625 93 c 128,-1,24
 277.200195312 87 277.200195312 87 289.200195312 87 c 2,25,-1
 290.400390625 87 l 2,26,27
 300.400390625 87 300.400390625 87 327.900390625 97 c 128,-1,28
 355.400390625 107 355.400390625 107 369.400390625 107 c 0,29,30
 389.400390625 107 389.400390625 107 404.400390625 92 c 128,-1,31
 419.400390625 77 419.400390625 77 419.400390625 57 c 0,32,33
 419.400390625 22 419.400390625 22 381.400390625 4.5 c 128,-1,34
 343.400390625 -13 343.400390625 -13 294 -13 c 0,35,36
 266.400390625 -13 266.400390625 -13 244.799804688 -1 c 0,37,38
 192.799804688 19 192.799804688 19 170.799804688 66 c 128,-1,39
 148.799804688 113 148.799804688 113 148.799804688 189 c 2,40,-1
 148.799804688 201 l 1,41,-1
 151.799804688 427 l 1,42,-1
 77.599609375 427 l 2,43,44
 57.599609375 427 57.599609375 427 42.599609375 442 c 128,-1,0
 27.599609375 457 27.599609375 457 27.599609375 477 c 128,-1,1
EndSplineSet
EndChar

StartChar: u
Encoding: 117 117 87
Width: 469
GlyphClass: 2
Flags: W
LayerCount: 2
Fore
SplineSet
37.2001953125 242 m 2,0,-1
 37.2001953125 257 l 1,1,-1
 37.2001953125 486 l 2,2,3
 37.2001953125 506 37.2001953125 506 52.2001953125 521 c 128,-1,4
 67.2001953125 536 67.2001953125 536 86.2001953125 536 c 0,5,6
 106.200195312 536 106.200195312 536 121.700195312 521 c 128,-1,7
 137.200195312 506 137.200195312 506 137.200195312 486 c 2,8,-1
 137.200195312 257 l 2,9,10
 137.200195312 168 137.200195312 168 149.5 127 c 128,-1,11
 161.799804688 86 161.799804688 86 202 84 c 2,12,-1
 205 84 l 2,13,14
 241 84 241 84 264.700195312 125.5 c 128,-1,15
 288.400390625 167 288.400390625 167 300.400390625 227 c 1,16,-1
 300.400390625 486 l 2,17,18
 300.400390625 507 300.400390625 507 315.400390625 521.5 c 128,-1,19
 330.400390625 536 330.400390625 536 350.400390625 536 c 128,-1,20
 370.400390625 536 370.400390625 536 385.400390625 521 c 128,-1,21
 400.400390625 506 400.400390625 506 400.400390625 486 c 2,22,-1
 400.400390625 37 l 2,23,24
 400.400390625 17 400.400390625 17 385.400390625 2 c 128,-1,25
 370.400390625 -13 370.400390625 -13 350.400390625 -13 c 128,-1,26
 330.400390625 -13 330.400390625 -13 315.400390625 1.5 c 128,-1,27
 300.400390625 16 300.400390625 16 300.400390625 37 c 2,28,-1
 300.400390625 44 l 1,29,30
 259.599609375 -16 259.599609375 -16 203.200195312 -16 c 2,31,-1
 200.799804688 -16 l 2,32,33
 154.599609375 -15 154.599609375 -15 110.400390625 24 c 128,-1,34
 66.2001953125 63 66.2001953125 63 47.2001953125 130 c 0,35,36
 37.2001953125 168 37.2001953125 168 37.2001953125 242 c 2,0,-1
EndSplineSet
EndChar

StartChar: v
Encoding: 118 118 88
Width: 473
GlyphClass: 2
Flags: W
LayerCount: 2
Fore
SplineSet
28.2001953125 486 m 0,0,1
 28.2001953125 507 28.2001953125 507 43.2001953125 521.5 c 128,-1,2
 58.2001953125 536 58.2001953125 536 78.2001953125 536 c 0,3,4
 112.200195312 536 112.200195312 536 125.200195312 502 c 2,5,-1
 223.200195312 87 l 1,6,-1
 225.599609375 87 l 1,7,-1
 323.599609375 502 l 2,8,9
 327.599609375 516 327.599609375 516 341.099609375 526 c 128,-1,10
 354.599609375 536 354.599609375 536 370.599609375 536 c 0,11,12
 390.599609375 536 390.599609375 536 405.599609375 521 c 128,-1,13
 420.599609375 506 420.599609375 506 420.599609375 486 c 0,14,15
 420.599609375 477 420.599609375 477 417.599609375 469 c 2,16,-1
 274.799804688 20 l 2,17,18
 272.400390625 7 272.400390625 7 264 -3 c 128,-1,19
 255.599609375 -13 255.599609375 -13 246.599609375 -13 c 2,20,-1
 202.200195312 -13 l 2,21,22
 192.599609375 -13 192.599609375 -13 184.799804688 -3.5 c 128,-1,23
 177 6 177 6 174 20 c 2,24,-1
 31.2001953125 469 l 2,25,26
 28.2001953125 477 28.2001953125 477 28.2001953125 486 c 0,0,1
EndSplineSet
EndChar

StartChar: w
Encoding: 119 119 89
Width: 483
GlyphClass: 2
Flags: W
LayerCount: 2
Fore
SplineSet
31.7998046875 486 m 2,0,1
 31.7998046875 506 31.7998046875 506 47.2998046875 521 c 128,-1,2
 62.7998046875 536 62.7998046875 536 82.7998046875 536 c 0,3,4
 101.799804688 536 101.799804688 536 115.799804688 523 c 128,-1,5
 129.799804688 510 129.799804688 510 131.799804688 492 c 2,6,-1
 163.799804688 168 l 1,7,-1
 186 294 l 2,8,9
 188.400390625 309 188.400390625 309 196.5 319.5 c 128,-1,10
 204.599609375 330 204.599609375 330 214.799804688 330 c 2,11,-1
 242.400390625 330 l 2,12,13
 264.599609375 330 264.599609375 330 271.200195312 294 c 2,14,-1
 293.400390625 168 l 1,15,-1
 324.400390625 492 l 2,16,17
 327.400390625 510 327.400390625 510 341.400390625 523 c 128,-1,18
 355.400390625 536 355.400390625 536 374.400390625 536 c 0,19,20
 394.400390625 536 394.400390625 536 409.900390625 522 c 128,-1,21
 425.400390625 508 425.400390625 508 425.400390625 490 c 2,22,-1
 425.400390625 486 l 1,23,-1
 369.400390625 31 l 2,24,25
 367.400390625 13 367.400390625 13 353.400390625 0 c 128,-1,26
 339.400390625 -13 339.400390625 -13 320.400390625 -13 c 2,27,-1
 285 -13 l 2,28,29
 262.799804688 -13 262.799804688 -13 256.200195312 22 c 2,30,-1
 228.599609375 181 l 1,31,-1
 201 22 l 2,32,33
 193.200195312 -13 193.200195312 -13 172.799804688 -13 c 2,34,-1
 136.799804688 -13 l 2,35,36
 117.799804688 -13 117.799804688 -13 103.299804688 0 c 128,-1,37
 88.7998046875 13 88.7998046875 13 86.7998046875 31 c 2,38,-1
 31.7998046875 486 l 2,0,1
EndSplineSet
EndChar

StartChar: x
Encoding: 120 120 90
Width: 441
GlyphClass: 2
Flags: W
LayerCount: 2
Fore
SplineSet
32.400390625 37 m 0,0,1
 32.400390625 52 32.400390625 52 41.400390625 66 c 2,2,-1
 169.799804688 266 l 1,3,-1
 52.400390625 458 l 2,4,5
 44.400390625 471 44.400390625 471 44.400390625 486 c 0,6,7
 44.400390625 507 44.400390625 507 59.400390625 521.5 c 128,-1,8
 74.400390625 536 74.400390625 536 94.400390625 536 c 0,9,10
 120.400390625 536 120.400390625 536 130.400390625 522 c 2,11,-1
 210 347 l 1,12,-1
 289.599609375 522 l 2,13,14
 303.599609375 536 303.599609375 536 325.599609375 536 c 0,15,16
 345.599609375 536 345.599609375 536 360.599609375 521 c 128,-1,17
 375.599609375 506 375.599609375 506 375.599609375 486 c 0,18,19
 375.599609375 471 375.599609375 471 367.599609375 458 c 2,20,-1
 249.599609375 266 l 1,21,-1
 377.599609375 66 l 2,22,23
 387.599609375 51 387.599609375 51 387.599609375 37 c 0,24,25
 387.599609375 17 387.599609375 17 372.599609375 2 c 128,-1,26
 357.599609375 -13 357.599609375 -13 337.599609375 -13 c 0,27,28
 311.599609375 -13 311.599609375 -13 300.599609375 1 c 2,29,-1
 210 186 l 1,30,-1
 118.400390625 1 l 2,31,32
 105.400390625 -13 105.400390625 -13 82.400390625 -13 c 0,33,34
 62.400390625 -13 62.400390625 -13 47.400390625 2 c 128,-1,35
 32.400390625 17 32.400390625 17 32.400390625 37 c 0,0,1
EndSplineSet
EndChar

StartChar: y
Encoding: 121 121 91
Width: 475
GlyphClass: 2
Flags: W
LayerCount: 2
Fore
SplineSet
27.599609375 -131 m 0,0,1
 27.599609375 -110 27.599609375 -110 42.599609375 -95.5 c 128,-1,2
 57.599609375 -81 57.599609375 -81 77.599609375 -81 c 2,3,-1
 93.599609375 -81 l 2,4,5
 111.599609375 -81 111.599609375 -81 118.599609375 -68 c 2,6,-1
 195 130 l 1,7,-1
 34.599609375 461 l 2,8,9
 27.599609375 471 27.599609375 471 27.599609375 486 c 0,10,11
 27.599609375 507 27.599609375 507 42.599609375 521.5 c 128,-1,12
 57.599609375 536 57.599609375 536 77.599609375 536 c 0,13,14
 99.599609375 536 99.599609375 536 113.599609375 522 c 1,15,-1
 228.599609375 232 l 1,16,-1
 335.599609375 522 l 1,17,18
 351.599609375 536 351.599609375 536 373.599609375 536 c 0,19,20
 393.599609375 536 393.599609375 536 408.599609375 521 c 128,-1,21
 423.599609375 506 423.599609375 506 423.599609375 486 c 0,22,23
 423.599609375 471 423.599609375 471 417.599609375 461 c 2,24,-1
 183 -115 l 2,25,26
 174.599609375 -144 174.599609375 -144 152.599609375 -163.5 c 128,-1,27
 130.599609375 -183 130.599609375 -183 94.599609375 -183 c 0,28,29
 80.599609375 -183 80.599609375 -183 66.599609375 -180 c 0,30,31
 49.599609375 -176 49.599609375 -176 38.599609375 -162.5 c 128,-1,32
 27.599609375 -149 27.599609375 -149 27.599609375 -131 c 0,0,1
EndSplineSet
EndChar

StartChar: z
Encoding: 122 122 92
Width: 451
GlyphClass: 2
Flags: W
LayerCount: 2
Fore
SplineSet
35.400390625 49 m 2,0,-1
 35.400390625 84 l 2,1,2
 35.400390625 101 35.400390625 101 48.400390625 116 c 2,3,-1
 258 424 l 1,4,-1
 94.400390625 424 l 2,5,6
 74.400390625 424 74.400390625 424 59.400390625 438.5 c 128,-1,7
 44.400390625 453 44.400390625 453 44.400390625 474 c 128,-1,8
 44.400390625 495 44.400390625 495 58.900390625 509.5 c 128,-1,9
 73.400390625 524 73.400390625 524 94.400390625 524 c 2,10,-1
 322.400390625 524 l 2,11,12
 343.400390625 524 343.400390625 524 357.900390625 509.5 c 128,-1,13
 372.400390625 495 372.400390625 495 372.400390625 474 c 2,14,-1
 372.400390625 434 l 2,15,16
 372.400390625 415 372.400390625 415 358.400390625 401 c 2,17,-1
 162 99 l 1,18,-1
 345.400390625 99 l 2,19,20
 365.400390625 99 365.400390625 99 380.400390625 84 c 128,-1,21
 395.400390625 69 395.400390625 69 395.400390625 49 c 128,-1,22
 395.400390625 29 395.400390625 29 380.900390625 14 c 128,-1,23
 366.400390625 -1 366.400390625 -1 345.400390625 -1 c 2,24,-1
 85.400390625 -1 l 2,25,26
 64.400390625 -1 64.400390625 -1 49.900390625 14 c 128,-1,27
 35.400390625 29 35.400390625 29 35.400390625 49 c 2,0,-1
EndSplineSet
EndChar

StartChar: braceleft
Encoding: 123 123 93
Width: 517
GlyphClass: 2
Flags: W
LayerCount: 2
Fore
SplineSet
30 379 m 128,-1,1
 30 400 30 400 45 415 c 128,-1,2
 60 430 60 430 80 430 c 0,3,4
 158.400390625 430 158.400390625 430 171 455 c 0,5,6
 180.599609375 474 180.599609375 474 180.599609375 533 c 2,7,-1
 180.599609375 543 l 2,8,9
 180.599609375 644 180.599609375 644 219.599609375 698 c 0,10,11
 253.599609375 745 253.599609375 745 291.400390625 759 c 128,-1,12
 329.200195312 773 329.200195312 773 416 773 c 0,13,14
 436 773 436 773 451 758 c 128,-1,15
 466 743 466 743 466 723 c 128,-1,16
 466 703 466 703 451.5 688 c 128,-1,17
 437 673 437 673 416 673 c 2,18,-1
 382 673 l 2,19,20
 336.400390625 673 336.400390625 673 319 667 c 128,-1,21
 301.599609375 661 301.599609375 661 292 639 c 0,22,23
 280.599609375 614 280.599609375 614 280.599609375 543 c 0,24,25
 280.599609375 417 280.599609375 417 229.599609375 379 c 1,26,27
 280.599609375 328 280.599609375 328 280.599609375 229 c 0,28,29
 280.599609375 175 280.599609375 175 284.799804688 145.5 c 128,-1,30
 289 116 289 116 304 100 c 0,31,32
 316.599609375 87 316.599609375 87 416 87 c 0,33,34
 436 87 436 87 451 72 c 128,-1,35
 466 57 466 57 466 37 c 128,-1,36
 466 17 466 17 451 2 c 128,-1,37
 436 -13 436 -13 416 -13 c 0,38,39
 301 -13 301 -13 267.599609375 15 c 0,40,41
 180.599609375 67 180.599609375 67 180.599609375 229 c 0,42,43
 180.599609375 286 180.599609375 286 168 308 c 0,44,45
 154.799804688 330 154.799804688 330 80 330 c 0,46,47
 59 330 59 330 44.5 344 c 128,-1,0
 30 358 30 358 30 379 c 128,-1,1
EndSplineSet
EndChar

StartChar: bar
Encoding: 124 124 94
Width: 220
GlyphClass: 2
Flags: W
LayerCount: 2
Fore
SplineSet
45 -111 m 2,0,-1
 45 723 l 2,1,2
 45 744 45 744 60 758.5 c 128,-1,3
 75 773 75 773 95 773 c 128,-1,4
 115 773 115 773 130 758 c 128,-1,5
 145 743 145 743 145 723 c 2,6,-1
 145 -111 l 2,7,8
 145 -131 145 -131 130.5 -146 c 128,-1,9
 116 -161 116 -161 95 -161 c 128,-1,10
 74 -161 74 -161 59.5 -146.5 c 128,-1,11
 45 -132 45 -132 45 -111 c 2,0,-1
EndSplineSet
Substitution2: "'ss04' Style Set 4 in Latin lookup 4 subtable" bar.alt
AlternateSubs2: "'aalt' Access All Alternates in Latin lookup 0 subtable" bar bar.alt
EndChar

StartChar: braceright
Encoding: 125 125 95
Width: 516
GlyphClass: 2
Flags: W
LayerCount: 2
Fore
SplineSet
31.2001953125 37 m 128,-1,1
 31.2001953125 58 31.2001953125 58 46.2001953125 72.5 c 128,-1,2
 61.2001953125 87 61.2001953125 87 81.2001953125 87 c 2,3,-1
 114.200195312 87 l 2,4,5
 165 87 165 87 183.599609375 95.5 c 128,-1,6
 202.200195312 104 202.200195312 104 210 134 c 0,7,8
 216 158 216 158 216 229 c 0,9,10
 216 328 216 328 267 379 c 1,11,12
 216 417 216 417 216 543 c 0,13,14
 216 595 216 595 208.5 625.5 c 128,-1,15
 201 656 201 656 179.400390625 666 c 0,16,17
 166.799804688 673 166.799804688 673 81.2001953125 673 c 0,18,19
 60.2001953125 673 60.2001953125 673 45.7001953125 687.5 c 128,-1,20
 31.2001953125 702 31.2001953125 702 31.2001953125 723 c 128,-1,21
 31.2001953125 744 31.2001953125 744 46.2001953125 758.5 c 128,-1,22
 61.2001953125 773 61.2001953125 773 81.2001953125 773 c 0,23,24
 168 773 168 773 206 759 c 128,-1,25
 244 745 244 745 278 698 c 0,26,27
 316 646 316 646 316 543 c 0,28,29
 316 475 316 475 326.200195312 455 c 0,30,31
 338.799804688 430 338.799804688 430 413.200195312 430 c 2,32,-1
 417.200195312 430 l 2,33,34
 437.200195312 430 437.200195312 430 452.200195312 414.5 c 128,-1,35
 467.200195312 399 467.200195312 399 467.200195312 379 c 128,-1,36
 467.200195312 359 467.200195312 359 452.200195312 344.5 c 128,-1,37
 437.200195312 330 437.200195312 330 417.200195312 330 c 0,38,39
 342.400390625 330 342.400390625 330 329.200195312 308 c 128,-1,40
 316 286 316 286 316 229 c 0,41,42
 316 67 316 67 230 15 c 0,43,44
 197.400390625 -13 197.400390625 -13 81.2001953125 -13 c 0,45,46
 61.2001953125 -13 61.2001953125 -13 46.2001953125 1.5 c 128,-1,0
 31.2001953125 16 31.2001953125 16 31.2001953125 37 c 128,-1,1
EndSplineSet
EndChar

StartChar: exclamdown
Encoding: 161 161 96
Width: 608
GlyphClass: 2
Flags: W
LayerCount: 2
Fore
SplineSet
174 349 m 2,0,-1
 174 394 l 2,1,2
 174 414 174 414 188.5 429 c 128,-1,3
 203 444 203 444 224 444 c 2,4,-1
 270 444 l 2,5,6
 291 444 291 444 305.5 429 c 128,-1,7
 320 414 320 414 320 394 c 2,8,-1
 320 349 l 2,9,10
 320 329 320 329 305.5 314 c 128,-1,11
 291 299 291 299 270 299 c 2,12,-1
 224 299 l 2,13,14
 203 299 203 299 188.5 314 c 128,-1,15
 174 329 174 329 174 349 c 2,0,-1
197 -171 m 2,16,-1
 197 220 l 2,17,18
 197 241 197 241 212 255.5 c 128,-1,19
 227 270 227 270 247 270 c 128,-1,20
 267 270 267 270 282 255 c 128,-1,21
 297 240 297 240 297 220 c 2,22,-1
 297 -171 l 2,23,24
 297 -191 297 -191 282.5 -206 c 128,-1,25
 268 -221 268 -221 247 -221 c 128,-1,26
 226 -221 226 -221 211.5 -206.5 c 128,-1,27
 197 -192 197 -192 197 -171 c 2,16,-1
EndSplineSet
EndChar

StartChar: currency
Encoding: 164 164 97
Width: 586
GlyphClass: 2
Flags: W
LayerCount: 2
Fore
SplineSet
67.7998046875 180 m 128,-1,1
 67.7998046875 201 67.7998046875 201 81.7998046875 215 c 2,2,-1
 133.799804688 267 l 1,3,4
 101.799804688 320 101.799804688 320 101.799804688 380 c 128,-1,5
 101.799804688 440 101.799804688 440 133.799804688 493 c 1,6,-1
 81.7998046875 545 l 2,7,8
 67.7998046875 559 67.7998046875 559 67.7998046875 580 c 128,-1,9
 67.7998046875 601 67.7998046875 601 82.7998046875 615.5 c 128,-1,10
 97.7998046875 630 97.7998046875 630 117.799804688 630 c 0,11,12
 138.799804688 630 138.799804688 630 152.799804688 615 c 2,13,-1
 203 564 l 1,14,15
 234.799804688 596 234.799804688 596 271.400390625 596 c 0,16,17
 307.400390625 596 307.400390625 596 339.200195312 564 c 1,18,-1
 389 615 l 2,19,20
 404 630 404 630 425 630 c 0,21,22
 445 630 445 630 460 615 c 128,-1,23
 475 600 475 600 475 580 c 0,24,25
 475 558 475 558 460 545 c 2,26,-1
 408 493 l 1,27,28
 441 439 441 439 441 380 c 0,29,30
 441 319 441 319 408 267 c 1,31,-1
 460 215 l 2,32,33
 475 202 475 202 475 180 c 0,34,35
 475 160 475 160 460 145 c 128,-1,36
 445 130 445 130 425 130 c 0,37,38
 404 130 404 130 389 145 c 2,39,-1
 339.200195312 196 l 1,40,41
 308 164 308 164 271.400390625 164 c 128,-1,42
 234.799804688 164 234.799804688 164 203 196 c 1,43,-1
 152.799804688 145 l 2,44,45
 138.799804688 130 138.799804688 130 117.799804688 130 c 0,46,47
 97.7998046875 130 97.7998046875 130 82.7998046875 144.5 c 128,-1,0
 67.7998046875 159 67.7998046875 159 67.7998046875 180 c 128,-1,1
201.799804688 380 m 128,-1,49
 201.799804688 332 201.799804688 332 222.200195312 298 c 128,-1,50
 242.599609375 264 242.599609375 264 271.400390625 264 c 0,51,52
 299 264 299 264 320 298.5 c 128,-1,53
 341 333 341 333 341 380 c 0,54,55
 341 428 341 428 320.599609375 462 c 128,-1,56
 300.200195312 496 300.200195312 496 271.400390625 496 c 128,-1,57
 242.599609375 496 242.599609375 496 222.200195312 462 c 128,-1,48
 201.799804688 428 201.799804688 428 201.799804688 380 c 128,-1,49
EndSplineSet
EndChar

StartChar: section
Encoding: 167 167 98
Width: 564
GlyphClass: 2
Flags: W
LayerCount: 2
Fore
SplineSet
72.599609375 388 m 0,0,1
 72.599609375 450 72.599609375 450 124.599609375 502 c 1,2,3
 98.599609375 539 98.599609375 539 98.599609375 594 c 0,4,5
 98.599609375 681 98.599609375 681 152.03125 727 c 128,-1,6
 205.462890625 773 205.462890625 773 265.711914062 773 c 0,7,8
 311.354492188 773 311.354492188 773 353.676757812 740.5 c 128,-1,9
 396 708 396 708 415 650 c 0,10,11
 418 642 418 642 418 634 c 0,12,13
 418 614 418 614 403 599 c 128,-1,14
 388 584 388 584 368 584 c 0,15,16
 347 584 347 584 338.9140625 597 c 128,-1,17
 330.828125 610 330.828125 610 324.438476562 629 c 128,-1,18
 318.048828125 648 318.048828125 648 311.354492188 655 c 0,19,20
 295.53125 673 295.53125 673 265.711914062 673 c 0,21,22
 188.422851562 673 188.422851562 673 188.422851562 594 c 0,23,24
 188.422851562 573 188.422851562 573 194.508789062 559.5 c 128,-1,25
 200.594726562 546 200.594726562 546 213.982421875 539.5 c 128,-1,26
 227.37109375 533 227.37109375 533 237.108398438 530.5 c 128,-1,27
 246.845703125 528 246.845703125 528 265.711914062 526.5 c 128,-1,28
 284.577148438 525 284.577148438 525 290.0546875 524 c 0,29,30
 338.740234375 516 338.740234375 516 389.870117188 479 c 128,-1,31
 441 442 441 442 443 371 c 2,32,-1
 443 367 l 2,33,34
 443 312 443 312 404 268 c 1,35,36
 442 229 442 229 443 165 c 2,37,-1
 443 160 l 2,38,39
 443 75 443 75 384 32 c 128,-1,40
 325 -11 325 -11 266.799804688 -13 c 2,41,-1
 262 -13 l 2,42,43
 137.599609375 -13 137.599609375 -13 84.599609375 119 c 0,44,45
 81.599609375 128 81.599609375 128 81.599609375 136 c 0,46,47
 81.599609375 157 81.599609375 157 96.099609375 172 c 128,-1,48
 110.599609375 187 110.599609375 187 131.599609375 187 c 0,49,50
 164.599609375 187 164.599609375 187 178.599609375 155 c 0,51,52
 194.799804688 87 194.799804688 87 263.200195312 87 c 2,53,-1
 266.799804688 87 l 2,54,55
 343 89 343 89 343 165 c 0,56,57
 343 183 343 183 337.21875 195.5 c 128,-1,58
 331.4375 208 331.4375 208 323.830078125 215 c 128,-1,59
 316.22265625 222 316.22265625 222 302.833984375 226.5 c 128,-1,60
 289.4453125 231 289.4453125 231 280.317382812 232 c 128,-1,61
 271.188476562 233 271.188476562 233 255.365234375 234 c 128,-1,62
 239.54296875 235 239.54296875 235 234.065429688 236 c 0,63,64
 200.594726562 240 200.594726562 240 167.596679688 254.5 c 128,-1,65
 134.599609375 269 134.599609375 269 103.599609375 303 c 128,-1,66
 72.599609375 337 72.599609375 337 72.599609375 388 c 0,0,1
172.599609375 388 m 0,67,68
 172.599609375 371 172.599609375 371 180.51171875 359.5 c 128,-1,69
 188.422851562 348 188.422851562 348 203.333007812 342.5 c 128,-1,70
 218.243164062 337 218.243164062 337 230.71875 335 c 128,-1,71
 243.194335938 333 243.194335938 333 261.755859375 332 c 128,-1,72
 280.317382812 331 280.317382812 331 285.793945312 330 c 0,73,74
 307.703125 327 307.703125 327 322.916992188 320 c 1,75,76
 343 341 343 341 343 371 c 0,77,78
 343 391 343 391 332.045898438 403.5 c 128,-1,79
 321.091796875 416 321.091796875 416 310.44140625 419 c 128,-1,80
 299.791015625 422 299.791015625 422 283.360351562 424 c 0,81,82
 222.502929688 434 222.502929688 434 196.942382812 447 c 1,83,84
 172.599609375 420 172.599609375 420 172.599609375 388 c 0,67,68
EndSplineSet
EndChar

StartChar: dieresis
Encoding: 168 168 99
Width: 604
GlyphClass: 2
Flags: W
LayerCount: 2
Fore
SplineSet
136.200195312 323 m 2,0,-1
 136.200195312 380 l 2,1,2
 136.200195312 400 136.200195312 400 151.200195312 415 c 128,-1,3
 166.200195312 430 166.200195312 430 186.200195312 430 c 128,-1,4
 206.200195312 430 206.200195312 430 221.200195312 415 c 128,-1,5
 236.200195312 400 236.200195312 400 236.200195312 380 c 2,6,-1
 236.200195312 323 l 2,7,8
 236.200195312 303 236.200195312 303 221.700195312 288 c 128,-1,9
 207.200195312 273 207.200195312 273 186.200195312 273 c 128,-1,10
 165.200195312 273 165.200195312 273 150.700195312 288 c 128,-1,11
 136.200195312 303 136.200195312 303 136.200195312 323 c 2,0,-1
279.400390625 323 m 2,12,-1
 279.400390625 380 l 2,13,14
 279.400390625 401 279.400390625 401 294.400390625 415.5 c 128,-1,15
 309.400390625 430 309.400390625 430 329.400390625 430 c 128,-1,16
 349.400390625 430 349.400390625 430 364.400390625 415 c 128,-1,17
 379.400390625 400 379.400390625 400 379.400390625 380 c 2,18,-1
 379.400390625 323 l 2,19,20
 379.400390625 303 379.400390625 303 364.400390625 288 c 128,-1,21
 349.400390625 273 349.400390625 273 329.400390625 273 c 0,22,23
 308.400390625 273 308.400390625 273 293.900390625 287.5 c 128,-1,24
 279.400390625 302 279.400390625 302 279.400390625 323 c 2,12,-1
EndSplineSet
EndChar

StartChar: macron
Encoding: 175 175 100
Width: 580
GlyphClass: 2
Flags: W
LayerCount: 2
Fore
SplineSet
76.2001953125 586 m 128,-1,1
 76.2001953125 606 76.2001953125 606 91.2001953125 621 c 128,-1,2
 106.200195312 636 106.200195312 636 126.200195312 636 c 2,3,-1
 405.400390625 636 l 2,4,5
 425.400390625 636 425.400390625 636 440.400390625 621 c 128,-1,6
 455.400390625 606 455.400390625 606 455.400390625 586 c 128,-1,7
 455.400390625 566 455.400390625 566 440.400390625 551 c 128,-1,8
 425.400390625 536 425.400390625 536 405.400390625 536 c 2,9,-1
 126.200195312 536 l 2,10,11
 105.200195312 536 105.200195312 536 90.7001953125 551 c 128,-1,0
 76.2001953125 566 76.2001953125 566 76.2001953125 586 c 128,-1,1
EndSplineSet
EndChar

StartChar: acute
Encoding: 180 180 101
Width: 620
GlyphClass: 2
Flags: W
LayerCount: 2
Fore
SplineSet
187.799804688 551 m 0,0,1
 187.799804688 565 187.799804688 565 195.799804688 578 c 2,2,-1
 255.799804688 673 l 2,3,4
 268.799804688 687 268.799804688 687 291.799804688 687 c 0,5,6
 311.799804688 687 311.799804688 687 326.799804688 672 c 128,-1,7
 341.799804688 657 341.799804688 657 341.799804688 637 c 0,8,9
 341.799804688 623 341.799804688 623 333.799804688 610 c 2,10,-1
 273.799804688 515 l 1,11,12
 259.799804688 501 259.799804688 501 237.799804688 501 c 0,13,14
 217.799804688 501 217.799804688 501 202.799804688 515.5 c 128,-1,15
 187.799804688 530 187.799804688 530 187.799804688 551 c 0,0,1
EndSplineSet
EndChar

StartChar: cedilla
Encoding: 184 184 102
Width: 636
GlyphClass: 2
Flags: W
LayerCount: 2
Fore
SplineSet
180.599609375 11 m 2,0,1
 180.599609375 31 180.599609375 31 195.099609375 46 c 128,-1,2
 209.599609375 61 209.599609375 61 230.599609375 61 c 128,-1,3
 251.599609375 61 251.599609375 61 266.099609375 46.5 c 128,-1,4
 280.599609375 32 280.599609375 32 280.599609375 11 c 2,5,-1
 280.599609375 -43 l 1,6,7
 327.599609375 -57 327.599609375 -57 357.099609375 -96 c 128,-1,8
 386.599609375 -135 386.599609375 -135 386.599609375 -186 c 0,9,10
 386.599609375 -249 386.599609375 -249 342.599609375 -292.5 c 128,-1,11
 298.599609375 -336 298.599609375 -336 235.599609375 -336 c 2,12,-1
 228.599609375 -336 l 2,13,14
 208.599609375 -334 208.599609375 -334 194.599609375 -320 c 128,-1,15
 180.599609375 -306 180.599609375 -306 180.599609375 -286 c 128,-1,16
 180.599609375 -266 180.599609375 -266 195.099609375 -251 c 128,-1,17
 209.599609375 -236 209.599609375 -236 230.599609375 -236 c 2,18,-1
 233.599609375 -236 l 1,19,-1
 235.599609375 -236 l 2,20,21
 256.599609375 -236 256.599609375 -236 271.599609375 -221 c 128,-1,22
 286.599609375 -206 286.599609375 -206 286.599609375 -186 c 0,23,24
 286.599609375 -165 286.599609375 -165 272.099609375 -150.5 c 128,-1,25
 257.599609375 -136 257.599609375 -136 237.599609375 -136 c 2,26,-1
 233.599609375 -136 l 1,27,-1
 230.599609375 -136 l 2,28,29
 210.599609375 -136 210.599609375 -136 195.599609375 -121 c 128,-1,30
 180.599609375 -106 180.599609375 -106 180.599609375 -86 c 2,31,-1
 180.599609375 11 l 2,0,1
EndSplineSet
EndChar

StartChar: questiondown
Encoding: 191 191 103
Width: 667
GlyphClass: 2
Flags: W
LayerCount: 2
Fore
SplineSet
102 -32 m 2,0,1
 102 63 102 63 182 132 c 0,2,3
 186 135 186 135 201.5 147.5 c 128,-1,4
 217 160 217 160 223.5 166 c 128,-1,5
 230 172 230 172 237.5 183 c 128,-1,6
 245 194 245 194 245 203 c 2,7,-1
 245 286 l 2,8,9
 245 307 245 307 260 321.5 c 128,-1,10
 275 336 275 336 295 336 c 128,-1,11
 315 336 315 336 330 321 c 128,-1,12
 345 306 345 306 345 286 c 2,13,-1
 345 203 l 2,14,15
 345 191 345 191 343.5 180.5 c 128,-1,16
 342 170 342 170 337.5 160 c 128,-1,17
 333 150 333 150 330 142.5 c 128,-1,18
 327 135 327 135 318.5 125 c 128,-1,19
 310 115 310 115 306.5 110 c 128,-1,20
 303 105 303 105 292 95 c 128,-1,21
 281 85 281 85 278 82 c 128,-1,22
 275 79 275 79 262 68 c 128,-1,23
 249 57 249 57 247 56 c 0,24,25
 202 18 202 18 202 -36 c 2,26,-1
 202 -40 l 2,27,28
 203 -79 203 -79 233 -100 c 128,-1,29
 263 -121 263 -121 305 -121 c 0,30,31
 349 -121 349 -121 382.5 -98 c 128,-1,32
 416 -75 416 -75 416 -35 c 2,33,-1
 416 -31 l 1,34,-1
 416 -29 l 2,35,36
 416 -9 416 -9 430.5 6 c 128,-1,37
 445 21 445 21 466 21 c 0,38,39
 486 21 486 21 500 7.5 c 128,-1,40
 514 -6 514 -6 516 -26 c 2,41,-1
 516 -37 l 2,42,43
 516 -115 516 -115 456.5 -166.5 c 128,-1,44
 397 -218 397 -218 313 -221 c 2,45,-1
 304 -221 l 2,46,47
 219 -221 219 -221 163 -173 c 128,-1,48
 107 -125 107 -125 102 -46 c 1,49,-1
 102 -32 l 2,0,1
222 466 m 2,50,-1
 222 511 l 2,51,52
 222 531 222 531 236.5 546 c 128,-1,53
 251 561 251 561 272 561 c 2,54,-1
 318 561 l 2,55,56
 339 561 339 561 353.5 546 c 128,-1,57
 368 531 368 531 368 511 c 2,58,-1
 368 466 l 2,59,60
 368 446 368 446 353.5 431 c 128,-1,61
 339 416 339 416 318 416 c 2,62,-1
 272 416 l 2,63,64
 251 416 251 416 236.5 431 c 128,-1,65
 222 446 222 446 222 466 c 2,50,-1
EndSplineSet
EndChar

StartChar: Adieresis
Encoding: 196 196 104
Width: 559
GlyphClass: 2
Flags: W
LayerCount: 2
Fore
SplineSet
67.7998046875 666 m 2,0,-1
 67.7998046875 723 l 2,1,2
 67.7998046875 744 67.7998046875 744 82.7998046875 758.5 c 128,-1,3
 97.7998046875 773 97.7998046875 773 117.799804688 773 c 128,-1,4
 137.799804688 773 137.799804688 773 152.799804688 758 c 128,-1,5
 167.799804688 743 167.799804688 743 167.799804688 723 c 2,6,-1
 167.799804688 666 l 2,7,8
 167.799804688 646 167.799804688 646 153.299804688 631 c 128,-1,9
 138.799804688 616 138.799804688 616 117.799804688 616 c 128,-1,10
 96.7998046875 616 96.7998046875 616 82.2998046875 630.5 c 128,-1,11
 67.7998046875 645 67.7998046875 645 67.7998046875 666 c 2,0,-1
70.7998046875 40 m 0,12,13
 70.7998046875 50 70.7998046875 50 72.7998046875 54 c 2,14,-1
 222.400390625 680 l 2,15,16
 230.200195312 713 230.200195312 713 250.599609375 713 c 2,17,-1
 264.400390625 713 l 2,18,19
 274.599609375 713 274.599609375 713 282.400390625 702.5 c 128,-1,20
 290.200195312 692 290.200195312 692 293.200195312 677 c 2,21,-1
 442.799804688 54 l 2,22,23
 444.799804688 46 444.799804688 46 444.799804688 40 c 0,24,25
 444.799804688 20 444.799804688 20 429.799804688 5 c 128,-1,26
 414.799804688 -10 414.799804688 -10 394.799804688 -10 c 0,27,28
 378.799804688 -10 378.799804688 -10 365.299804688 0.5 c 128,-1,29
 351.799804688 11 351.799804688 11 347.799804688 26 c 2,30,-1
 326.799804688 143 l 1,31,-1
 190.599609375 152 l 1,32,-1
 167.799804688 26 l 2,33,34
 154.799804688 -10 154.799804688 -10 120.799804688 -10 c 0,35,36
 100.799804688 -10 100.799804688 -10 85.7998046875 4.5 c 128,-1,37
 70.7998046875 19 70.7998046875 19 70.7998046875 40 c 0,12,13
208 251 m 1,38,-1
 308.200195312 244 l 1,39,-1
 257.799804688 526 l 1,40,-1
 208 251 l 1,38,-1
347.799804688 666 m 2,41,-1
 347.799804688 723 l 2,42,43
 347.799804688 744 347.799804688 744 362.799804688 758.5 c 128,-1,44
 377.799804688 773 377.799804688 773 397.799804688 773 c 128,-1,45
 417.799804688 773 417.799804688 773 432.799804688 758 c 128,-1,46
 447.799804688 743 447.799804688 743 447.799804688 723 c 2,47,-1
 447.799804688 666 l 2,48,49
 447.799804688 646 447.799804688 646 433.299804688 631 c 128,-1,50
 418.799804688 616 418.799804688 616 397.799804688 616 c 128,-1,51
 376.799804688 616 376.799804688 616 362.299804688 630.5 c 128,-1,52
 347.799804688 645 347.799804688 645 347.799804688 666 c 2,41,-1
EndSplineSet
EndChar

StartChar: AE
Encoding: 198 198 105
Width: 507
GlyphClass: 2
Flags: W
LayerCount: 2
Fore
SplineSet
-33 39 m 1,0,-1
 112.799804688 667 l 2,1,2
 115.200195312 683 115.200195312 683 123.299804688 693.5 c 128,-1,3
 131.400390625 704 131.400390625 704 141.599609375 704 c 2,4,-1
 499.599609375 704 l 2,5,6
 520.599609375 704 520.599609375 704 535.099609375 689 c 128,-1,7
 549.599609375 674 549.599609375 674 549.599609375 654 c 128,-1,8
 549.599609375 634 549.599609375 634 534.599609375 619 c 128,-1,9
 519.599609375 604 519.599609375 604 499.599609375 604 c 2,10,-1
 222.599609375 604 l 1,11,-1
 252 416 l 1,12,-1
 499.599609375 416 l 2,13,14
 519.599609375 416 519.599609375 416 534.599609375 401 c 128,-1,15
 549.599609375 386 549.599609375 386 549.599609375 366 c 128,-1,16
 549.599609375 346 549.599609375 346 535.099609375 331 c 128,-1,17
 520.599609375 316 520.599609375 316 499.599609375 316 c 2,18,-1
 267 316 l 1,19,-1
 300.599609375 101 l 1,20,-1
 499.599609375 101 l 2,21,22
 520.599609375 101 520.599609375 101 535.099609375 86 c 128,-1,23
 549.599609375 71 549.599609375 71 549.599609375 51 c 128,-1,24
 549.599609375 31 549.599609375 31 534.599609375 16 c 128,-1,25
 519.599609375 1 519.599609375 1 499.599609375 1 c 2,26,-1
 277.799804688 1 l 2,27,28
 255 1 255 1 248.400390625 39 c 2,29,-1
 223.799804688 199 l 1,30,-1
 102 199 l 1,31,-1
 68 27 l 1,32,33
 54 -10 54 -10 19 -10 c 0,34,35
 -1 -10 -1 -10 -17 5 c 128,-1,36
 -33 20 -33 20 -33 39 c 1,0,-1
117.599609375 299 m 1,37,-1
 208.200195312 299 l 1,38,-1
 162.599609375 590 l 1,39,-1
 117.599609375 299 l 1,37,-1
EndSplineSet
EndChar

StartChar: Odieresis
Encoding: 214 214 106
Width: 565
GlyphClass: 2
Flags: W
LayerCount: 2
Fore
SplineSet
67.7998046875 666 m 2,0,-1
 67.7998046875 723 l 2,1,2
 67.7998046875 744 67.7998046875 744 82.7998046875 758.5 c 128,-1,3
 97.7998046875 773 97.7998046875 773 117.799804688 773 c 128,-1,4
 137.799804688 773 137.799804688 773 152.799804688 758 c 128,-1,5
 167.799804688 743 167.799804688 743 167.799804688 723 c 2,6,-1
 167.799804688 666 l 2,7,8
 167.799804688 646 167.799804688 646 153.299804688 631 c 128,-1,9
 138.799804688 616 138.799804688 616 117.799804688 616 c 128,-1,10
 96.7998046875 616 96.7998046875 616 82.2998046875 630.5 c 128,-1,11
 67.7998046875 645 67.7998046875 645 67.7998046875 666 c 2,0,-1
75.7998046875 303 m 0,12,13
 75.7998046875 415 75.7998046875 415 121.799804688 496.5 c 128,-1,14
 167.799804688 578 167.799804688 578 220.200195312 607 c 0,15,16
 238.200195312 618 238.200195312 618 261 618 c 0,17,18
 331.200195312 618 331.200195312 618 388.400390625 527 c 128,-1,19
 445.599609375 436 445.599609375 436 445.599609375 303 c 0,20,21
 445.599609375 122 445.599609375 122 341.400390625 35 c 0,22,23
 307.200195312 -13 307.200195312 -13 261 -13 c 0,24,25
 217.200195312 -13 217.200195312 -13 180.599609375 35 c 0,26,27
 75.7998046875 121 75.7998046875 121 75.7998046875 303 c 0,12,13
175.799804688 303 m 0,28,29
 175.799804688 146 175.799804688 146 231 99 c 0,30,31
 233.400390625 98 233.400390625 98 243.900390625 92.5 c 128,-1,32
 254.400390625 87 254.400390625 87 261 87 c 0,33,34
 303.599609375 87 303.599609375 87 324.599609375 151 c 128,-1,35
 345.599609375 215 345.599609375 215 345.599609375 303 c 0,36,37
 345.599609375 390 345.599609375 390 324.599609375 454.5 c 128,-1,38
 303.599609375 519 303.599609375 519 261 519 c 128,-1,39
 218.400390625 519 218.400390625 519 197.099609375 454.5 c 128,-1,40
 175.799804688 390 175.799804688 390 175.799804688 303 c 0,28,29
354.599609375 666 m 2,41,-1
 354.599609375 723 l 2,42,43
 354.599609375 744 354.599609375 744 369.599609375 758.5 c 128,-1,44
 384.599609375 773 384.599609375 773 404.599609375 773 c 128,-1,45
 424.599609375 773 424.599609375 773 439.599609375 758 c 128,-1,46
 454.599609375 743 454.599609375 743 454.599609375 723 c 2,47,-1
 454.599609375 666 l 2,48,49
 454.599609375 646 454.599609375 646 440.099609375 631 c 128,-1,50
 425.599609375 616 425.599609375 616 404.599609375 616 c 128,-1,51
 383.599609375 616 383.599609375 616 369.099609375 630.5 c 128,-1,52
 354.599609375 645 354.599609375 645 354.599609375 666 c 2,41,-1
EndSplineSet
EndChar

StartChar: Oslash
Encoding: 216 216 107
Width: 571
GlyphClass: 2
Flags: W
LayerCount: 2
Fore
SplineSet
52.2001953125 -20 m 0,0,1
 52.2001953125 -8 52.2001953125 -8 59.2001953125 6 c 2,2,-1
 133.200195312 129 l 1,3,4
 83.2001953125 228 83.2001953125 228 83.2001953125 355 c 0,5,6
 83.2001953125 455 83.2001953125 455 116.200195312 543 c 128,-1,7
 149.200195312 631 149.200195312 631 198 679 c 0,8,9
 229.799804688 721 229.799804688 721 269.400390625 721 c 0,10,11
 313.799804688 721 313.799804688 721 348 669 c 1,12,-1
 399.599609375 764 l 1,13,14
 415.599609375 778 415.599609375 778 436.599609375 778 c 0,15,16
 456.599609375 778 456.599609375 778 471.099609375 763.5 c 128,-1,17
 485.599609375 749 485.599609375 749 485.599609375 728 c 0,18,19
 485.599609375 713 485.599609375 713 478.599609375 703 c 2,20,-1
 406.599609375 582 l 1,21,22
 457.599609375 483 457.599609375 483 457.599609375 360 c 2,23,-1
 457.599609375 354 l 2,24,25
 456.599609375 265 456.599609375 265 429.599609375 183 c 128,-1,26
 402.599609375 101 402.599609375 101 358.799804688 44 c 128,-1,27
 315 -13 315 -13 269.400390625 -13 c 0,28,29
 225 -13 225 -13 190.799804688 41 c 1,30,-1
 145.200195312 -46 l 2,31,32
 128.200195312 -70 128.200195312 -70 102.200195312 -70 c 0,33,34
 82.2001953125 -70 82.2001953125 -70 67.2001953125 -55 c 128,-1,35
 52.2001953125 -40 52.2001953125 -40 52.2001953125 -20 c 0,0,1
181.200195312 354 m 2,36,37
 181.200195312 294 181.200195312 294 190.799804688 236 c 1,38,-1
 316.799804688 582 l 1,39,40
 296.400390625 621 296.400390625 621 269.400390625 621 c 0,41,42
 241.200195312 621 241.200195312 621 218.400390625 573 c 0,43,44
 181.200195312 492 181.200195312 492 181.200195312 359 c 2,45,-1
 181.200195312 354 l 2,36,37
222 127 m 1,46,47
 243 87 243 87 269.400390625 87 c 0,48,49
 291 87 291 87 308.700195312 113.5 c 128,-1,50
 326.400390625 140 326.400390625 140 336.599609375 181.5 c 128,-1,51
 346.799804688 223 346.799804688 223 352.200195312 268 c 128,-1,52
 357.599609375 313 357.599609375 313 357.599609375 354 c 0,53,54
 357.599609375 416 357.599609375 416 348 476 c 1,55,-1
 222 127 l 1,46,47
EndSplineSet
EndChar

StartChar: Udieresis
Encoding: 220 220 108
Width: 559
GlyphClass: 2
Flags: W
LayerCount: 2
Fore
SplineSet
67.7998046875 286 m 2,0,-1
 67.7998046875 537 l 2,1,2
 67.7998046875 558 67.7998046875 558 82.7998046875 572.5 c 128,-1,3
 97.7998046875 587 97.7998046875 587 117.799804688 587 c 128,-1,4
 137.799804688 587 137.799804688 587 152.799804688 572 c 128,-1,5
 167.799804688 557 167.799804688 557 167.799804688 537 c 2,6,-1
 167.799804688 286 l 2,7,8
 167.799804688 172 167.799804688 172 185.799804688 133 c 0,9,10
 207.400390625 87 207.400390625 87 257.799804688 87 c 0,11,12
 328.599609375 87 328.599609375 87 341.799804688 178 c 0,13,14
 347.799804688 217 347.799804688 217 347.799804688 286 c 2,15,-1
 347.799804688 537 l 2,16,17
 347.799804688 558 347.799804688 558 362.799804688 572.5 c 128,-1,18
 377.799804688 587 377.799804688 587 397.799804688 587 c 128,-1,19
 417.799804688 587 417.799804688 587 432.799804688 572 c 128,-1,20
 447.799804688 557 447.799804688 557 447.799804688 537 c 2,21,-1
 447.799804688 286 l 2,22,23
 447.799804688 -13 447.799804688 -13 257.799804688 -13 c 0,24,25
 178.599609375 -13 178.599609375 -13 123.200195312 64 c 128,-1,26
 67.7998046875 141 67.7998046875 141 67.7998046875 286 c 2,0,-1
67.7998046875 723 m 128,-1,28
 67.7998046875 744 67.7998046875 744 82.7998046875 758.5 c 128,-1,29
 97.7998046875 773 97.7998046875 773 117.799804688 773 c 2,30,-1
 167.799804688 773 l 2,31,32
 180.400390625 773 180.400390625 773 189.400390625 758.5 c 128,-1,33
 198.400390625 744 198.400390625 744 198.400390625 723 c 128,-1,34
 198.400390625 702 198.400390625 702 189.700195312 687.5 c 128,-1,35
 181 673 181 673 167.799804688 673 c 2,36,-1
 117.799804688 673 l 2,37,38
 96.7998046875 673 96.7998046875 673 82.2998046875 687.5 c 128,-1,27
 67.7998046875 702 67.7998046875 702 67.7998046875 723 c 128,-1,28
316.599609375 723 m 128,-1,40
 316.599609375 743 316.599609375 743 325.599609375 758 c 128,-1,41
 334.599609375 773 334.599609375 773 346.599609375 773 c 2,42,-1
 397.799804688 773 l 2,43,44
 417.799804688 773 417.799804688 773 432.799804688 758 c 128,-1,45
 447.799804688 743 447.799804688 743 447.799804688 723 c 128,-1,46
 447.799804688 703 447.799804688 703 433.299804688 688 c 128,-1,47
 418.799804688 673 418.799804688 673 397.799804688 673 c 2,48,-1
 346.599609375 673 l 2,49,50
 334 673 334 673 325.299804688 688 c 128,-1,39
 316.599609375 703 316.599609375 703 316.599609375 723 c 128,-1,40
EndSplineSet
EndChar

StartChar: germandbls
Encoding: 223 223 109
Width: 567
GlyphClass: 2
Flags: W
LayerCount: 2
Fore
SplineSet
81.599609375 37 m 2,0,-1
 81.599609375 457 l 2,1,2
 81.599609375 515 81.599609375 515 87.599609375 559.5 c 128,-1,3
 93.599609375 604 93.599609375 604 108.599609375 645 c 128,-1,4
 123.599609375 686 123.599609375 686 149.099609375 712.5 c 128,-1,5
 174.599609375 739 174.599609375 739 200 754.5 c 128,-1,6
 225.400390625 770 225.400390625 770 257.799804688 770 c 0,7,8
 317.200195312 770 317.200195312 770 370.5 715 c 128,-1,9
 423.799804688 660 423.799804688 660 424.799804688 567 c 2,10,-1
 424.799804688 564 l 2,11,12
 424.799804688 470 424.799804688 470 355.799804688 409 c 1,13,14
 398.799804688 380 398.799804688 380 422.299804688 326 c 128,-1,15
 445.799804688 272 445.799804688 272 445.799804688 210 c 0,16,17
 445.799804688 122 445.799804688 122 400.799804688 58.5 c 128,-1,18
 355.799804688 -5 355.799804688 -5 302.799804688 -7 c 0,19,20
 290.799804688 -7 290.799804688 -7 281.5 8.5 c 128,-1,21
 272.200195312 24 272.200195312 24 272.200195312 43 c 128,-1,22
 272.200195312 62 272.200195312 62 280.900390625 77 c 128,-1,23
 289.599609375 92 289.599609375 92 301 93 c 0,24,25
 324.400390625 94 324.400390625 94 336.099609375 129 c 128,-1,26
 347.799804688 164 347.799804688 164 347.799804688 212 c 2,27,-1
 347.799804688 216 l 2,28,29
 347.200195312 270 347.200195312 270 331.299804688 305.5 c 128,-1,30
 315.400390625 341 315.400390625 341 284.799804688 341 c 2,31,-1
 283.599609375 341 l 1,32,-1
 281.799804688 341 l 1,33,-1
 280.599609375 341 l 2,34,35
 269.200195312 341 269.200195312 341 260.5 356 c 128,-1,36
 251.799804688 371 251.799804688 371 251.799804688 391 c 2,37,-1
 251.799804688 409 l 2,38,39
 251.799804688 428 251.799804688 428 259.599609375 441.5 c 128,-1,40
 267.400390625 455 267.400390625 455 278.799804688 457 c 0,41,42
 301.599609375 459 301.599609375 459 317.799804688 490.5 c 128,-1,43
 334 522 334 522 334 565 c 0,44,45
 334 616 334 616 313 643 c 128,-1,46
 292 670 292 670 257.799804688 670 c 0,47,48
 236.799804688 670 236.799804688 670 222.400390625 658.5 c 128,-1,49
 208 647 208 647 199.900390625 630 c 128,-1,50
 191.799804688 613 191.799804688 613 187.599609375 582 c 128,-1,51
 183.400390625 551 183.400390625 551 182.5 525 c 128,-1,52
 181.599609375 499 181.599609375 499 181.599609375 457 c 2,53,-1
 181.599609375 37 l 2,54,55
 181.599609375 17 181.599609375 17 166.599609375 2 c 128,-1,56
 151.599609375 -13 151.599609375 -13 131.599609375 -13 c 128,-1,57
 111.599609375 -13 111.599609375 -13 96.599609375 1.5 c 128,-1,58
 81.599609375 16 81.599609375 16 81.599609375 37 c 2,0,-1
EndSplineSet
EndChar

StartChar: adieresis
Encoding: 228 228 110
Width: 564
GlyphClass: 2
Flags: W
LayerCount: 2
Fore
SplineSet
76.2001953125 154 m 0,0,1
 76.2001953125 196 76.2001953125 196 89.2001953125 227.5 c 128,-1,2
 102.200195312 259 102.200195312 259 128.700195312 278.5 c 128,-1,3
 155.200195312 298 155.200195312 298 177.099609375 310.5 c 128,-1,4
 199 323 199 323 225.400390625 329 c 128,-1,5
 251.799804688 335 251.799804688 335 273.400390625 337 c 128,-1,6
 295 339 295 339 325.599609375 339 c 1,7,8
 322 398 322 398 307.599609375 420 c 0,9,10
 292.599609375 444 292.599609375 444 257.799804688 444 c 0,11,12
 220.599609375 444 220.599609375 444 192.400390625 406 c 0,13,14
 184.599609375 396 184.599609375 396 172.200195312 396 c 0,15,16
 151.200195312 396 151.200195312 396 136.700195312 410.5 c 128,-1,17
 122.200195312 425 122.200195312 425 122.200195312 446 c 0,18,19
 122.200195312 471 122.200195312 471 141.200195312 485 c 0,20,21
 204.400390625 544 204.400390625 544 257.799804688 544 c 0,22,23
 316 544 316 544 363.599609375 494 c 0,24,25
 425.599609375 435 425.599609375 435 425.599609375 347 c 2,26,-1
 425.599609375 37 l 2,27,28
 425.599609375 17 425.599609375 17 410.599609375 2 c 128,-1,29
 395.599609375 -13 395.599609375 -13 375.599609375 -13 c 128,-1,30
 355.599609375 -13 355.599609375 -13 340.599609375 1.5 c 128,-1,31
 325.599609375 16 325.599609375 16 325.599609375 37 c 2,32,-1
 325.599609375 45 l 1,33,34
 282.400390625 -17 282.400390625 -17 231.400390625 -17 c 0,35,36
 230.200195312 -17 230.200195312 -17 226.599609375 -16.5 c 128,-1,37
 223 -16 223 -16 221.200195312 -16 c 0,38,39
 180.400390625 -11 180.400390625 -11 128.299804688 36 c 128,-1,40
 76.2001953125 83 76.2001953125 83 76.2001953125 154 c 0,0,1
176.200195312 154 m 0,41,42
 176.200195312 124 176.200195312 124 192.099609375 105 c 128,-1,43
 208 86 208 86 225.400390625 84 c 2,44,-1
 230.200195312 84 l 2,45,46
 283 84 283 84 325.599609375 200 c 1,47,-1
 325.599609375 240 l 1,48,49
 299.200195312 242 299.200195312 242 284.200195312 242 c 0,50,51
 176.200195312 242 176.200195312 242 176.200195312 154 c 0,41,42
176.200195312 608 m 2,52,-1
 176.200195312 666 l 2,53,54
 176.200195312 686 176.200195312 686 185.200195312 701 c 128,-1,55
 194.200195312 716 194.200195312 716 206.200195312 716 c 128,-1,56
 218.200195312 716 218.200195312 716 227.200195312 701 c 128,-1,57
 236.200195312 686 236.200195312 686 236.200195312 666 c 2,58,-1
 236.200195312 608 l 2,59,60
 236.200195312 588 236.200195312 588 227.200195312 573.5 c 128,-1,61
 218.200195312 559 218.200195312 559 206.200195312 559 c 128,-1,62
 194.200195312 559 194.200195312 559 185.200195312 573.5 c 128,-1,63
 176.200195312 588 176.200195312 588 176.200195312 608 c 2,52,-1
279.400390625 608 m 2,64,-1
 279.400390625 666 l 2,65,66
 279.400390625 687 279.400390625 687 288.400390625 701.5 c 128,-1,67
 297.400390625 716 297.400390625 716 309.400390625 716 c 128,-1,68
 321.400390625 716 321.400390625 716 335 701 c 128,-1,69
 348.599609375 686 348.599609375 686 348.599609375 666 c 2,70,-1
 348.599609375 608 l 2,71,72
 348.599609375 588 348.599609375 588 335 573.5 c 128,-1,73
 321.400390625 559 321.400390625 559 309.400390625 559 c 0,74,75
 296.799804688 559 296.799804688 559 288.099609375 573.5 c 128,-1,76
 279.400390625 588 279.400390625 588 279.400390625 608 c 2,64,-1
EndSplineSet
EndChar

StartChar: ae
Encoding: 230 230 111
Width: 507
GlyphClass: 2
Flags: W
LayerCount: 2
Fore
SplineSet
-21.599609375 154 m 0,0,1
 -21.599609375 195 -21.599609375 195 -8.599609375 226.5 c 128,-1,2
 4.400390625 258 4.400390625 258 30.900390625 277.5 c 128,-1,3
 57.400390625 297 57.400390625 297 79.2998046875 310 c 128,-1,4
 101.200195312 323 101.200195312 323 127.599609375 329 c 128,-1,5
 154 335 154 335 175.599609375 337 c 128,-1,6
 197.200195312 339 197.200195312 339 227.799804688 339 c 1,7,8
 225.400390625 396 225.400390625 396 209.799804688 420 c 0,9,10
 194.799804688 444 194.799804688 444 160 444 c 0,11,12
 122.799804688 444 122.799804688 444 94.599609375 406 c 0,13,14
 86.7998046875 396 86.7998046875 396 74.400390625 396 c 0,15,16
 53.400390625 396 53.400390625 396 38.900390625 411 c 128,-1,17
 24.400390625 426 24.400390625 426 24.400390625 446 c 0,18,19
 24.400390625 471 24.400390625 471 43.400390625 485 c 0,20,21
 101.200195312 544 101.200195312 544 160 544 c 0,22,23
 193 544 193 544 221.200195312 524 c 128,-1,24
 249.400390625 504 249.400390625 504 265 466 c 1,25,26
 303.400390625 541 303.400390625 541 368.799804688 544 c 2,27,-1
 372.400390625 544 l 2,28,29
 439.400390625 544 439.400390625 544 498.900390625 472.5 c 128,-1,30
 558.400390625 401 558.400390625 401 558.400390625 286 c 0,31,32
 558.400390625 265 558.400390625 265 543.900390625 250.5 c 128,-1,33
 529.400390625 236 529.400390625 236 508.400390625 236 c 2,34,-1
 289 236 l 1,35,36
 293.200195312 165 293.200195312 165 315.099609375 124 c 128,-1,37
 337 83 337 83 377.799804688 83 c 0,38,39
 388 83 388 83 398.799804688 86 c 0,40,41
 421 93 421 93 427.599609375 108 c 1,42,-1
 427.599609375 110 l 1,43,44
 437.200195312 124 437.200195312 124 457.799804688 124 c 128,-1,45
 478.400390625 124 478.400390625 124 493.400390625 109 c 128,-1,46
 508.400390625 94 508.400390625 94 508.400390625 74 c 0,47,48
 508.400390625 28 508.400390625 28 465.599609375 6.5 c 128,-1,49
 422.799804688 -15 422.799804688 -15 382.599609375 -15 c 0,50,51
 349.599609375 -15 349.599609375 -15 325 -2 c 0,52,53
 302.200195312 11 302.200195312 11 287.799804688 30 c 1,54,55
 286 12 286 12 277.599609375 -0.5 c 128,-1,56
 269.200195312 -13 269.200195312 -13 257.799804688 -13 c 0,57,58
 245.799804688 -13 245.799804688 -13 236.799804688 1.5 c 128,-1,59
 227.799804688 16 227.799804688 16 227.799804688 37 c 2,60,-1
 227.799804688 46 l 1,61,62
 184 -17 184 -17 133.599609375 -17 c 0,63,64
 132.400390625 -17 132.400390625 -17 128.799804688 -16.5 c 128,-1,65
 125.200195312 -16 125.200195312 -16 123.400390625 -16 c 0,66,67
 82.599609375 -11 82.599609375 -11 30.5 36 c 128,-1,68
 -21.599609375 83 -21.599609375 83 -21.599609375 154 c 0,0,1
78.400390625 154 m 0,69,70
 78.400390625 124 78.400390625 124 94.2998046875 105 c 128,-1,71
 110.200195312 86 110.200195312 86 128.200195312 84 c 2,72,-1
 134.200195312 84 l 2,73,74
 184.599609375 84 184.599609375 84 227.799804688 200 c 1,75,-1
 227.799804688 240 l 1,76,77
 201.400390625 242 201.400390625 242 186.400390625 242 c 0,78,79
 78.400390625 242 78.400390625 242 78.400390625 154 c 0,69,70
292 336 m 1,80,-1
 452.400390625 336 l 1,81,82
 440.400390625 391 440.400390625 391 423.200195312 417.5 c 128,-1,83
 406 444 406 444 368.799804688 444 c 0,84,85
 338.799804688 444 338.799804688 444 319.299804688 414.5 c 128,-1,86
 299.799804688 385 299.799804688 385 292 336 c 1,80,-1
EndSplineSet
EndChar

StartChar: odieresis
Encoding: 246 246 112
Width: 559
GlyphClass: 2
Flags: W
LayerCount: 2
Fore
SplineSet
67.7998046875 263 m 0,0,1
 67.7998046875 386 67.7998046875 386 127.400390625 465 c 128,-1,2
 187 544 187 544 257.799804688 544 c 0,3,4
 326.799804688 544 326.799804688 544 387.299804688 464.5 c 128,-1,5
 447.799804688 385 447.799804688 385 447.799804688 263 c 0,6,7
 447.799804688 142 447.799804688 142 387.599609375 63 c 128,-1,8
 327.400390625 -16 327.400390625 -16 257.799804688 -16 c 0,9,10
 187.599609375 -16 187.599609375 -16 127.700195312 62.5 c 128,-1,11
 67.7998046875 141 67.7998046875 141 67.7998046875 263 c 0,0,1
167.799804688 263 m 128,-1,13
 167.799804688 184 167.799804688 184 190.599609375 134 c 128,-1,14
 213.400390625 84 213.400390625 84 257.799804688 84 c 128,-1,15
 302.200195312 84 302.200195312 84 325 134 c 128,-1,16
 347.799804688 184 347.799804688 184 347.799804688 263 c 128,-1,17
 347.799804688 342 347.799804688 342 324.700195312 393 c 128,-1,18
 301.599609375 444 301.599609375 444 257.799804688 444 c 128,-1,19
 214 444 214 444 190.900390625 393 c 128,-1,12
 167.799804688 342 167.799804688 342 167.799804688 263 c 128,-1,13
176.200195312 608 m 2,20,-1
 176.200195312 666 l 2,21,22
 176.200195312 686 176.200195312 686 185.200195312 701 c 128,-1,23
 194.200195312 716 194.200195312 716 206.200195312 716 c 128,-1,24
 218.200195312 716 218.200195312 716 227.200195312 701 c 128,-1,25
 236.200195312 686 236.200195312 686 236.200195312 666 c 2,26,-1
 236.200195312 608 l 2,27,28
 236.200195312 588 236.200195312 588 227.200195312 573.5 c 128,-1,29
 218.200195312 559 218.200195312 559 206.200195312 559 c 128,-1,30
 194.200195312 559 194.200195312 559 185.200195312 573.5 c 128,-1,31
 176.200195312 588 176.200195312 588 176.200195312 608 c 2,20,-1
278.799804688 608 m 2,32,-1
 278.799804688 666 l 2,33,34
 278.799804688 686 278.799804688 686 287.799804688 701 c 128,-1,35
 296.799804688 716 296.799804688 716 308.799804688 716 c 128,-1,36
 320.799804688 716 320.799804688 716 330.099609375 701 c 128,-1,37
 339.400390625 686 339.400390625 686 339.400390625 666 c 2,38,-1
 339.400390625 608 l 2,39,40
 339.400390625 588 339.400390625 588 330.099609375 573.5 c 128,-1,41
 320.799804688 559 320.799804688 559 308.799804688 559 c 128,-1,42
 296.799804688 559 296.799804688 559 287.799804688 573.5 c 128,-1,43
 278.799804688 588 278.799804688 588 278.799804688 608 c 2,32,-1
EndSplineSet
EndChar

StartChar: oslash
Encoding: 248 248 113
Width: 576
GlyphClass: 2
Flags: W
LayerCount: 2
Fore
SplineSet
42 -23 m 0,0,1
 42 -4 42 -4 54 9 c 2,2,-1
 127 96 l 1,3,4
 85 165 85 165 85 263 c 0,5,6
 85 386 85 386 144.599609375 465 c 128,-1,7
 204.200195312 544 204.200195312 544 275 544 c 0,8,9
 321.799804688 544 321.799804688 544 356.599609375 505 c 1,10,-1
 422 587 l 2,11,12
 438 601 438 601 458 601 c 0,13,14
 479 601 479 601 493.5 586 c 128,-1,15
 508 571 508 571 508 551 c 0,16,17
 508 534 508 534 496 519 c 2,18,-1
 422 431 l 1,19,20
 465 360 465 360 465 263 c 0,21,22
 465 142 465 142 404.799804688 63 c 128,-1,23
 344.599609375 -16 344.599609375 -16 275 -16 c 0,24,25
 227 -16 227 -16 191.599609375 23 c 1,26,-1
 127 -58 l 2,27,28
 114 -73 114 -73 92 -73 c 0,29,30
 72 -73 72 -73 57 -58 c 128,-1,31
 42 -43 42 -43 42 -23 c 0,0,1
185 263 m 0,32,33
 185 216 185 216 192.799804688 180 c 1,34,-1
 318.200195312 427 l 1,35,36
 299.599609375 444 299.599609375 444 275 444 c 0,37,38
 231.200195312 444 231.200195312 444 208.099609375 393 c 128,-1,39
 185 342 185 342 185 263 c 0,32,33
231.200195312 101 m 1,40,41
 249.799804688 84 249.799804688 84 275 84 c 0,42,43
 319.400390625 84 319.400390625 84 342.200195312 134 c 128,-1,44
 365 184 365 184 365 263 c 0,45,46
 365 309 365 309 356.599609375 348 c 1,47,-1
 231.200195312 101 l 1,40,41
EndSplineSet
EndChar

StartChar: udieresis
Encoding: 252 252 114
Width: 564
GlyphClass: 2
Flags: W
LayerCount: 2
Fore
SplineSet
76.2001953125 242 m 2,0,-1
 76.2001953125 257 l 1,1,-1
 76.2001953125 486 l 2,2,3
 76.2001953125 506 76.2001953125 506 91.2001953125 521 c 128,-1,4
 106.200195312 536 106.200195312 536 125.200195312 536 c 0,5,6
 145.200195312 536 145.200195312 536 160.700195312 521 c 128,-1,7
 176.200195312 506 176.200195312 506 176.200195312 486 c 2,8,-1
 176.200195312 257 l 2,9,10
 176.200195312 168 176.200195312 168 188.5 127 c 128,-1,11
 200.799804688 86 200.799804688 86 241 84 c 2,12,-1
 244 84 l 2,13,14
 280 84 280 84 303.700195312 125.5 c 128,-1,15
 327.400390625 167 327.400390625 167 339.400390625 227 c 1,16,-1
 339.400390625 486 l 2,17,18
 339.400390625 507 339.400390625 507 354.400390625 521.5 c 128,-1,19
 369.400390625 536 369.400390625 536 389.400390625 536 c 128,-1,20
 409.400390625 536 409.400390625 536 424.400390625 521 c 128,-1,21
 439.400390625 506 439.400390625 506 439.400390625 486 c 2,22,-1
 439.400390625 37 l 2,23,24
 439.400390625 17 439.400390625 17 424.400390625 2 c 128,-1,25
 409.400390625 -13 409.400390625 -13 389.400390625 -13 c 128,-1,26
 369.400390625 -13 369.400390625 -13 354.400390625 1.5 c 128,-1,27
 339.400390625 16 339.400390625 16 339.400390625 37 c 2,28,-1
 339.400390625 45 l 1,29,30
 298.599609375 -16 298.599609375 -16 242.200195312 -16 c 2,31,-1
 239.799804688 -16 l 2,32,33
 193.599609375 -15 193.599609375 -15 149.400390625 24 c 128,-1,34
 105.200195312 63 105.200195312 63 86.2001953125 130 c 0,35,36
 76.2001953125 168 76.2001953125 168 76.2001953125 242 c 2,0,-1
176.200195312 608 m 2,37,-1
 176.200195312 666 l 2,38,39
 176.200195312 686 176.200195312 686 185.200195312 701 c 128,-1,40
 194.200195312 716 194.200195312 716 206.200195312 716 c 128,-1,41
 218.200195312 716 218.200195312 716 227.200195312 701 c 128,-1,42
 236.200195312 686 236.200195312 686 236.200195312 666 c 2,43,-1
 236.200195312 608 l 2,44,45
 236.200195312 588 236.200195312 588 227.200195312 573.5 c 128,-1,46
 218.200195312 559 218.200195312 559 206.200195312 559 c 128,-1,47
 194.200195312 559 194.200195312 559 185.200195312 573.5 c 128,-1,48
 176.200195312 588 176.200195312 588 176.200195312 608 c 2,37,-1
279.400390625 608 m 2,49,-1
 279.400390625 666 l 2,50,51
 279.400390625 687 279.400390625 687 288.400390625 701.5 c 128,-1,52
 297.400390625 716 297.400390625 716 309.400390625 716 c 128,-1,53
 321.400390625 716 321.400390625 716 330.400390625 701 c 128,-1,54
 339.400390625 686 339.400390625 686 339.400390625 666 c 2,55,-1
 339.400390625 608 l 2,56,57
 339.400390625 588 339.400390625 588 330.400390625 573.5 c 128,-1,58
 321.400390625 559 321.400390625 559 309.400390625 559 c 0,59,60
 296.799804688 559 296.799804688 559 288.099609375 573.5 c 128,-1,61
 279.400390625 588 279.400390625 588 279.400390625 608 c 2,49,-1
EndSplineSet
EndChar

StartChar: dotlessi
Encoding: 305 305 115
Width: 618
GlyphClass: 2
Flags: W
LayerCount: 2
Fore
SplineSet
108.599609375 474 m 128,-1,1
 108.599609375 494 108.599609375 494 123.099609375 509 c 128,-1,2
 137.599609375 524 137.599609375 524 158.599609375 524 c 2,3,-1
 338.599609375 524 l 2,4,5
 359.599609375 524 359.599609375 524 374.099609375 509.5 c 128,-1,6
 388.599609375 495 388.599609375 495 388.599609375 474 c 2,7,-1
 388.599609375 37 l 2,8,9
 388.599609375 16 388.599609375 16 373.599609375 1.5 c 128,-1,10
 358.599609375 -13 358.599609375 -13 338.599609375 -13 c 128,-1,11
 318.599609375 -13 318.599609375 -13 303.599609375 2 c 128,-1,12
 288.599609375 17 288.599609375 17 288.599609375 37 c 2,13,-1
 288.599609375 424 l 1,14,-1
 158.599609375 424 l 2,15,16
 138.599609375 424 138.599609375 424 123.599609375 439 c 128,-1,0
 108.599609375 454 108.599609375 454 108.599609375 474 c 128,-1,1
EndSplineSet
EndChar

StartChar: OE
Encoding: 338 338 116
Width: 618
GlyphClass: 2
Flags: W
LayerCount: 2
Fore
SplineSet
-48.599609375 354 m 2,0,-1
 -48.599609375 359 l 2,1,2
 -48.599609375 449 -48.599609375 449 -23.099609375 529 c 128,-1,3
 2.400390625 609 2.400390625 609 47 665 c 128,-1,4
 91.599609375 721 91.599609375 721 139.599609375 721 c 0,5,6
 189.400390625 721 189.400390625 721 227.799804688 654 c 1,7,8
 229.799804688 674 229.799804688 674 243.299804688 687.5 c 128,-1,9
 256.799804688 701 256.799804688 701 277.799804688 701 c 2,10,-1
 620.799804688 701 l 2,11,12
 641.799804688 701 641.799804688 701 656.299804688 686 c 128,-1,13
 670.799804688 671 670.799804688 671 670.799804688 651 c 128,-1,14
 670.799804688 631 670.799804688 631 655.799804688 616 c 128,-1,15
 640.799804688 601 640.799804688 601 620.799804688 601 c 2,16,-1
 327.799804688 601 l 1,17,-1
 327.799804688 416 l 1,18,-1
 571.799804688 416 l 2,19,20
 591.799804688 416 591.799804688 416 606.299804688 401 c 128,-1,21
 620.799804688 386 620.799804688 386 620.799804688 366 c 0,22,23
 620.799804688 345 620.799804688 345 606.799804688 330.5 c 128,-1,24
 592.799804688 316 592.799804688 316 571.799804688 316 c 2,25,-1
 327.799804688 316 l 1,26,-1
 327.799804688 101 l 1,27,-1
 620.799804688 101 l 2,28,29
 641.799804688 101 641.799804688 101 656.299804688 86 c 128,-1,30
 670.799804688 71 670.799804688 71 670.799804688 51 c 128,-1,31
 670.799804688 31 670.799804688 31 655.799804688 16 c 128,-1,32
 640.799804688 1 640.799804688 1 620.799804688 1 c 2,33,-1
 277.799804688 1 l 2,34,35
 257.799804688 1 257.799804688 1 242.799804688 15.5 c 128,-1,36
 227.799804688 30 227.799804688 30 227.799804688 51 c 2,37,-1
 227.799804688 57 l 1,38,39
 190.599609375 -13 190.599609375 -13 139.599609375 -13 c 0,40,41
 94 -13 94 -13 50.7001953125 44 c 128,-1,42
 7.400390625 101 7.400390625 101 -20.099609375 183 c 128,-1,43
 -47.599609375 265 -47.599609375 265 -48.599609375 354 c 2,0,-1
51.400390625 354 m 2,44,45
 52 297 52 297 60.7001953125 238.5 c 128,-1,46
 69.400390625 180 69.400390625 180 90.099609375 133.5 c 128,-1,47
 110.799804688 87 110.799804688 87 139.599609375 87 c 128,-1,48
 168.400390625 87 168.400390625 87 189.099609375 133.5 c 128,-1,49
 209.799804688 180 209.799804688 180 218.5 238.5 c 128,-1,50
 227.200195312 297 227.200195312 297 227.799804688 354 c 2,51,-1
 227.799804688 361 l 2,52,53
 227.200195312 421 227.200195312 421 218.5 478 c 128,-1,54
 209.799804688 535 209.799804688 535 188.799804688 578 c 128,-1,55
 167.799804688 621 167.799804688 621 139.599609375 621 c 0,56,57
 112.599609375 621 112.599609375 621 87.400390625 572 c 0,58,59
 51.400390625 501 51.400390625 501 51.400390625 360 c 2,60,-1
 51.400390625 354 l 2,44,45
EndSplineSet
EndChar

StartChar: oe
Encoding: 339 339 117
Width: 486
GlyphClass: 2
Flags: W
LayerCount: 2
Fore
SplineSet
-52.2001953125 263 m 0,0,1
 -52.2001953125 386 -52.2001953125 386 7.400390625 465 c 128,-1,2
 67 544 67 544 137.799804688 544 c 0,3,4
 214.599609375 544 214.599609375 544 256 446 c 1,5,6
 294.400390625 541 294.400390625 541 368.799804688 544 c 2,7,-1
 372.400390625 544 l 2,8,9
 439.400390625 544 439.400390625 544 498.900390625 472.5 c 128,-1,10
 558.400390625 401 558.400390625 401 558.400390625 286 c 0,11,12
 558.400390625 265 558.400390625 265 543.900390625 250.5 c 128,-1,13
 529.400390625 236 529.400390625 236 508.400390625 236 c 2,14,-1
 289 236 l 1,15,16
 293.200195312 165 293.200195312 165 315.099609375 124 c 128,-1,17
 337 83 337 83 377.799804688 83 c 0,18,19
 388 83 388 83 398.799804688 86 c 0,20,21
 417.400390625 91 417.400390625 91 427.599609375 110 c 0,22,23
 435.400390625 124 435.400390625 124 457.400390625 124 c 0,24,25
 478.400390625 124 478.400390625 124 493.400390625 109 c 128,-1,26
 508.400390625 94 508.400390625 94 508.400390625 74 c 0,27,28
 508.400390625 28 508.400390625 28 465.599609375 6.5 c 128,-1,29
 422.799804688 -15 422.799804688 -15 382 -15 c 0,30,31
 348.400390625 -15 348.400390625 -15 325 -2 c 0,32,33
 281.200195312 22 281.200195312 22 257.799804688 84 c 1,34,35
 216.400390625 -16 216.400390625 -16 137.799804688 -16 c 0,36,37
 67.599609375 -16 67.599609375 -16 7.7001953125 62.5 c 128,-1,38
 -52.2001953125 141 -52.2001953125 141 -52.2001953125 263 c 0,0,1
47.7998046875 263 m 128,-1,40
 47.7998046875 184 47.7998046875 184 70.900390625 134 c 128,-1,41
 94 84 94 84 137.799804688 84 c 128,-1,42
 181.599609375 84 181.599609375 84 204.700195312 134 c 128,-1,43
 227.799804688 184 227.799804688 184 227.799804688 263 c 128,-1,44
 227.799804688 342 227.799804688 342 204.700195312 393 c 128,-1,45
 181.599609375 444 181.599609375 444 137.799804688 444 c 128,-1,46
 94 444 94 444 70.900390625 393 c 128,-1,39
 47.7998046875 342 47.7998046875 342 47.7998046875 263 c 128,-1,40
292 336 m 1,47,-1
 452.400390625 336 l 1,48,49
 440.400390625 391 440.400390625 391 423.200195312 417.5 c 128,-1,50
 406 444 406 444 368.799804688 444 c 0,51,52
 338.799804688 444 338.799804688 444 319.299804688 414.5 c 128,-1,53
 299.799804688 385 299.799804688 385 292 336 c 1,47,-1
EndSplineSet
EndChar

StartChar: dotlessj
Encoding: 567 567 118
Width: 616
GlyphClass: 2
Flags: W
LayerCount: 2
Fore
SplineSet
91.7998046875 -129 m 128,-1,1
 91.7998046875 -108 91.7998046875 -108 106.299804688 -93.5 c 128,-1,2
 120.799804688 -79 120.799804688 -79 141.799804688 -79 c 0,3,4
 150.799804688 -79 150.799804688 -79 167.799804688 -79.5 c 128,-1,5
 184.799804688 -80 184.799804688 -80 192.799804688 -80 c 0,6,7
 228.799804688 -80 228.799804688 -80 250.799804688 -71.5 c 128,-1,8
 272.799804688 -63 272.799804688 -63 284.799804688 -37 c 0,9,10
 294.799804688 -15 294.799804688 -15 294.799804688 57 c 2,11,-1
 294.799804688 424 l 1,12,-1
 198.799804688 424 l 2,13,14
 178.799804688 424 178.799804688 424 163.799804688 439 c 128,-1,15
 148.799804688 454 148.799804688 454 148.799804688 474 c 128,-1,16
 148.799804688 494 148.799804688 494 163.299804688 509 c 128,-1,17
 177.799804688 524 177.799804688 524 198.799804688 524 c 2,18,-1
 344.799804688 524 l 2,19,20
 365.799804688 524 365.799804688 524 380.299804688 509 c 128,-1,21
 394.799804688 494 394.799804688 494 394.799804688 474 c 2,22,-1
 394.799804688 57 l 2,23,24
 394.799804688 -145 394.799804688 -145 255.799804688 -177 c 0,25,26
 249.799804688 -179 249.799804688 -179 141.799804688 -179 c 0,27,28
 121.799804688 -179 121.799804688 -179 106.799804688 -164.5 c 128,-1,0
 91.7998046875 -150 91.7998046875 -150 91.7998046875 -129 c 128,-1,1
EndSplineSet
EndChar

StartChar: circumflex
Encoding: 710 710 119
Width: 575
GlyphClass: 2
Flags: W
LayerCount: 2
Fore
SplineSet
67.7998046875 417 m 0,0,1
 67.7998046875 432 67.7998046875 432 75.7998046875 445 c 2,2,-1
 243.599609375 753 l 2,3,4
 252 767 252 767 265.200195312 767 c 0,5,6
 281.400390625 767 281.400390625 767 287.400390625 753 c 2,7,-1
 454.799804688 445 l 2,8,9
 463.799804688 433 463.799804688 433 463.799804688 417 c 0,10,11
 463.799804688 397 463.799804688 397 448.799804688 382 c 128,-1,12
 433.799804688 367 433.799804688 367 413.799804688 367 c 0,13,14
 392.799804688 367 392.799804688 367 377.799804688 382 c 2,15,-1
 265.200195312 556 l 1,16,-1
 152.799804688 382 l 2,17,18
 138.799804688 367 138.799804688 367 117.799804688 367 c 0,19,20
 97.7998046875 367 97.7998046875 367 82.7998046875 381.5 c 128,-1,21
 67.7998046875 396 67.7998046875 396 67.7998046875 417 c 0,0,1
EndSplineSet
EndChar

StartChar: caron
Encoding: 711 711 120
Width: 575
GlyphClass: 2
Flags: W
LayerCount: 2
Fore
SplineSet
67.7998046875 888 m 0,0,1
 67.7998046875 909 67.7998046875 909 82.2998046875 923.5 c 128,-1,2
 96.7998046875 938 96.7998046875 938 117.799804688 938 c 0,3,4
 139.799804688 938 139.799804688 938 152.799804688 924 c 2,5,-1
 265.799804688 742 l 1,6,-1
 378.799804688 923 l 2,7,8
 395.799804688 938 395.799804688 938 413.799804688 938 c 0,9,10
 434.799804688 938 434.799804688 938 449.299804688 923 c 128,-1,11
 463.799804688 908 463.799804688 908 463.799804688 888 c 0,12,13
 463.799804688 874 463.799804688 874 450.799804688 855 c 2,14,-1
 286.799804688 552 l 2,15,16
 279 539 279 539 265.799804688 539 c 0,17,18
 252 539 252 539 243.599609375 552 c 1,19,-1
 75.7998046875 861 l 2,20,21
 67.7998046875 874 67.7998046875 874 67.7998046875 888 c 0,0,1
EndSplineSet
EndChar

StartChar: breve
Encoding: 728 728 121
Width: 575
GlyphClass: 2
Flags: W
LayerCount: 2
Fore
SplineSet
67.7998046875 885 m 1,0,-1
 67.7998046875 888 l 2,1,2
 67.7998046875 909 67.7998046875 909 82.2998046875 923.5 c 128,-1,3
 96.7998046875 938 96.7998046875 938 117.799804688 938 c 0,4,5
 137.799804688 938 137.799804688 938 151.799804688 924.5 c 128,-1,6
 165.799804688 911 165.799804688 911 167.799804688 892 c 0,7,8
 172.799804688 833 172.799804688 833 201.599609375 793 c 128,-1,9
 230.400390625 753 230.400390625 753 265.799804688 753 c 128,-1,10
 301.200195312 753 301.200195312 753 330 793 c 128,-1,11
 358.799804688 833 358.799804688 833 363.799804688 892 c 0,12,13
 365.799804688 912 365.799804688 912 379.799804688 925 c 128,-1,14
 393.799804688 938 393.799804688 938 413.799804688 938 c 0,15,16
 434.799804688 938 434.799804688 938 449.299804688 923 c 128,-1,17
 463.799804688 908 463.799804688 908 463.799804688 888 c 2,18,-1
 463.799804688 885 l 1,19,20
 456.799804688 787 456.799804688 787 390.700195312 720 c 128,-1,21
 324.599609375 653 324.599609375 653 265.799804688 653 c 128,-1,22
 207 653 207 653 140.900390625 720 c 128,-1,23
 74.7998046875 787 74.7998046875 787 67.7998046875 885 c 1,0,-1
EndSplineSet
EndChar

StartChar: dotaccent
Encoding: 729 729 122
Width: 608
GlyphClass: 2
Flags: W
LayerCount: 2
Fore
SplineSet
174 526 m 2,0,-1
 174 571 l 2,1,2
 174 591 174 591 188.5 606 c 128,-1,3
 203 621 203 621 224 621 c 2,4,-1
 270 621 l 2,5,6
 291 621 291 621 305.5 606 c 128,-1,7
 320 591 320 591 320 571 c 2,8,-1
 320 526 l 2,9,10
 320 506 320 506 305.5 491 c 128,-1,11
 291 476 291 476 270 476 c 2,12,-1
 224 476 l 2,13,14
 203 476 203 476 188.5 491 c 128,-1,15
 174 506 174 506 174 526 c 2,0,-1
EndSplineSet
EndChar

StartChar: tilde
Encoding: 732 732 123
Width: 580
GlyphClass: 2
Flags: W
LayerCount: 2
Fore
SplineSet
76.2001953125 597 m 2,0,-1
 76.2001953125 607 l 1,1,2
 86.2001953125 657 86.2001953125 657 126.700195312 689.5 c 128,-1,3
 167.200195312 722 167.200195312 722 208.799804688 722 c 0,4,5
 210 722 210 722 213 721.5 c 128,-1,6
 216 721 216 721 217.200195312 721 c 0,7,8
 245.400390625 716 245.400390625 716 283.799804688 668 c 0,9,10
 309 635 309 635 327 635 c 0,11,12
 349.400390625 635 349.400390625 635 356.400390625 670 c 0,13,14
 359.400390625 687 359.400390625 687 373.900390625 698.5 c 128,-1,15
 388.400390625 710 388.400390625 710 405.400390625 710 c 0,16,17
 425.400390625 710 425.400390625 710 440.400390625 695 c 128,-1,18
 455.400390625 680 455.400390625 680 455.400390625 660 c 0,19,20
 455.400390625 656 455.400390625 656 453.400390625 650 c 0,21,22
 443.400390625 600 443.400390625 600 403.900390625 567.5 c 128,-1,23
 364.400390625 535 364.400390625 535 322.799804688 535 c 0,24,25
 321.599609375 535 321.599609375 535 318.599609375 535.5 c 128,-1,26
 315.599609375 536 315.599609375 536 314.400390625 536 c 0,27,28
 286.200195312 540 286.200195312 540 247.799804688 589 c 0,29,30
 223.200195312 621 223.200195312 621 205.200195312 621 c 0,31,32
 183.200195312 621 183.200195312 621 175.200195312 587 c 0,33,34
 172.200195312 570 172.200195312 570 158.200195312 558.5 c 128,-1,35
 144.200195312 547 144.200195312 547 126.200195312 547 c 0,36,37
 106.200195312 547 106.200195312 547 91.2001953125 562 c 128,-1,38
 76.2001953125 577 76.2001953125 577 76.2001953125 597 c 2,0,-1
EndSplineSet
EndChar

StartChar: Gamma
Encoding: 915 915 124
Width: 570
GlyphClass: 2
Flags: W
LayerCount: 2
Fore
SplineSet
84.599609375 51 m 2,0,-1
 84.599609375 663 l 2,1,2
 84.599609375 683 84.599609375 683 99.599609375 698 c 128,-1,3
 114.599609375 713 114.599609375 713 134.599609375 713 c 2,4,-1
 397.799804688 713 l 2,5,6
 417.799804688 713 417.799804688 713 432.799804688 698 c 128,-1,7
 447.799804688 683 447.799804688 683 447.799804688 663 c 2,8,-1
 447.799804688 543 l 2,9,10
 447.799804688 523 447.799804688 523 433.299804688 508 c 128,-1,11
 418.799804688 493 418.799804688 493 397.799804688 493 c 128,-1,12
 376.799804688 493 376.799804688 493 362.299804688 507.5 c 128,-1,13
 347.799804688 522 347.799804688 522 347.799804688 543 c 2,14,-1
 347.799804688 613 l 1,15,-1
 184.599609375 613 l 1,16,-1
 184.599609375 51 l 2,17,18
 184.599609375 30 184.599609375 30 169.599609375 15.5 c 128,-1,19
 154.599609375 1 154.599609375 1 134.599609375 1 c 128,-1,20
 114.599609375 1 114.599609375 1 99.599609375 16 c 128,-1,21
 84.599609375 31 84.599609375 31 84.599609375 51 c 2,0,-1
EndSplineSet
EndChar

StartChar: Theta
Encoding: 920 920 125
Width: 645
GlyphClass: 2
Flags: W
LayerCount: 2
Fore
SplineSet
69.599609375 354 m 2,0,-1
 69.599609375 358 l 2,1,2
 69.599609375 459 69.599609375 459 103.599609375 544.5 c 128,-1,3
 137.599609375 630 137.599609375 630 186.400390625 679 c 0,4,5
 231.599609375 721 231.599609375 721 300.599609375 721 c 0,6,7
 376.599609375 721 376.599609375 721 426.599609375 666.5 c 128,-1,8
 476.599609375 612 476.599609375 612 504.099609375 530.5 c 128,-1,9
 531.599609375 449 531.599609375 449 531.599609375 357 c 2,10,-1
 531.599609375 354 l 2,11,12
 530.599609375 265 530.599609375 265 503.599609375 183 c 128,-1,13
 476.599609375 101 476.599609375 101 426.599609375 44 c 128,-1,14
 376.599609375 -13 376.599609375 -13 300.599609375 -13 c 128,-1,15
 224.599609375 -13 224.599609375 -13 175.099609375 44 c 128,-1,16
 125.599609375 101 125.599609375 101 98.099609375 183 c 128,-1,17
 70.599609375 265 70.599609375 265 69.599609375 354 c 2,0,-1
169.599609375 354 m 2,18,19
 170.200195312 297 170.200195312 297 178.900390625 238.5 c 128,-1,20
 187.599609375 180 187.599609375 180 220.099609375 133.5 c 128,-1,21
 252.599609375 87 252.599609375 87 300.599609375 87 c 0,22,23
 336.599609375 87 336.599609375 87 366.099609375 113.5 c 128,-1,24
 395.599609375 140 395.599609375 140 408.200195312 181.5 c 128,-1,25
 420.799804688 223 420.799804688 223 426.200195312 268 c 128,-1,26
 431.599609375 313 431.599609375 313 431.599609375 354 c 0,27,28
 431.599609375 415 431.599609375 415 422.900390625 473.5 c 128,-1,29
 414.200195312 532 414.200195312 532 381.900390625 576.5 c 128,-1,30
 349.599609375 621 349.599609375 621 300.599609375 621 c 0,31,32
 269.599609375 621 269.599609375 621 243.599609375 600 c 0,33,34
 200.599609375 566 200.599609375 566 185.099609375 500 c 128,-1,35
 169.599609375 434 169.599609375 434 169.599609375 359 c 2,36,-1
 169.599609375 354 l 2,18,19
193.599609375 354 m 128,-1,38
 193.599609375 375 193.599609375 375 208.099609375 389.5 c 128,-1,39
 222.599609375 404 222.599609375 404 243.599609375 404 c 2,40,-1
 357.599609375 404 l 2,41,42
 378.599609375 404 378.599609375 404 393.099609375 389 c 128,-1,43
 407.599609375 374 407.599609375 374 407.599609375 354 c 128,-1,44
 407.599609375 334 407.599609375 334 392.599609375 319 c 128,-1,45
 377.599609375 304 377.599609375 304 357.599609375 304 c 2,46,-1
 243.599609375 304 l 2,47,48
 223.599609375 304 223.599609375 304 208.599609375 318.5 c 128,-1,37
 193.599609375 333 193.599609375 333 193.599609375 354 c 128,-1,38
EndSplineSet
EndChar

StartChar: Lambda
Encoding: 923 923 126
Width: 616
GlyphClass: 2
Flags: W
LayerCount: 2
Fore
SplineSet
84.599609375 40 m 0,0,1
 84.599609375 56 84.599609375 56 95.099609375 69.5 c 128,-1,2
 105.599609375 83 105.599609375 83 121.599609375 88 c 1,3,-1
 251.599609375 668 l 2,4,5
 254 685 254 685 262.400390625 696 c 128,-1,6
 270.799804688 707 270.799804688 707 281 707 c 0,7,8
 291.799804688 707 291.799804688 707 299.900390625 695.5 c 128,-1,9
 308 684 308 684 310.400390625 668 c 2,10,-1
 437.400390625 88 l 1,11,12
 476.400390625 77 476.400390625 77 476.400390625 40 c 0,13,14
 476.400390625 19 476.400390625 19 461.400390625 4.5 c 128,-1,15
 446.400390625 -10 446.400390625 -10 426.400390625 -10 c 2,16,-1
 369.400390625 -10 l 2,17,18
 349.400390625 -10 349.400390625 -10 334.400390625 5 c 128,-1,19
 319.400390625 20 319.400390625 20 319.400390625 40 c 0,20,21
 319.400390625 64 319.400390625 64 338.400390625 78 c 1,22,-1
 281 435 l 1,23,-1
 223.599609375 78 l 1,24,25
 242.599609375 64 242.599609375 64 242.599609375 40 c 0,26,27
 242.599609375 20 242.599609375 20 227.599609375 5 c 128,-1,28
 212.599609375 -10 212.599609375 -10 192.599609375 -10 c 2,29,-1
 134.599609375 -10 l 2,30,31
 114.599609375 -10 114.599609375 -10 99.599609375 5 c 128,-1,32
 84.599609375 20 84.599609375 20 84.599609375 40 c 0,0,1
EndSplineSet
EndChar

StartChar: Xi
Encoding: 926 926 127
Width: 579
GlyphClass: 2
Flags: W
LayerCount: 2
Fore
SplineSet
74.400390625 51 m 128,-1,1
 74.400390625 71 74.400390625 71 88.900390625 86 c 128,-1,2
 103.400390625 101 103.400390625 101 124.400390625 101 c 2,3,-1
 406.599609375 101 l 2,4,5
 427.599609375 101 427.599609375 101 442.099609375 86.5 c 128,-1,6
 456.599609375 72 456.599609375 72 456.599609375 51 c 128,-1,7
 456.599609375 30 456.599609375 30 441.599609375 15.5 c 128,-1,8
 426.599609375 1 426.599609375 1 406.599609375 1 c 2,9,-1
 124.400390625 1 l 2,10,11
 104.400390625 1 104.400390625 1 89.400390625 16 c 128,-1,0
 74.400390625 31 74.400390625 31 74.400390625 51 c 128,-1,1
74.400390625 651 m 128,-1,13
 74.400390625 671 74.400390625 671 88.900390625 686 c 128,-1,14
 103.400390625 701 103.400390625 701 124.400390625 701 c 2,15,-1
 406.599609375 701 l 2,16,17
 427.599609375 701 427.599609375 701 442.099609375 686.5 c 128,-1,18
 456.599609375 672 456.599609375 672 456.599609375 651 c 128,-1,19
 456.599609375 630 456.599609375 630 441.599609375 615.5 c 128,-1,20
 426.599609375 601 426.599609375 601 406.599609375 601 c 2,21,-1
 124.400390625 601 l 2,22,23
 104.400390625 601 104.400390625 601 89.400390625 616 c 128,-1,12
 74.400390625 631 74.400390625 631 74.400390625 651 c 128,-1,13
134.400390625 366 m 128,-1,25
 134.400390625 386 134.400390625 386 149.400390625 401 c 128,-1,26
 164.400390625 416 164.400390625 416 184.400390625 416 c 2,27,-1
 346.599609375 416 l 2,28,29
 366.599609375 416 366.599609375 416 381.599609375 401.5 c 128,-1,30
 396.599609375 387 396.599609375 387 396.599609375 366 c 128,-1,31
 396.599609375 345 396.599609375 345 382.099609375 330.5 c 128,-1,32
 367.599609375 316 367.599609375 316 346.599609375 316 c 2,33,-1
 184.400390625 316 l 2,34,35
 163.400390625 316 163.400390625 316 148.900390625 331 c 128,-1,24
 134.400390625 346 134.400390625 346 134.400390625 366 c 128,-1,25
EndSplineSet
EndChar

